<svg id="Layer_1" data-name="Layer 1" xmlns="http://www.w3.org/2000/svg" viewBox="0 0 944.96 945.28"><path d="M970,948.59c-7.37,16-20.06,20.57-37.2,20.55q-435.54-.51-871.08-.25c-3.69,0-7.4.15-11.07-.17A27.75,27.75,0,0,1,25,941a27.46,27.46,0,0,1,26-27.29c10-.57,20.14-.11,31.18-.11V901.92q0-144.87,0-289.74c0-24.74,9.87-34.58,34.64-34.59q49.83,0,99.66,0c21,0,31.79,10.81,31.8,31.86q.06,145.78,0,291.58V912.8h55.37v-9.63q0-90.88,0-181.78c0-22.77,10.39-33,33.4-33q50.28,0,100.58,0c21.54,0,32.1,10.72,32.12,32.47q0,90.88,0,181.78V913h55.37V502.08c0-25.51,9.64-35.23,34.92-35.23q48.45,0,96.89,0c24.24,0,34.3,10,34.31,34q0,200.7,0,401.4v10.65h55.37V336.34c0-26.08,9.49-35.61,35.46-35.61q48.45,0,96.89,0c23.56,0,33.76,10.16,33.77,33.61q0,283.74,0,567.49v11.46c21.55,1.44,45.85-6.18,57.22,20.53Z" transform="translate(-25.02 -23.86)"/><path d="M838.93,23.86c16.59,3.74,32.52,8.91,45.32,20.86,24.59,23,34,51,25.09,83.53-9.28,34-32.36,54-67.12,60.34-19,3.45-36.52-.58-53.41-9.41-2.5-1.3-7.36-1.14-9.56.48Q735,212.17,691.44,245.51c-2,1.5-3.44,5.85-2.8,8.25,12.35,46.41-21.3,98.77-75.57,101.64-11.3.6-23-2.59-34.2-5.32-4.91-1.2-7.7-.94-11.2,2.58q-50.4,50.73-101.15,101.11c-3.86,3.83-4.31,6.89-2.42,12,16.95,45.75-7.46,93.91-54.51,108.2-44.76,13.58-92.51-14.34-103.62-60.81-1.41-5.93-2.81-12.37-1.94-18.24,1.31-8.77-2.37-12.32-9.66-15.77-21.92-10.39-43.54-21.43-65.1-32.55-4.83-2.5-8-2.07-12.28,1.3-25.91,20.51-54.82,24.71-84.81,11.6C101,445.9,84.73,420.62,82.41,386.72c-2.25-32.72,19.79-66.78,51-79.56,32-13.11,71-4.27,93,20.74,15.1,17.23,22.08,37.14,21.89,60,0,3,2.6,7.41,5.24,8.79q34.72,18.07,70,35c2.75,1.32,8,.9,10.34-.92,25.46-19.49,52.94-24.42,83.3-13.41,2.57.93,7.31-.17,9.28-2.12Q478,364.36,528.86,312.79c2-2.07,2.85-7.21,1.85-10.1-11.42-32.94-3.11-69.05,21.28-90.46,28.32-24.84,63.16-28.85,96.77-11.63,2.71,1.39,7.94,1.12,10.33-.64q43.88-32.19,87.08-65.28c2-1.55,3.85-5.82,3.21-8.11-12.51-45.25,20-95.28,68.65-101.52a8.6,8.6,0,0,0,2.44-1.19Z" transform="translate(-25.02 -23.86)"/></svg>