<svg id="Layer_1" data-name="Layer 1" xmlns="http://www.w3.org/2000/svg" viewBox="0 0 2160 2160"><defs><style>.cls-1{fill:#e5cfe5;}.cls-11,.cls-2,.cls-20,.cls-27,.cls-34{fill:#9b5aa4;}.cls-3{fill:#e6e7e8;}.cls-18,.cls-4{fill:#f5efe1;}.cls-5{fill:none;}.cls-19,.cls-6{fill:#5e8a6d;}.cls-7{fill:#f1b283;}.cls-8{fill:#d9afd2;}.cls-9{fill:#d9b5d5;}.cls-10{fill:#8b3f98;}.cls-11{opacity:0.5;}.cls-12{fill:#cda1ca;}.cls-13{fill:#8a5593;}.cls-14{fill:#a665aa;}.cls-15{opacity:0.23;}.cls-16{fill:#853293;}.cls-17{fill:#722a81;}.cls-18,.cls-19,.cls-21,.cls-22,.cls-23,.cls-24{fill-rule:evenodd;}.cls-20{opacity:0.26;}.cls-21{fill:#f7b84a;}.cls-22{fill:#fbce55;}.cls-23{fill:#f9c42f;}.cls-24{fill:#fbde94;}.cls-25{fill:#50225b;}.cls-26{fill:#543152;}.cls-27{opacity:0.27;}.cls-28{fill:#aa6eae;}.cls-29{fill:#663670;}.cls-30{fill:#773b85;}.cls-31,.cls-32{fill:#90569a;}.cls-31,.cls-34{opacity:0.56;}.cls-33{fill:#b57fb4;opacity:0.87;}.cls-35{opacity:0.51;}</style></defs><path class="cls-1" d="M1572.41,1296c-17.11-3.9-38.06-12.23-54.43-30.18-15-16.44-20-34.91-29.35-71.09-1.2-4.73-2.4-9.84-3.68-15.32a538.26,538.26,0,0,1-11.56-75.9,186.9,186.9,0,0,1,26.8,22.83,178.68,178.68,0,0,1,25.45,33.1c.08.15.15.23.23.38.15.3.37.6.52.9l.23.45c.9,1.5,1.72,3.08,2.7,5,.38.6.68,1.27,1,2,.9,1.8,2,3.75,3.15,6.15.08.15.16.23.23.38,1.5,3.08,3.08,6.23,4.58,9.38,3.6,7.59,7,15.39,10.28,23.65,1.21,3.08,2.41,6.23,3.53,9.46,1.28,3.53,2.56,7.13,3.76,10.74,1.12,3.45,2.25,6.9,3.3,10.51.08.15.08.37.15.52,1.43,4.81,2.78,9.76,4.05,14.72.6,2.17,1.06,4.28,1.58,6.45s1,4.36,1.5,6.53C1568.13,1274.34,1570.31,1284.4,1572.41,1296Z"/><path class="cls-2" d="M1474.5,1050c-5.77,10.6-50.9,93-133.37,104.63-.12-1.89-.24-3.78-.36-5.78s-.23-4-.23-6c-.24-10.25-.24-21.32.35-33,.12-3.3.35-6.6.59-9.78.83-9.54,1.89-18.61,3.06-27.1,3.19-1.88,6.25-3.77,9.31-5.77C1456,1000,1479.1,883.35,1484.05,824a310.57,310.57,0,0,1,15.9,79.65C1501.84,930.37,1506,990.34,1474.5,1050Z"/><ellipse class="cls-3" cx="1248.03" cy="1780.14" rx="387.47" ry="46.3"/><path class="cls-4" d="M472.45,997.61q-136.17,68.8-260.61,125.59c167.47,94.88,286.12,229.22,345.9,382l75.5-35.15q42.5-34.59,89.76-72.47C684.59,1246,598.71,1107.6,472.45,997.61Z"/><path class="cls-5" d="M681.19,1351.41a747.38,747.38,0,0,0-54.61-116.69c1.85,29.5-14.65,61.87-42.62,80.93-29.43,20-63.79,20.67-91.64,6a702.23,702.23,0,0,1,70.05,119.46l.47-.38c18.67-14.22,41.59-9,49.17,12.21q24.19-19.17,50-39.37C655.14,1392.77,663,1365.13,681.19,1351.41Z"/><path class="cls-5" d="M494.23,1189.23c32.87-18.87,73.28-20.59,100.19-5.49a807.14,807.14,0,0,0-92.67-111.64c-24.8,13.21-61.36,8.3-83.43-9.81Q379,1082.09,341,1100.73c24.31,17.94,20.14,44.73-7.23,58.37l-.71.35a809.23,809.23,0,0,1,118.23,110.63C444.72,1240.67,459.64,1209.09,494.23,1189.23Z"/><path class="cls-6" d="M669.77,1426.92q20.24-16.14,41.43-33-6.84-24.87-15.4-49.22C659,1239.9,598.57,1142.87,517,1059.14q-22.56-23.15-47.23-44.92-32.3,16.41-63.9,32.11-45,22.37-88.61,43.29-37.27,17.91-73.49,34.8,33.14,20.19,63.55,42.43c109.31,79.89,191.44,179,242.45,288.92q10.19,21.93,18.67,44.41l24.2-11.26q10.79-8.78,21.92-17.75Q641.21,1449.71,669.77,1426.92ZM451.25,1270.08A809.23,809.23,0,0,0,333,1159.45l.71-.35c27.37-13.64,31.54-40.43,7.23-58.37q38.09-18.64,77.36-38.44c22.07,18.11,58.63,23,83.43,9.81a807.14,807.14,0,0,1,92.67,111.64c-26.91-15.1-67.32-13.38-100.19,5.49C459.64,1209.09,444.72,1240.67,451.25,1270.08Zm111.59,170.66-.47.38a702.23,702.23,0,0,0-70.05-119.46c27.85,14.66,62.21,14,91.64-6,28-19.06,44.47-51.43,42.62-80.93a747.38,747.38,0,0,1,54.61,116.69c-18.2,13.72-26.05,41.36-19.22,62.17q-25.76,20.22-50,39.37C604.43,1431.76,581.51,1426.52,562.84,1440.74Z"/><path class="cls-4" d="M523.77,979.86Q380,1033.67,242.6,1081.14c158.71,108.75,268.32,257.08,318.16,422.63l66.8-31.1q44.93-27.68,94.6-58.29C699.1,1254.65,630.86,1104.93,523.77,979.86Z"/><path class="cls-6" d="M518.68,996.26q-34.14,12.84-67.9,25.3-48.09,17.73-95.39,34.69-40.45,14.52-80.33,28.45,30.42,22.48,58.23,46.93c100,87.78,174,193.63,218.21,309.45q10.1,26.42,18.12,53.49,21.6-13.15,44.49-27l55.76-33.8q20.36-12.35,41.58-25.27-4.35-26.22-10.33-52.06c-25.71-111.16-74-216.14-142.5-309.63Q539.66,1020.92,518.68,996.26Zm46.68,432.3c-.16.09-.32.2-.49.29a757.12,757.12,0,0,0-61.1-126.71c26.85,17.91,61.24,22.33,91.87,7.14,29.15-14.48,48.06-43.92,49.3-73.46a828.83,828.83,0,0,1,41.74,124.71c-18.5,10.5-28.24,36.55-23.24,58.48q-26,15.45-50.7,30C606.79,1426.73,584.78,1417.73,565.36,1428.56ZM460.72,1038.8c19.26,20.34,54.95,29.28,81.13,19.08A851.68,851.68,0,0,1,619,1180.66c-24.58-18.76-64.5-22.27-99.54-7.67-36.85,15.38-55.83,44.58-52.28,73.89a825.54,825.54,0,0,0-106.59-120.23c.25-.09.52-.17.77-.27,29.87-10.85,37.8-36.86,16.11-57Q418.78,1054.44,460.72,1038.8Z"/><path class="cls-4" d="M571,1498.43q73-33.3,158.65-73.37A940.61,940.61,0,0,0,575.06,968q-147.78,40.89-294.25,80.47C428.85,1167.93,529.11,1325.34,571,1498.43Z"/><path class="cls-6" d="M568.08,984.06q-35.16,9.77-70.21,19.44-50,13.77-99.67,27.35-42.54,11.61-84.93,23.08,27.75,24.22,53.05,50.27c90.94,93.51,157.45,203.65,195.94,322.75q8.79,27.16,15.63,54.92,21.93-9.8,44.94-20.16,27.15-12.23,55.77-25.28,20.28-9.26,41.28-19-2.4-27-6.31-53.65a929.84,929.84,0,0,0-112-325.25Q585.82,1010.82,568.08,984.06Zm8.64,432.47a5.32,5.32,0,0,0-.5.21,817,817,0,0,0-53.35-131c25.8,20.28,60,28.62,91.28,17.37,29.82-10.73,50.44-37.53,54.11-66.74a918,918,0,0,1,31.16,129.54c-18.54,7.87-29.66,32.36-26.12,54.91q-26,11.57-50.88,22.45C617.78,1420.27,596.64,1408.44,576.72,1416.53Zm-71.06-394.91c16.73,22,51.26,34.09,78.19,26.45a919.57,919.57,0,0,1,63.79,130.39c-22.41-21.46-61.44-29.14-97.85-18.08-38.28,11.66-60.4,38.72-59.38,67.69a855.58,855.58,0,0,0-95.72-126.88l.83-.2c31.57-8.54,42.49-33.69,23.22-55.39Q462.09,1033.72,505.66,1021.62Z"/><polygon class="cls-7" points="166.45 937.8 264.57 979.86 279.03 957.99 194.45 885.74 166.45 937.8"/><polygon class="cls-7" points="303.66 816.14 356.81 915.86 386.9 908.05 370.86 789.88 303.66 816.14"/><polygon class="cls-7" points="515.64 792.06 472.11 889.69 498.08 904.37 570.27 818.27 515.64 792.06"/><path class="cls-8" d="M1433.08,1274.42A1106,1106,0,0,1,1249.45,1294a1101.43,1101.43,0,0,1-215.91-16.44,365,365,0,0,0,11.93-52.55c1-6.31,1.73-12.46,2.25-18.39a622.2,622.2,0,0,0,149.78,26.42c90.53,4.66,168.76-11.33,229.35-31.31.52,3.23,1.05,6.54,1.5,9.92A495.36,495.36,0,0,1,1433.08,1274.42Z"/><path class="cls-9" d="M1497.19,1298.67a238.12,238.12,0,0,0-32.88-68.47c2.4-5.18,10.51-23.8,11-46.62a85.61,85.61,0,0,0-8.34-40.32,87.18,87.18,0,0,0-15.76-22.37h-.08c-.45-.52-.82-.9-1.27-1.35l-36.19,23.8c-16.21,2.48-33.1,4.65-50.75,6.38h-.22c-7.13.83-14.27,1.43-21.7,2h-.07c-5.86.45-11.79.9-17.8,1.2H1323c-23.35,1.42-47.75,2.1-73,1.8h-1.27a1006.75,1006.75,0,0,1-221.17-27.33c-.68,1.13-1.43,2.26-2.18,3.38s-1.42,2.33-2.1,3.53c-1.43,2.33-2.85,4.73-4.2,7.13-1.21,2.18-2.48,4.43-3.68,6.76a6.91,6.91,0,0,0-.45.83h-.08q-2.25,4-4.5,8.33c-1.5,2.93-2.93,5.85-4.36,8.86s-2.85,6-4.28,9.08-2.85,6.16-4.13,9.38c-.52,1.21-1,2.48-1.5,3.68-.82,2-1.65,4.06-2.47,6.16q-1.92,4.73-3.61,9.68a10.26,10.26,0,0,0-.52,1.36c-.9,2.55-1.81,5.18-2.63,7.8-.6,1.58-1.05,3.16-1.5,4.73-.75,2.18-1.43,4.43-2.1,6.68-.38,1.28-.76,2.56-1.06,3.83-.9,3-1.72,6-2.47,9.09-.9,3.45-1.73,7-2.56,10.58-.07.3-.15.68-.22,1a2.3,2.3,0,0,0-.23,1c0,.08,0,.08-.07.15-.83,3.68-1.58,7.44-2.25,11.19s-1.35,7.43-2,11.19c-.16,1-.3,2.1-.46,3.15-.07.67-.22,1.35-.3,2-.45,3-.82,6-1.2,9-.37,3.38-.82,7.36-1.35,11.72v.07c-.52,4.35-1,9.16-1.35,14.26-.6,6.91-1,14.42-1.28,22.38-.15,4-.22,8.18-.22,12.46,0,3.08,0,6.23.15,9.38,0,1.88.07,3.76.15,5.71s.15,3.9.3,5.93c.15,2.4.3,4.8.53,7.21.15,2.17.37,4.43.6,6.6.6,5.26,1.27,10.59,2.1,15.92.45,2.4.9,4.88,1.35,7.28.22,1.43.52,2.85.82,4.2.83,4,1.73,7.89,2.78,11.87.6,2.4,1.28,4.8,2.1,7.2a2.1,2.1,0,0,0,.16.68,44,44,0,0,0,1.35,4.28c.75,2.4,1.57,4.8,2.47,7.13,1,2.93,2.26,5.86,3.53,8.71,1.05,2.55,2.18,5.1,3.46,7.66s2.47,5.18,3.9,7.65,2.7,5,4.2,7.36,3.16,5,4.81,7.36c1.05,1.5,2.1,3,3.3,4.5,2.48,3.53,5.26,7,8.18,10.36,1.06,1.28,2.18,2.56,3.31,3.76a33.41,33.41,0,0,0,3.23,3.45,34.42,34.42,0,0,0,2.85,2.93,60.54,60.54,0,0,0,4.5,4.35,212.11,212.11,0,0,0,25.3,20.65c2.86,2,5.71,3.9,8.64,5.78s5.85,3.68,8.86,5.4a5.28,5.28,0,0,0,.9.53c2.7,1.58,5.4,3.08,8.1,4.58l1.36.67c4.65,2.41,9.3,4.81,14.11,7.06s9.76,4.35,14.71,6.46c3.61,1.5,7.21,2.85,10.89,4.2,3.53,1.35,7.13,2.63,10.73,3.83,2.86,1,5.64,1.88,8.56,2.78s5.71,1.73,8.64,2.55,5.78,1.65,8.71,2.4c2.47.6,4.87,1.28,7.28,1.88,3.53.83,7,1.65,10.58,2.4,3,.6,6,1.28,9,1.88,9.09,1.8,18.32,3.3,27.63,4.5s18.69,2.26,28.08,2.93q7.1.57,14.18.9c4.73.23,9.46.38,14.27.45,3.38.08,6.76.08,10.13.08,50.83,0,79.36-6.08,84.24-7.28.22-.08.52-.08.75-.15a3.6,3.6,0,0,0,.82-.23c6-1.65,36.71-10.51,63.21-29.28C1499.67,1502.19,1523.16,1386.88,1497.19,1298.67Zm-463.65-21.1a365,365,0,0,0,11.93-52.55c1-6.31,1.73-12.46,2.25-18.39a622.2,622.2,0,0,0,149.78,26.42c90.53,4.66,168.76-11.33,229.35-31.31.52,3.23,1.05,6.54,1.5,9.92a495.36,495.36,0,0,1,4.73,62.76A1106,1106,0,0,1,1249.45,1294,1101.43,1101.43,0,0,1,1033.54,1277.57Z"/><path class="cls-10" d="M1156.73,1720.5a11.14,11.14,0,0,1-1.13,1,52.57,52.57,0,0,1-4.42,4c-3.08,2.85-6.24,5.55-9.54,8.26-33.48,27.17-67.72,55-105.33,49.1-30.93-4.81-50.67-30.41-74.47-71.93-.83-1.57-1.73-3.07-2.63-4.72-.15-.3-.37-.61-.52-.91.82.15,1.57.38,2.4.53,4.58,1,9.31,2,14,2.93,16.29,3.23,33.56,6.08,51.72,8.26a699.7,699.7,0,0,0,110.74,4.5c5.25-.15,10.36-.45,15.39-.75Z"/><path class="cls-10" d="M1579.72,1719c-22.5,34.76-42.89,60-73.17,65.63-36.41,7-78.7-15.44-117.23-59.27a611.83,611.83,0,0,0,76.7,4.48A622.81,622.81,0,0,0,1579.72,1719Z"/><path class="cls-1" d="M1850.26,1466q-75.67,35.35-151.2,70.71A166.72,166.72,0,0,0,1656,1483.8a1.58,1.58,0,0,1-.08.6v.3c-4,64-19.66,139.26-62.31,212-3.6,6.15-7.28,12.16-11.18,17.94-.83,1.43-1.8,2.78-2.7,4.2v.15A620.25,620.25,0,0,1,1466,1729.81a602.06,602.06,0,0,1-76.72-4.5c-1.35-1.58-2.78-3.15-4.06-4.81-18.16-21.54-35.28-47.74-50.59-78-38.67-.6-77.18-1.2-115.84-1.72a313.62,313.62,0,0,1-57.89,75.74c-1.35,1.36-2.77,2.63-4.2,4a692.9,692.9,0,0,1-129.88-3.52c-24.47-2.93-47.37-7.06-68.16-11.64-.83-1.58-1.73-3.15-2.63-4.73-4.58-8.33-9.46-17.12-14.49-26.5a594,594,0,0,1-52.78-134.46c-.07-.07-.07-.07-.07-.15a555.16,555.16,0,0,1-12.09-61.93A580.52,580.52,0,0,1,874.9,1339l-5.93-.67a446.9,446.9,0,0,1-141.51-41.52c-3.08-1.5-6.08-3-9.08-4.58q3-58.79,3.9-121.24c.45-24.7.45-49.1.38-73.13,26.27,7.74,75.89,20.57,131.15,25.31,11,1,23.65,1.64,37.54,1.87a571.64,571.64,0,0,0,66.51-2.78c10.44-1.12,21.4-2.47,32.81-4.43,11.56,3.23,23.8,6.54,36.78,9.61-.75,1-1.42,2.26-2.1,3.38s-1.42,2.33-2.1,3.53c-1.43,2.33-2.85,4.73-4.2,7.13-1.36,2.18-2.56,4.43-3.83,6.68a8.89,8.89,0,0,0-.45.83c-1.5,2.78-3,5.56-4.43,8.41s-2.93,5.85-4.36,8.86-2.92,6-4.28,9.08-2.85,6.16-4.13,9.38c-.6,1.21-1.05,2.41-1.57,3.61-.83,2-1.65,4.13-2.4,6.23q-1.92,4.73-3.61,9.68a10.26,10.26,0,0,0-.52,1.36c-.9,2.55-1.81,5.18-2.63,7.8-.6,1.58-1.05,3.16-1.5,4.73-.75,2.18-1.43,4.43-2.1,6.68-.38,1.28-.76,2.56-1.06,3.83-.9,3-1.72,6-2.47,9.09-1,3.53-1.8,7-2.56,10.58-.07.3-.15.68-.22,1a2.3,2.3,0,0,0-.23,1c0,.08,0,.08-.07.15-.83,3.68-1.58,7.44-2.25,11.19s-1.35,7.36-2,11.19c-.16,1-.3,2.1-.46,3.15-.07.67-.22,1.35-.3,2-.52,2.92-.9,5.93-1.27,9-.38,3.46-.83,7.36-1.28,11.72v.07c-.52,4.35-1,9.16-1.35,14.26-.6,6.91-1,14.42-1.28,22.38-.15,4-.22,8.18-.22,12.46,0,3.08,0,6.23.15,9.38,0,1.88.07,3.76.15,5.71s.15,3.9.3,5.93c.15,2.4.3,4.8.53,7.21.15,2.17.37,4.43.6,6.6.6,5.26,1.27,10.59,2.1,15.92.45,2.4.9,4.88,1.35,7.28.22,1.43.52,2.85.82,4.2.83,4,1.73,7.89,2.78,11.87.6,2.4,1.28,4.8,2.1,7.2a2.1,2.1,0,0,0,.16.68,44,44,0,0,0,1.35,4.28c.75,2.4,1.57,4.8,2.47,7.13,1,2.93,2.26,5.86,3.53,8.71,1.05,2.55,2.18,5.1,3.46,7.66s2.47,5.18,3.9,7.65,2.7,5,4.2,7.36,3.16,5,4.81,7.36c1.05,1.5,2.1,3,3.3,4.5,2.48,3.53,5.26,7,8.18,10.36a38.41,38.41,0,0,0,3.31,3.76,33.41,33.41,0,0,0,3.23,3.45,34.42,34.42,0,0,0,2.85,2.93,60.54,60.54,0,0,0,4.5,4.35,212.11,212.11,0,0,0,25.3,20.65c2.86,2,5.71,3.9,8.64,5.78s5.85,3.68,8.86,5.4a5.28,5.28,0,0,0,.9.53c2.7,1.58,5.4,3.08,8.1,4.58l1.36.67c4.65,2.41,9.3,4.81,14.11,7.06s9.76,4.35,14.71,6.46c3.61,1.5,7.21,2.85,10.89,4.2,3.53,1.35,7.13,2.63,10.73,3.83,2.86,1,5.64,1.88,8.56,2.78s5.71,1.73,8.64,2.55,5.78,1.65,8.71,2.4c2.47.6,4.87,1.28,7.28,1.88,3.53.83,7,1.65,10.58,2.4,3,.6,6,1.28,9,1.88,9.16,1.73,18.32,3.23,27.63,4.5s18.69,2.26,28.08,2.93q7.1.57,14.18.9c4.73.23,9.46.38,14.27.45,3.38.08,6.76.08,10.13.08a483.1,483.1,0,0,0,84.24-7.28c.22-.08.52-.08.75-.15a3.6,3.6,0,0,0,.82-.23c82.66-14.86,155.41-51.88,190.16-111,34.09-57.81,27.63-130,19.37-176.65-2.1-11.56-4.28-21.62-5.93-29.43-.52-2.17-1-4.35-1.5-6.53s-1-4.28-1.58-6.45c-1.27-5-2.62-9.91-4.05-14.72-.07-.15-.07-.37-.15-.52-1-3.61-2.18-7.06-3.3-10.51-1.2-3.61-2.48-7.21-3.76-10.74-1.12-3.23-2.32-6.38-3.53-9.46-3.3-8.26-6.68-16.06-10.28-23.65-1.5-3.15-3.08-6.3-4.58-9.38-.07-.15-.15-.23-.23-.38-1.2-2.4-2.25-4.35-3.15-6.15-.37-.68-.67-1.35-1-2-1-1.88-1.8-3.46-2.7-5l-.23-.45c-.15-.3-.37-.6-.52-.9-.08-.15-.15-.23-.23-.38a178.68,178.68,0,0,0-25.45-33.1,186.9,186.9,0,0,0-26.8-22.83c4.36-3.67,9-7.73,13.81-12.08a224.86,224.86,0,0,0,48.65,32.13c6.38,3.08,11.19,4.88,15.77,6.76,1.5.6,3,1.27,4.5,2a508.46,508.46,0,0,1,67.42,36.48C1764.83,1259.7,1825.71,1397.31,1850.26,1466Z"/><path class="cls-10" d="M722.37,1171c-.46,31.35-1.2,54.91-1.41,61.5q-1,30.32-2.48,59.74c-40.53-16.51-66.46-38-81.65-53.1-10.83-10.75-34.87-34.61-28.68-46.61,8.14-15.79,62.69.37,68.75-15.44,1.3-3.39-.07-7.1-1.43-9.71Q660.53,1131,645.6,1094.6a166.76,166.76,0,0,1,77.13,3.24C722.87,1126.08,722.67,1150.77,722.37,1171Z"/><path class="cls-10" d="M1696.76,1533l152.76-67c22.15,75.53,19.76,101.43,9.25,106.53-15.72,7.64-46.78-32.16-67.81-22.59-20.67,9.41-8.54,56-22.82,61.1C1758.36,1614.61,1738.14,1598,1696.76,1533Z"/><path class="cls-11" d="M1625,721.05A161.05,161.05,0,0,1,1613.4,697c-7.05-18.32-14-45.79-14.11-83.25a216,216,0,0,1,1-23.35v-.23a227.75,227.75,0,0,1,5.86-31.6v-.08c-2.11-3.9-4.21-7.66-6.24-11.19-2.85-4.87-5.55-9.46-8.25-13.81-6.83-11-13.22-20.42-18.7-27.93-5-7-9.31-12.38-12.38-16.29a463.72,463.72,0,0,0-35.81-39.79,427.72,427.72,0,0,0-36.64-32.28c-132.43-104.28-288.58-104.43-314.71-104-49.85.75-182,10.36-299.09,106.38-8.48,6.83-16.67,14.19-24.93,21.92a474.12,474.12,0,0,0-82.13,102,429.65,429.65,0,0,0-43.76,101.12q-5.29,18.36-9,38.44c-.75,4.13-1.43,8.48-2.18,12.84-2,12.83-3.3,25.44-4,37.76,9.46,169.59,121.7,287.08,141.06,306.6a456,456,0,0,0,58.86,50.52,493.9,493.9,0,0,0,49.55,31.53,571.64,571.64,0,0,1-66.51,2.78c5.7,4.51,11.33,8.71,17,12.84a483.57,483.57,0,0,0,76.58,45.34c3.68,1.73,7.43,3.46,11.11,5.11l.07.07c15.17,6.08,32.43,12.39,51.65,18.25a622.2,622.2,0,0,0,149.78,26.42c90.53,4.66,168.76-11.33,229.35-31.31,17.64-5.85,33.85-12,48.42-18.16,3.3-1.35,6.53-2.78,9.68-4.21a141.73,141.73,0,0,0,41.22-19.14,132.86,132.86,0,0,0,15.09-11.94,136.1,136.1,0,0,0,14.86-16.06c-1.5-.68-3-1.35-4.5-2-5.33-2.48-10.59-4.66-15.77-6.76a224.86,224.86,0,0,1-48.65-32.13c4.43-4,8.94-8.26,13.67-12.92l.22-.22A552,552,0,0,0,1573.91,990c-.07-2.32-.15-4.43-.22-6.3,2-2.63,4-5.41,6.16-8.41a445.28,445.28,0,0,0,39.71-67l40.39-143C1644,753.41,1630.82,730.89,1625,721.05ZM969.5,912.86c.52-2.77,1.12-5.63,1.8-8.33a147.55,147.55,0,0,1,27.85-56c38-48.35,106.38-80.63,184.53-80.63,76.13,0,143.09,30.55,181.53,76.8a161.17,161.17,0,0,1,14,19.36,140.5,140.5,0,0,1,19,48.8,135.56,135.56,0,0,1,2.1,23.5c0,62.61-43.92,117.27-109.08,146.24-.15.08-.3.08-.38.15a.42.42,0,0,0-.3.15,240.7,240.7,0,0,1-40.61,14,245,245,0,0,1-33,6,3,3,0,0,1-.83.15,285.12,285.12,0,0,1-32.43,1.88,272.83,272.83,0,0,1-61.48-7h-.15c-89.42-20.72-154.65-85.21-154.65-161.56A128.15,128.15,0,0,1,969.5,912.86ZM1362.28,647.7c.3-1.72.38-3.52.6-5.25,5-36.64,22.37-75.68,37.39-75.08,5,.23,9.31,4.81,12.09,8.94a59.7,59.7,0,0,1,3.22,5.7c4.43,9.54,3.08,18.92-1.42,35.21l-.15.08c-.45,2-1,4.28-1.73,6.53-10.73,37.69-16.14,51.2-13.06,53.23,5,3.07,23.8-28.83,33.71-25a6.28,6.28,0,0,1,1.87,1.35c7.51,7.66,4.43,41.59-7.35,69.29-6,14-16.45,38.29-29.28,37.91C1378.2,760,1356.8,701.08,1362.28,647.7Zm-432.72,0c.22-1.72.37-3.52.6-5.25,5-36.64,22.22-75.68,37.31-75.08,5.11.23,9.31,4.81,12,8.86a32,32,0,0,1,3.31,5.78c4.5,9.54,3,18.92-1.51,35.21-.6,2.11-1.2,4.21-1.87,6.61-10.74,37.69-16.14,51.2-13,53.23,5,3.07,23.72-28.83,33.71-25a5.27,5.27,0,0,1,1.8,1.35c7.66,7.66,4.43,41.59-7.36,69.29-5.85,14-16.36,38.29-29.2,37.91C945.47,760,924,701.08,929.56,647.7Zm521.61,473.19h-.08c-1.27,1-2.47,1.8-3.6,2.55-1.2.91-2.25,1.66-3.23,2.26-4,2.77-6.75,4.5-8.18,5.4a5.56,5.56,0,0,0-.83.53.79.79,0,0,0-.3.15c-7.13,4.13-14.19,8-21.32,11.56q30-19.93,59.76-39.87C1464.76,1110.68,1457.25,1116.46,1451.17,1120.89Zm69.14-163.73v-.23c-.07-2.25-.37-4.28-.45-6.16a287.54,287.54,0,0,0-7.73-47.44.24.24,0,0,0-.08-.15c.08-.08,0-.08,0-.08a287.26,287.26,0,0,0-21.84-58.63c-1.73-3.53-3.46-6.68-5-9.61.07,1.65.22,6.23.07,13.14v.38c-1,45.41-13.74,188.65-131.45,265.91-4.13,2.7-8.18,5.17-12.31,7.58h-.08c-.3.22-.6.37-.9.6a297.65,297.65,0,0,1-27.63,13.81h-.07c-.45.15-1,.38-1.5.6a275.33,275.33,0,0,1-38.52,12.91c-7.88,2.11-15.54,3.68-22.82,5h-.07a315.09,315.09,0,0,1-52,4.58,214.25,214.25,0,0,0,44.82,27.25.11.11,0,0,1,.15,0L1323,1153h.07l17.5-7.36,89.63-37.39.15-.07.15-.15.08-.08,70.27-29.43.22-.22C1523.62,1029.53,1522.19,982.91,1520.31,957.16Z"/><path class="cls-12" d="M1001.91,653.36a139.67,139.67,0,0,1-7.3,22.15c-5.89,14-16.38,38.3-29.22,37.94-14.73-.35-30.28-32.64-35.23-71.05a190.22,190.22,0,0,1-.59-41.82c3.89-38.06,22.15-81,37.94-80.36,8.36.35,14.37,12.49,15.31,14.61,5.07,10.6,2.48,21.33-3.29,41.36,0,.11-.12.35-.12.47-10.72,37.7-16.14,51.25-13,53.26,2.47,1.53,8.36-5.66,14.84-12.73s13.79-14.26,18.85-12.25C1007.57,607.76,1007.92,629.8,1001.91,653.36Z"/><path class="cls-12" d="M1434.8,653.36a138.71,138.71,0,0,1-7.31,22.15c-6,14-16.49,38.3-29.34,37.94-14.72-.35-30.28-32.64-35.23-71.05a190.84,190.84,0,0,1-.58-41.82c3.88-38.06,22.26-81,37.93-80.36,8.25.35,14.38,12.49,15.32,14.61,5.07,10.6,2.59,21.33-3.18,41.47,0,.12-.12.24-.12.36-10.72,37.7-16.14,51.25-13.08,53.26,2.48,1.53,8.37-5.54,14.85-12.61l.12-.12c6.6-7.07,13.78-14.26,18.73-12.25C1440.45,607.76,1440.69,629.92,1434.8,653.36Z"/><path class="cls-13" d="M1484.52,1036.57c-6.15,10.07-54.34,88.33-142.45,99.29,78.27-11.07,121.09-89.22,126.57-99.29,29.86-56.57,25.94-113.49,24.15-138.87a294.52,294.52,0,0,0-15.09-75.58,302.27,302.27,0,0,0,1.12-34.44,272,272,0,0,1,32.87,110C1513.7,923.08,1518.06,980,1484.52,1036.57Z"/><path class="cls-5" d="M1488.13,370c-4.39,4.29-8.79,8.68-13.29,13.3"/><path class="cls-14" d="M1620.61,445.52c-5.66,31.22-10.61,50.08-14.38,65.75q-3.18-5.83-6.36-11.32A486.35,486.35,0,0,0,1573,458.36c-4.94-6.95-9.3-12.37-12.37-16.26q-13.79-17.14-28.27-32.16c-2.48-2.59-4.95-5.19-7.55-7.66,72.58-90.73,94.38-93.91,102.39-89.78C1643.35,321.1,1633.09,377.42,1620.61,445.52Z"/><path class="cls-5" d="M1573,458.34a144.55,144.55,0,0,0,16.59-21.43,149.07,149.07,0,0,0,11.76-22.52"/><path class="cls-5" d="M958.67,1705.29c-.71-.11-1.41-.35-2.12-.47"/><g class="cls-15"><path class="cls-16" d="M906.86,1240.11a465.34,465.34,0,0,0-32,98.86q1.18-6.39,2.55-12.77a401.7,401.7,0,0,1,29.44-86.09Z"/></g><g class="cls-15"><path class="cls-16" d="M1179.73,1638.58c14.42.38,34.16,1.26,48.32,1.55,13.93.24,34.2.28,48.35.46s34.31.85,48.34,1.05c13.82.14,34.36-.34,48.34-.38v0c-14.11.19-34.46.8-48.35.67s-34.17-.69-48.34-.9c-31.32-.24-65.47-.79-96.66-2.5Z"/></g><path class="cls-17" d="M1637.73,1611.5c-12.46,37.31-33.56,77-36.94,83.33-4.2,7.81-8.26,15-12.09,21.47-2-.52-4.13-1.13-6.3-1.65a356.81,356.81,0,0,0-197.15,5.85q-3.48,1.14-6.75,2.26a245.68,245.68,0,0,1-29.06-37.16,249.69,249.69,0,0,1-18.69-35.89c-16.74,1.2-35,1.88-54.58,1.58-18.84-.3-36.41-1.5-52.55-3.16a229.94,229.94,0,0,1-25.52,39,227,227,0,0,1-31.16,31.68c-2-.75-3.9-1.57-6-2.33a367.54,367.54,0,0,0-204.87-15.91c-2.63.52-5.18,1.13-7.58,1.65a745.81,745.81,0,0,1-59.69-162.61c-.07-.07-.07-.07-.07-.15q-7.1-29.38-12.09-61.93A736.86,736.86,0,0,1,869,1338.31c.3-7.44.68-14.57,1.13-21.48,3.6-.52,7-1,10.28-1.72,49.63-9.54,70.5-34.39,76.66-42.64,16.74-22.38,22.89-52.33,27.85-89.27,1.12-7.73,2.1-15.84,3.15-24.24,1.13-8.56,1.73-15.7,2.18-20.5l25,9.68c.07,0,.07,0,.15.08l33.86,13.06v.08a356.15,356.15,0,0,1-1.51,45.27c-.52,5.93-1.27,12.08-2.25,18.39a365,365,0,0,1-11.93,52.55A1101.43,1101.43,0,0,0,1249.45,1294a1106,1106,0,0,0,183.63-19.59,495.36,495.36,0,0,0-4.73-62.76c-.45-3.38-1-6.69-1.5-9.92a501.83,501.83,0,0,0-13.22-58.4q30-19.93,59.76-39.87c.3,4,.68,7.89,1,11.64.38,3.45.75,6.76,1.13,10.06.38,3.5.91,7.14,1.42,10.76.44,3.11.9,6.17,1.36,9.14.52,3.22,1.05,6.3,1.57,9.3s1,5.94,1.65,8.79c1.13,5.78,2.26,11.11,3.38,16.21,1.28,5.48,2.48,10.59,3.68,15.32,9.39,36.18,14.34,54.65,29.35,71.09,16.37,18,37.32,26.28,54.43,30.18a146.08,146.08,0,0,0,22.3,3.38h.08c.22.38.45.68.6,1l3.82,5.85c1.36,2,2.56,4,3.83,6.08a374.28,374.28,0,0,1,45.8,114.57c.75,3.6,1.42,7.2,2.1,10.88.38,2.48.83,5,1.2,7.43l.9,6.09c1.58,11.86,2.48,23,2.85,33.18v.3C1656.2,1494.23,1657.7,1551.51,1637.73,1611.5Z"/><g class="cls-15"><path class="cls-16" d="M1573.54,1271c45.21,51,74.12,116.4,81,184.26q.71,7.26,1.09,14.55t.43,14.56c-1.33-18.86-3.14-38.81-7.29-57.68a351.15,351.15,0,0,0-16.55-55.71c-13.78-36.21-34.65-70.12-58.63-100Z"/></g><path class="cls-18" d="M1352.1,1510.25l16.69-2-12.25,1.19c8.4-35.23,56.78-119.41,69.66-153.85-3.76-4.18-17-13.45-22.27-17.39-5.93,8.52-25.61,75.55-28,83.88C1367.56,1451.09,1359.43,1480.19,1352.1,1510.25Z"/><path class="cls-18" d="M1173,1482.07c49.63,11.14,104.41,31.74,157.85,29.07,11.33-67.54,45.94-151.86,63.13-214.2-18.1-17.71-32.38-5.63-45.37-53.32-33.63-6.49-80.59-17.61-114.78-17.33-4.46,2.08-2.77,12.51-23.62,24.87-12.29,7.29-20.76,7.26-34.71,11.84Z"/><path class="cls-19" d="M1152.57,1477.88l20.41,4.19,2.5-219.07c14-4.58,22.42-4.55,34.71-11.84,20.85-12.36,19.16-22.79,23.62-24.87,34.19-.28,81.15,10.84,114.78,17.33,13,47.69,27.27,35.61,45.37,53.32-17.19,62.34-51.8,146.66-63.13,214.2l21.27-.89c7.33-30.06,15.46-59.16,23.82-88.14,2.4-8.33,22.08-75.36,28-83.88,5.27,3.94,18.51,13.21,22.27,17.39-12.88,34.44-61.26,118.62-69.66,153.85l12.25-1.19,10.57-.5,12-27.9c15.34-41.4,77.58-154,82-171.88l-51.14-23.34,12.84-41.45c-27-18.17-240.35-53.09-278.14-43.71C1153.26,1292.46,1155.07,1385.25,1152.57,1477.88Z"/><circle class="cls-6" cx="1261.44" cy="1432.12" r="86.38"/><path class="cls-20" d="M1203.05,1695.13a14,14,0,0,1-5.1,8c-4.36,2.93-6.69,2-10.66,5-5.41,4.21-4.06,9.91-6.84,13.52-3.75,4.72-12.91,3.22-24.85-.08a52.57,52.57,0,0,1-4.42,4c-4.28-1.2-8.86-2.55-13.59-4-3.38-1-6.83-1.88-10.36-2.78-12.47-3.15-31.61-4.58-70-7.51-16.44-1.27-26.8-1.65-47.59-2.4-14.72-.52-25.83-.75-34.46-.07a61.3,61.3,0,0,0-11.64,1.8,11.89,11.89,0,0,1-1.65.37c-.83-1.57-1.73-3.07-2.63-4.72-4.73,1-9.46,1.57-14,3.15-2.85,1-5,1.87-7.73,1.2-4.13-1.13-7.58-5.4-8.63-9.91a3.43,3.43,0,0,0-.08-.38c.38-2.25,1-4,.15-6.15.45-2.18.83-4-.37-6.23-1.65-3-4.28-2.33-6.61-5.11a8.83,8.83,0,0,1-1.95-4.58v-.07a23.67,23.67,0,0,1,1.12-4.81c4.73-12.83,33.94-14.11,44.6-14.49,60.58-2.1,104.8,1,104.8,1s64.41,4.66,119.29,24.78C1194,1686.12,1201.62,1689.27,1203.05,1695.13Z"/><path class="cls-2" d="M1203.05,1695.13a14,14,0,0,1-5.1,8c-4.36,2.93-6.69,2-10.66,5-5.41,4.21-4.06,9.91-6.84,13.52-3.75,4.72-12.91,3.22-24.85-.08-.82-.22-1.72-.45-2.62-.75-7.81-2.18-16.59-5-25.75-7.28-12.47-3.15-31.61-4.58-70-7.51-16.44-1.28-26.8-1.65-47.59-2.4-22.23-.83-36.11-.9-46.1,1.72-.82.23-1.58.38-2.4.53a17.88,17.88,0,0,1-1.88.38c-4.73,1-9.46,1.57-14,3.15-2.85,1-5,1.87-7.73,1.2-4.13-1.13-7.58-5.4-8.63-9.91a3.43,3.43,0,0,0-.08-.38,13.9,13.9,0,0,1,.15-6.15c.45-2.18.83-4-.37-6.23-1.65-3-4.28-2.33-6.61-5.11a8.83,8.83,0,0,1-1.95-4.58v-.07c-.75-4.73,1-9.76,1.12-10.06,4.73-12.84,33.94-14.12,44.6-14.49,60.58-2.1,104.8,1,104.8,1s64.41,4.65,119.29,24.77c4.28,1.58,12.24,4.81,13.44,11A11.55,11.55,0,0,1,1203.05,1695.13Z"/><path class="cls-20" d="M1339,1692.47a13.92,13.92,0,0,0,4.72,8.19c4.21,3.14,6.58,2.27,10.41,5.46,5.05,4.22,2.79,9.83,6.17,13.83,2.69,3.18,9,5.5,25.39,1,.56.71,1.16,1.43,1.79,2.16s1.26,1.43,1.88,2.1c4.33-1,9-2.12,13.76-3.32,3.42-.81,6.92-1.55,10.48-2.28,12.6-2.55,31.79-3.05,70.33-4.12,16.48-.49,26.85-.36,47.65-.11,14.73.18,25.84.49,34.43,1.58a61.84,61.84,0,0,1,11.53,2.36,12.14,12.14,0,0,0,1.64.46c.9-1.54,1.87-3,2.85-4.6,4.67,1.2,9.37,2,13.87,3.82,2.8,1.12,4.93,2.12,7.66,1.57,4.18-.92,7.84-5,9.1-9.47a2.84,2.84,0,0,1,.1-.38c-.27-2.27-.78-4.09.14-6.15-.34-2.2-.63-4,.68-6.21,1.79-2.92,4.38-2.12,6.84-4.78a8.88,8.88,0,0,0,2.17-4.48v-.08a22.51,22.51,0,0,0-.9-4.85c-4.1-13-33.21-15.73-43.84-16.62-60.41-5-104.73-4-104.73-4s-64.57,1.54-120.35,19C1348.48,1683.91,1340.68,1686.69,1339,1692.47Z"/><path class="cls-2" d="M1339.1,1692.82a14,14,0,0,0,4.72,8.19c4.21,3.14,6.58,2.27,10.41,5.47,5.2,4.45,3.57,10.09,6.17,13.82,3.52,4.91,12.75,3.85,24.83,1.12.83-.18,1.74-.36,2.66-.62,7.9-1.8,16.81-4.22,26.07-6,12.6-2.55,31.79-3,70.32-4.13,16.49-.48,26.85-.36,47.66-.11,22.24.25,36.11.84,46,4,.81.26,1.56.45,2.37.64a15.77,15.77,0,0,0,1.86.46c4.68,1.2,9.37,2,13.87,3.83,2.8,1.11,4.93,2.11,7.67,1.57,4.17-.93,7.83-5,9.1-9.48a2.5,2.5,0,0,1,.09-.37,13.79,13.79,0,0,0,.15-6.16c-.35-2.2-.64-4,.67-6.21,1.79-2.92,4.39-2.11,6.85-4.78a8.92,8.92,0,0,0,2.17-4.48v-.07c1-4.69-.58-9.8-.64-10.11-4.11-13-33.22-15.73-43.85-16.61-60.41-5-104.73-4-104.73-4s-64.56,1.55-120.34,19c-4.35,1.37-12.46,4.21-14,10.3A11.58,11.58,0,0,0,1339.1,1692.82Z"/><path class="cls-21" d="M1097,1303.48c-7.25,5-13.08,10.54-17,16.9-7.94,12.93-12.25,26.81-9.91,42.27,7.09,46.89,58.94,67.08,94.51,42.38,46.78-32.49,29.24-98.74-19.48-110C1131.6,1291.9,1112.66,1292.69,1097,1303.48Z"/><path class="cls-22" d="M1103.86,1305.19c-10,5.76-18.1,13.67-23,23.29l-4,9.24c-.24,1-.19,1.42-.38,2.38a17.92,17.92,0,0,1-.69,2.23c-3.22,11.22-.44,28.58,5.9,39.29,4.26,7.2,8.68,12.74,14.84,17.49a52.93,52.93,0,0,0,27.36,11.07,63.67,63.67,0,0,0,10.6.22c19-.89,37.79-13.42,46.09-30.26,3.72-7.53,2.59-5.49,4.34-11.64,3.71-13,2-29.59-4.91-41.4-6.35-10.84-13-17-23.34-22.59a44.19,44.19,0,0,0-9.37-3.69,27.78,27.78,0,0,0-4.5-1.32C1129.55,1297,1116.35,1298,1103.86,1305.19Z"/><path class="cls-23" d="M1125.39,1406.93c43,6.36,79.85-70.93,34.36-95C1207.2,1329.46,1185.61,1415.09,1125.39,1406.93Z"/><path class="cls-24" d="M1106.45,1308.5a48.47,48.47,0,0,1,43,.63,47.45,47.45,0,0,0-26.65,4.35c-24.6,11.93-34.34,42.65-21.75,68.63a53.9,53.9,0,0,0,24.32,24.82,52.92,52.92,0,0,1-40.69-29.81C1072.11,1351.14,1081.85,1320.42,1106.45,1308.5Z"/><path class="cls-21" d="M1148.49,1349c-7.26,5-13.08,10.53-17,16.9-7.93,12.92-12.25,26.81-9.91,42.27,7.09,46.88,59,67.08,94.51,42.38,46.78-32.49,29.25-98.74-19.47-110C1183.12,1337.45,1164.17,1338.24,1148.49,1349Z"/><path class="cls-22" d="M1155.37,1350.74c-10,5.77-18.1,13.67-23,23.3l-4,9.24c-.23,1-.19,1.42-.38,2.37a15.92,15.92,0,0,1-.68,2.23c-3.23,11.23-.44,28.58,5.9,39.29,4.25,7.2,8.67,12.75,14.83,17.49a53,53,0,0,0,27.37,11.07,61.44,61.44,0,0,0,10.59.22c19-.88,37.79-13.42,46.1-30.26,3.71-7.53,2.59-5.48,4.34-11.63,3.71-13,2-29.6-4.92-41.41-6.34-10.84-13-17-23.34-22.58a44,44,0,0,0-9.37-3.7,29,29,0,0,0-4.49-1.32C1181.06,1342.56,1167.87,1343.54,1155.37,1350.74Z"/><path class="cls-23" d="M1176.91,1452.48c43,6.36,79.84-70.92,34.36-95C1258.71,1375,1237.12,1460.65,1176.91,1452.48Z"/><path class="cls-24" d="M1158,1354.05a48.43,48.43,0,0,1,43,.64,47.26,47.26,0,0,0-26.65,4.35c-24.61,11.92-34.35,42.65-21.76,68.63a53.89,53.89,0,0,0,24.33,24.81c-16.76-2.09-32.48-12.84-40.7-29.8C1123.62,1396.7,1133.36,1366,1158,1354.05Z"/><path class="cls-2" d="M1053.28,1373.6q61.83,4.07,127.94,5.33a2669,2669,0,0,0,289.65-10.66q1.79,48,3.56,96c-25.31,41.73-54.89,64.71-72.86,76.41-83.69,54.52-196.19,47.49-273.66-1.77a241.41,241.41,0,0,1-60.41-55.09Z"/><path class="cls-1" d="M1334.81,768.65c-37.32-28.38-87.62-46.25-143.4-47.67a1.72,1.72,0,0,0-1.05-.08c-2.17-.15-4.43-.15-6.68-.15-114.94,0-209,69.89-215.83,158.11a23.25,23.25,0,0,0-.23,3.22v.15c-.15,2.33-.22,4.73-.22,7.06a128.91,128.91,0,0,0,2.1,23.57h428.67a136.37,136.37,0,0,0,2.1-23.57C1400.27,842,1375.2,799.2,1334.81,768.65Zm327-49.18c-16.75-11.33-30.78-35.36-36.87-45.57-1.42-2.4-3.22-5.55-5.18-9.53a35.15,35.15,0,0,1-2-4.13,163.43,163.43,0,0,1-7.89-20.49c-.6-1.81-1.2-3.83-1.8-5.79s-1-4.12-1.65-6.23-1.05-4.43-1.5-6.6c-.45-2.41-1-4.73-1.43-7.13s-.82-4.89-1.27-7.51c-.83-5-1.43-10.51-1.88-16.14v-.23c-.22-2.4-.52-4.8-.52-7.28a42.16,42.16,0,0,1-.31-5.33c-.15-3.53-.22-7.21-.22-11v-1.5c0-4.36.07-8.49.3-12.31a44,44,0,0,1,.37-5.49c.23-2.47.46-5,.68-7.35a237.7,237.7,0,0,1,5.56-28.53v-.07c-2.11-3.91-4.21-7.66-6.38-11.34A476.56,476.56,0,0,0,1573,458.37c-5-6.91-9.31-12.39-12.38-16.22-9.24-11.49-18.62-22.15-28.31-32.2-2.47-2.56-5-5.19-7.5-7.66-7.66-7.66-15.54-14.87-23.58-21.55-4.35-3.68-8.71-7.28-13.06-10.73C1355.75,265.73,1199.6,265.65,1173.47,266c-49.85.76-182,10.36-299.09,106.46-8.48,6.83-16.67,14.11-24.93,21.85a445.74,445.74,0,0,0-32.88,34.23,456,456,0,0,0-49.25,67.86,429.24,429.24,0,0,0-43.76,101c-3.53,12.24-6.54,25.08-9,38.44-.75,4.13-1.43,8.48-2.18,12.84a404.73,404.73,0,0,0-4,84.91c9.46,169.59,121.7,287.08,141.06,306.6a456,456,0,0,0,58.86,50.52,493.9,493.9,0,0,0,49.55,31.53q16.21,9,32.36,16.22c8.26,3.83,16.44,7.28,24.55,10.51l.07.08h.08c11.71,4.65,23.19,8.7,34.31,12.23v.08c70.19,22.22,128,24.32,148.27,24.62,12,.75,27.4,1.2,45.27.6a.11.11,0,0,1,.15,0c45.49-1.8,107.2-11.18,170.71-43.24,7.13-3.53,14.19-7.43,21.32-11.56a.79.79,0,0,1,.3-.15,5.56,5.56,0,0,1,.83-.53c1.43-.9,4.2-2.63,8.18-5.4,1-.6,2-1.35,3.23-2.26,1.13-.75,2.33-1.57,3.6-2.55h.08c6.08-4.43,13.59-10.21,22.22-17.42,4.36-3.67,9-7.73,13.81-12.08,4.43-4,8.94-8.26,13.67-12.92l.22-.22A552,552,0,0,0,1573.91,990a579.7,579.7,0,0,0,45.65-81.75c24.92-54.51,37.84-121.32,39-131.08.45-4,1-8,1.43-11.94.82-9.08,1.43-17.86,1.65-26.72C1661.83,732.09,1662,725.7,1661.83,719.47Zm-157.66,271.7a207.92,207.92,0,0,1-8,22.44.63.63,0,0,1-.15.38,199.67,199.67,0,0,1-11.49,22.59c-.6,1-1.5,2.48-2.85,4.51a184.71,184.71,0,0,1-11.86,17.19l-.08.08c-.07.07-.15.22-.22.3a219.77,219.77,0,0,1-39.94,39.64,60.58,60.58,0,0,1-5.11,3.82c-3.68,2.71-7.58,5.33-11.63,8s-8.34,5-12.69,7.43c-19.22,10.21-39.56,17-59.68,18.92a110.37,110.37,0,0,1-15.69.68c-3.91-.08-8-.38-11.87-.83h-.07a241.31,241.31,0,0,1-36.11-6.91,223,223,0,0,1-59.76-26.5c-3.38-2.1-6.53-4.27-9.31-6.15a15.44,15.44,0,0,0-1.35-1,286.54,286.54,0,0,0,43.62,1.2c27.25-1.43,60.28-7.43,93.61-24.25h.08c3.23-1.58,6.61-3.3,9.83-5.18.15-.08.23-.15.38-.23a.07.07,0,0,0,.07-.07c67.19-38.36,111.41-111,123.42-195.79.08-.45.16-.83.23-1.28,0-.15.08-.22.08-.38a341.67,341.67,0,0,0,3-38.43v-.08a354.08,354.08,0,0,0-1.8-43.46c.75,1.35,1.57,2.85,2.32,4.35,1.51,2.93,3.16,6.08,4.73,9.46a23.23,23.23,0,0,1,1.35,2.93c1.81,3.67,3.53,7.58,5.11,11.71,1.35,3.08,2.55,6.23,3.75,9.53.75,2,1.43,4.06,2.11,6.16a275.12,275.12,0,0,1,10.43,41c.68,3.83,1.28,7.73,1.73,11.79.37,2.32.6,4.72.82,7.2.23,1.88.38,3.91.53,5.86.15,1.65.3,3.45.37,5.4,0,0,.08,0,0,.08a1.25,1.25,0,0,0,.08.53c.15,1.49.22,3.15.3,4.87.22,2.63.3,5.41.37,8.34a251,251,0,0,1-5,59.83C1506.8,981.48,1505.6,986.29,1504.17,991.17ZM929.56,600.63c3.9-38.06,22.14-81,37.91-80.4,8.41.37,14.41,12.54,15.32,14.64,5.1,10.58,2.47,21.32-3.31,41.36,0,.08-.07.3-.07.45-10.74,37.69-16.14,51.28-13,53.23,2.48,1.58,8.41-5.63,14.86-12.69C987.89,610.17,995,603,1000.13,605c7.43,2.77,7.8,24.85,1.8,48.42a141.66,141.66,0,0,1-7.36,22.15c-5.85,14-16.36,38.28-29.2,37.91-14.72-.38-30.26-32.66-35.21-71A189.64,189.64,0,0,1,929.56,600.63Zm482.8-24.32c0,.15-.08.22-.08.37-10.73,37.69-16.14,51.28-13.06,53.23,2.48,1.58,8.33-5.48,14.79-12.61l.15-.08c6.6-7.05,13.81-14.26,18.77-12.23,7.5,2.77,7.73,24.92,1.87,48.42a142.66,142.66,0,0,1-7.35,22.15c-6,14-16.45,38.28-29.28,37.91-14.79-.38-30.33-32.66-35.29-71a194.66,194.66,0,0,1-.6-41.82c3.91-38.06,22.3-81,38-80.4,8.26.37,14.34,12.54,15.31,14.64C1420.61,545.45,1418.14,556.19,1412.36,576.31Z"/><path class="cls-25" d="M998,673.47c-7.41,14.83-20.45,40.42-36.5,40-24.84-.58-51.6-62.66-44.73-118.95,4.8-40.07,27.71-85.23,47.34-84.66,10.42.35,18,13.21,19.21,15.41,6.31,11.35,3,22.58-4.26,44.12-13.44,39.73-20.17,54-16.19,56.06,6.18,3.24,29.5-30.35,42-26.29C1017.07,603.05,1013.92,642.09,998,673.47Z"/><path class="cls-25" d="M1439.56,673.47c-7.32,14.83-20,40.42-35.52,40-24.08-.58-50-62.66-43.37-118.95,4.79-40.07,27-85.23,46-84.66,10,.35,17.3,13.21,18.49,15.41,6.12,11.35,3.06,22.58-4,44.12-13,39.73-19.56,54-15.83,56.06,6.12,3.24,28.74-30.35,40.71-26.29S1455,642.09,1439.56,673.47Z"/><path class="cls-26" d="M1342.07,1135.86a172.76,172.76,0,0,1-17.33,1.23c-60.38,1.34-103.87-29.85-118.52-41.48,29.63-.11,84.42-4.58,139.09-37.23-1.56,10.73-2.79,22.47-3.46,35A382.44,382.44,0,0,0,1342.07,1135.86Z"/><path class="cls-2" d="M1468.64,1036.57c-5.48,10.07-48.3,88.22-126.57,99.29H1342c-.11-1.79-.22-3.58-.22-5.48s-.23-3.8-.23-5.7c-.22-9.73-.22-20.24.34-31.31.11-3.13.33-6.26.56-9.28.78-9,1.79-17.66,2.9-25.71q4.53-2.66,8.84-5.48c39.48-25.8,102.54-85,126.52-230.29a373.8,373.8,0,0,1,12.12,75.09C1494.85,933.4,1497.23,984.06,1468.64,1036.57Z"/><path class="cls-27" d="M1379.19,885.29a132.43,132.43,0,0,0-14-40.62c-36.26-69.21-131.23-126.8-218-113.73-58.79,8.78-128.38,52.17-148.05,117.56a117.72,117.72,0,0,0-5,25.45,129,129,0,0,0,2.4,38.89c6.76,32.43,23.8,57,32.28,68A233.9,233.9,0,0,0,1052,999.32c33.18,23.43,98.34,58,177.32,41.3,61.71-13.07,142.19-59.46,150.52-127.18,0-.22.08-.37.08-.6A99.93,99.93,0,0,0,1379.19,885.29Zm-266.66,64.79c-7.13.9-14.79-8.94-20.57-24.63a120.14,120.14,0,0,1-3.83-12.61,175.93,175.93,0,0,1-4.2-22.67c-4.13-34.46,2.18-63.59,13.89-64.94a8,8,0,0,1,2,0c11.18,1.58,22.82,27.4,26.65,59.91a160.62,160.62,0,0,1,1,27.7C1126.57,934,1120.94,949.1,1112.53,950.08ZM1276,935.81c-3.08.38-6.3-1.2-9.38-4.43-3.83-4-7.51-10.36-10.66-18.54a158.88,158.88,0,0,1-8.64-37c-2.32-19.52-1.27-37.31,2.18-49.32,2.63-9.24,6.68-15,11.79-15.62,11.71-1.35,24.47,25.45,28.52,60,1.88,15.84,1.58,30.56-.45,42C1287.08,926.2,1282.35,935.06,1276,935.81Z"/><path class="cls-28" d="M1173.51,708.06c-113.79,0-206.12,71.81-206.12,160.48,0,72.75,62.18,134.2,147.39,153.88h.11a260.06,260.06,0,0,0,58.62,6.59c113.89,0,206.22-71.81,206.22-160.47S1287.4,708.06,1173.51,708.06Zm-88.35,215.85c-12.77,0-23.14-26.9-23.14-60.08s10.37-60.09,23.14-60.09,23.13,26.9,23.13,60.09S1097.93,923.91,1085.16,923.91Zm177.12,4.71c-12.77,0-23.14-26.9-23.14-60.08s10.37-60.09,23.14-60.09,23,26.9,23,60.09S1275.05,928.62,1262.28,928.62Z"/><path class="cls-2" d="M1379.19,864c-6.83-75.9-86.93-136.71-187.76-143.09a1.65,1.65,0,0,0-1-.07c-5.55-.45-11.18-.6-16.89-.6-113.74,0-206.08,69.06-206.08,154.35q0,3.71.23,7.43v.15a116.92,116.92,0,0,0,3.68,22.3,74.14,74.14,0,0,0,2.48,8.33c11.93,35.29,40.08,65.69,78.15,86.48a238.77,238.77,0,0,0,62.83,23.35h.15a269.23,269.23,0,0,0,58.56,6.31c96.25,0,177.17-49.32,199.92-116.14a117.46,117.46,0,0,0,5.78-27.55,99.21,99.21,0,0,0,.53-10.66A97.91,97.91,0,0,0,1379.19,864Zm-294,63.89c-6.08,0-11.56-5.71-15.61-15.09-4.66-10.59-7.58-25.83-7.58-42.72,0-31.9,10.36-57.8,23.19-57.8,5.48,0,10.59,4.8,14.57,12.91,5.18,10.58,8.56,26.8,8.56,44.89,0,16.89-2.93,32.13-7.59,42.72-2.47,5.71-5.48,10.06-8.78,12.61A11.53,11.53,0,0,1,1085.2,927.93Zm177.1,4.5c-6.9,0-13.13-7.58-17.34-19.59-3.6-10.13-5.78-23.57-5.78-38.21,0-20.12,4.13-37.84,10.36-48.12,3.6-6.16,8-9.69,12.76-9.69,12.77,0,23,25.9,23,57.81,0,14.64-2.18,28.08-5.78,38.21-3.23,9.38-7.81,16.14-12.91,18.54A10,10,0,0,1,1262.3,932.43Z"/><path class="cls-29" d="M1109.44,873.35c0,34.84-10.88,63.08-24.28,63.08s-24.29-28.24-24.29-63.08,10.88-63.07,24.29-63.07S1109.44,838.52,1109.44,873.35Z"/><path class="cls-30" d="M1108.29,873.94c0,27.6-8.62,50-19.24,50s-19.24-22.37-19.24-50,8.62-50,19.24-50S1108.29,846.33,1108.29,873.94Z"/><path class="cls-29" d="M1286.46,874.63c0,34.83-10.77,63.07-24.18,63.07S1238,909.46,1238,874.63s10.87-63.08,24.28-63.08S1286.46,839.79,1286.46,874.63Z"/><path class="cls-30" d="M1285.31,880.41c0,26.63-8.23,48.21-18.48,48.21s-18.57-21.58-18.57-48.21,8.32-48.22,18.57-48.22S1285.31,853.78,1285.31,880.41Z"/><path class="cls-31" d="M1819.49,565.23a34.16,34.16,0,0,1-5.06,14c-7,11.78-21.68,23.8-48.67,48.31-9.77,8.84-17.55,15.9-23.8,21.56l-.11.12c-8.84,8.13-14.38,13.55-18.15,17.67-23.92,26-33.34,46.07-41.59,58.21a.46.46,0,0,1-.35.11c-6.84.95-13.55-1.53-19.92-5.77.12,6.24,0,12.61-.23,19-5.54-.12-11.08-2.24-16.38-5.65-13.2-8.49-24.62-24.75-31.81-35.82-1.77-2.71-3.18-5.07-4.36-7-7.31-12-25.1-44.19-25.22-100.74-.11-21.8,2.48-34.64,6.84-51.73v-.12c.35-1.29.71-2.59,1.06-4,2.36-9.19,5.06-19.68,8.13-33.47,1.65-7.06,3.3-15.08,5-24.27,12.25-63.86,22.27-116.88,6.36-124.89-7-3.42-24.74-1.53-78.82,59.15-2.48-2.59-4.95-5.19-7.55-7.66-7.65-7.66-15.55-14.85-23.56-21.56a890.91,890.91,0,0,1,92-71.17c23.8-16.14,41.83-26.63,58.91-21.21,28.63,9.19,37.35,58.44,42.07,84.48a180.67,180.67,0,0,1,3.06,34.88c14.49,14.61,27.1,26.51,36.88,35.58,36.17,33.46,59.26,50.78,75.76,85.66C1816.78,543.43,1821.14,552.86,1819.49,565.23Z"/><path class="cls-1" d="M1839.4,540.84c-1.76,13.43-8.83,22.74-25,38.41-7.66,7.54-17.44,16.5-29.7,28-24.15,22.86-36.29,34.29-42.77,41.83l-.11.12c-39.83,45.12-40.3,73.28-59.74,75.88a.46.46,0,0,1-.35.11c-6.84.95-13.55-1.53-19.92-5.77-16.73-11.31-30.75-35.35-36.87-45.6-1.42-2.35-3.19-5.53-5.19-9.54-.71-1.3-1.3-2.71-2-4.12a173.7,173.7,0,0,1-7.9-20.51c-.59-1.76-1.17-3.77-1.76-5.77s-1.06-4.12-1.65-6.24-1.06-4.36-1.54-6.6l-1.41-7.07c-.47-2.48-.82-5-1.29-7.54-.83-5.07-1.42-10.49-1.89-16.15v-.23a72.38,72.38,0,0,1-.47-7.3,39.48,39.48,0,0,1-.36-5.31c-.11-3.53-.23-7.18-.23-11V565c0-4.36.12-8.48.35-12.25a41.7,41.7,0,0,1,.36-5.54c.23-2.47.47-5,.7-7.3a235.09,235.09,0,0,1,5.54-28.52v-.11c3.77-15.67,8.72-34.53,14.38-65.75,12.48-68.1,22.74-124.42,6.59-133-8-4.13-29.81-.95-102.39,89.78-7.65-7.66-15.55-14.85-23.56-21.56-4.36-3.65-8.72-7.31-13.08-10.73,46.9-46.3,88.84-79.05,120.77-101.44,24.15-17.09,42.65-28.4,60-22.51,29.22,9.78,38.18,62.22,42.89,90a205,205,0,0,1,3.18,37c14.73,15.67,27.57,28.39,37.59,38.06,36.76,35.58,60.32,54.08,77.17,91.19C1836.69,517.63,1841.05,527.64,1839.4,540.84Z"/><path class="cls-32" d="M723.61,597.4c-3.53,12.25-6.6,25.09-9.07,38.41a136.83,136.83,0,0,1-15.44-12.14c-.94-.71-1.76-1.53-2.71-2.36a188.05,188.05,0,0,1-18-18.49c.23-1,.47-2,.7-3s.36-1.77.59-2.71c.36-1.53.59-2.71.59-2.71,3.07-14.37,5.54-28.75,7.78-42.54,6.24,7.31,12.61,15.09,19,23.22.23.35.47.58.71.94C713.36,583.26,718.55,590.44,723.61,597.4Z"/><path class="cls-14" d="M816.58,428.44c-2.83,3.29-5.78,6.71-8.72,10.37a455.4,455.4,0,0,0-40.54,57.49,429,429,0,0,0-43.71,101.1c-5.06-7-10.25-14.14-15.9-21.33-.24-.36-.48-.59-.71-.94-6.36-8.13-12.73-15.91-19-23.22a1121.42,1121.42,0,0,0,12.61-123.59c1.41-45.48-.71-83.54,15-89,2.83-.94,5.89-.82,10,1.06a15.09,15.09,0,0,1,1.89.94,73.57,73.57,0,0,1,10.13,7.07c6.37,5.07,14.49,12.49,25.22,23l.59.59,5.18,5.18c2,1.89,4,4,6.13,6.13C787.12,395.92,801.26,411,816.58,428.44Z"/><path class="cls-32" d="M727.5,341.36a73.57,73.57,0,0,1,10.13,7.07c-4.24,16.85-8.6,51-12.37,116.06-5.07,36.52-11.07,73.64-17.55,111.58-.24-.36-.48-.59-.71-.94-6.36-8.13-12.73-15.91-19-23.22a1121.42,1121.42,0,0,0,12.61-123.59c1.41-45.48-.71-83.54,15-89,2.83-.94,5.89-.82,10,1.06A15.09,15.09,0,0,1,727.5,341.36Z"/><path class="cls-33" d="M874.43,372.35c-3.18,2.59-6.37,5.19-9.43,8-5.18,4.36-10.37,9.08-15.55,13.91-4,3.77-9.43,9-15.79,15.55-5.07,5.3-10.84,11.43-17.08,18.62-15.32-17.44-29.46-32.52-41.83-45.13-2.12-2.12-4.13-4.24-6.13-6.13L763.44,372l-.59-.59c-10.73-10.49-18.85-17.91-25.22-23a73.57,73.57,0,0,0-10.13-7.07c-.71-.35-1.3-.7-1.89-.94-4.12-1.88-7.18-2-10-1.06-15.67,5.42-13.55,43.48-15,89A1121.42,1121.42,0,0,1,688,551.91c-2.24,13.79-4.71,28.17-7.78,42.54,0,0-.23,1.18-.59,2.71-.23.94-.35,1.88-.59,2.71s-.47,2-.7,3c-6.25,27.1-54.55,144.92-83,154.58a9.18,9.18,0,0,1-4.95.47c-.35,0-.71-.12-1.06-.12-7.54-2-4-12.37-16.38-47.48-5.3-15-12.72-31-21.09-47-.47-.94-1.06-2-1.65-3.06-6.6-12.85-13.66-25.69-20.5-38.06l-.12-.12c-1.29-2.47-2.59-4.83-3.88-7.19-16.5-30.4-20.27-36.05-19.21-47.13,1.41-15.67,10.84-23.21,41.83-59,21.09-24.15,31.46-36.4,39.59-48.19,11-15.9,24.74-40.76,33.34-77.17,2.12-36.53,3.3-55,10.6-69.75,1.07-1.77,24-46.19,66.58-51.49,22.5-2.71,41.12,6.48,66.45,22.5C793.72,302.84,832.36,330.76,874.43,372.35Z"/><path class="cls-1" d="M881.5,366.7c-5.07,4.94-10.14,9.78-15.2,14.72l-31.11,30.05a19.18,19.18,0,0,0-1.53-1.65,350.09,350.09,0,0,0-34.29-35.47c-37.82-34.16-72.1-65.15-92.61-56.79-26.15,10.72-8,76.83-30.75,217.15-2.83,17.32-5.65,31.93-7.89,42.66,0,0-.83,4.24-1.77,8.36C662,604,624.41,742.32,595.18,756.58a10.19,10.19,0,0,1-4.71,1.29c-.35,0-.71-.12-1.06-.12-8.6-.94-6.48-14-28.4-64.56-23.8-54.91-38.88-80.12-47.24-95.44-16.5-30.52-20.27-36.06-19.21-47.25,1.42-15.55,10.72-23.09,41.71-58.91,21.09-24.27,31.58-36.41,39.71-48.31,10.84-15.79,24.74-40.65,33.34-77.17.5-8.41,1.23-19.71,2.37-34.69.91-12,1.85-22.93,8.24-35.07l.23-.44c2.67-5,25.47-46,66.22-50.93,22.15-2.82,40.89,6.25,66.57,22.51C786.06,288.46,831.07,320.27,881.5,366.7Z"/><path class="cls-5" d="M724.18,450.76c5.39,4.72,10.77,9.67,16.16,15.05a332,332,0,0,1,27,30.44"/><path class="cls-34" d="M1715,373.07c.11,12-.22,23,2.19,40.22a253.1,253.1,0,0,0,30,87.91Z"/><g class="cls-35"><path class="cls-2" d="M610,366.13a337.6,337.6,0,0,1-9.15,79.66,195.87,195.87,0,0,1-35.25,71.63l-.08-.06c4-5.38,7.7-11,11.14-16.69A204.8,204.8,0,0,0,604,426a402.72,402.72,0,0,0,6-59.83Z"/></g></svg>