<svg id="Layer_1" data-name="Layer 1" xmlns="http://www.w3.org/2000/svg" viewBox="0 0 345 226"><defs><style>.cls-1{fill:#fff;}.cls-2,.cls-3,.cls-4,.cls-5,.cls-6,.cls-7,.cls-8,.cls-9{fill:none;stroke-miterlimit:10;}.cls-2{stroke:#ec892b;}.cls-2,.cls-3,.cls-4,.cls-6{stroke-width:3px;}.cls-3,.cls-8,.cls-9{stroke:#cadd6a;}.cls-4,.cls-5{stroke:#fcaddd;}.cls-6,.cls-7{stroke:#ae3276;}.cls-8{stroke-width:2px;}</style></defs><rect class="cls-1" width="345" height="226"/><polygon class="cls-2" points="130.63 166.47 138.14 173.44 148.14 171.21 143.83 180.5 149.05 189.32 138.87 188.1 132.09 195.79 130.12 185.73 120.71 181.66 129.66 176.67 130.63 166.47"/><polygon class="cls-2" points="324.69 -1.38 329.61 9.2 341.13 11.15 332.58 19.1 334.29 30.65 324.08 24.98 313.62 30.18 315.86 18.72 307.69 10.38 319.28 8.97 324.69 -1.38"/><polygon class="cls-3" points="68.31 32.81 58.15 47.4 75.86 48.9 68.31 32.81"/><polygon class="cls-4" points="244.3 52.54 227.39 58.03 240.6 69.92 244.3 52.54"/><polygon class="cls-4" points="212.86 0.17 195.46 -3.44 201.03 13.44 212.86 0.17"/><polygon class="cls-5" points="13.89 -2.64 8.85 6.1 18.93 6.1 13.89 -2.64"/><polygon class="cls-6" points="317.86 58.56 300.08 58.56 308.97 73.95 317.86 58.56"/><polygon class="cls-6" points="279.18 0 261.41 0 270.3 15.39 279.18 0"/><polygon class="cls-7" points="22.3 131.58 10 131.58 16.15 142.24 22.3 131.58"/><polygon class="cls-3" points="270.39 182 260.14 188.81 271.17 194.28 270.39 182"/><polygon class="cls-8" points="319.9 108.69 319.23 120.22 329.56 115.04 319.9 108.69"/><polygon class="cls-3" points="7.45 207.3 1.76 221.17 17.32 218.58 7.45 207.3"/><polygon class="cls-2" points="116.38 0 98.61 0 107.49 15.39 116.38 0"/><polygon class="cls-7" points="15.93 38.99 8.45 42.22 14.98 47.08 15.93 38.99"/><path class="cls-3" d="M132.33,110.22a30.12,30.12,0,0,1-42.61,0,24.09,24.09,0,0,1,0-34.09,19.28,19.28,0,0,1,27.27,0A15.44,15.44,0,0,1,117,98a12.35,12.35,0,0,1-17.46,0,9.88,9.88,0,0,1,0-14,7.89,7.89,0,0,1,11.17,0,6.31,6.31,0,0,1,0,8.93,5,5,0,0,1-7.14,0,4,4,0,0,1,0-5.72"/><polygon class="cls-2" points="51.64 198.4 42.32 173.9 57.45 160.49 64.79 184.64 51.64 198.4"/><polygon class="cls-7" points="268.17 119.05 259.06 107.46 268.17 99.38 277.27 110.05 268.17 119.05"/><path class="cls-5" d="M171.43,165.54c1.72,2.15-.61,4,1.11,6.17s4.05.3,5.77,2.45-.61,4,1.11,6.18,4.05.3,5.77,2.46"/><path class="cls-5" d="M169.31,167c1.72,2.16-.61,4,1.11,6.17s4.05.3,5.77,2.46-.61,4,1.11,6.17,4,.3,5.77,2.46"/><path class="cls-5" d="M166.79,168.32c1.71,2.16-.62,4,1.1,6.17s4.05.3,5.77,2.46-.61,4,1.11,6.17,4,.3,5.77,2.46"/><path class="cls-9" d="M32.52,112.94c2.75-.16,3,3.64,5.72,3.48s2.54-4,5.29-4.12,3,3.64,5.73,3.48,2.54-4,5.3-4.12"/><path class="cls-9" d="M32.48,115.51c2.75-.16,3,3.64,5.72,3.48s2.53-4,5.29-4.12,3,3.64,5.73,3.48,2.54-4,5.29-4.12"/><path class="cls-9" d="M32.11,118.34c2.76-.16,3,3.64,5.73,3.48s2.53-4,5.28-4.12,3,3.64,5.74,3.48,2.53-4,5.29-4.12"/><path class="cls-5" d="M179.2,6.87c.39,4.61-5.95,5.15-5.56,9.75s6.73,4.06,7.12,8.66-5.95,5.14-5.56,9.75,6.73,4.06,7.12,8.67"/><path class="cls-5" d="M174.9,6.92c.39,4.6-6,5.14-5.56,9.74s6.73,4.06,7.12,8.66-6,5.14-5.56,9.75,6.73,4.06,7.13,8.67"/><path class="cls-5" d="M170.14,6.43c.39,4.61-5.95,5.14-5.56,9.75s6.73,4.06,7.12,8.66-5.95,5.14-5.56,9.75,6.73,4.06,7.13,8.67"/><path class="cls-5" d="M33.46,50c3.06,4.09-1.48,7.49,1.59,11.58s7.6.71,10.66,4.8-1.47,7.49,1.59,11.59,7.6.7,10.67,4.8"/><path class="cls-5" d="M29.5,52.56c3.06,4.1-1.47,7.49,1.59,11.59s7.6.7,10.66,4.8-1.47,7.49,1.6,11.58S51,81.24,54,85.34"/><path class="cls-5" d="M24.81,55c3.06,4.1-1.47,7.49,1.59,11.59s7.6.7,10.66,4.79-1.47,7.49,1.6,11.59,7.6.71,10.66,4.81"/><path class="cls-5" d="M231.88,210.43c1.72,2.15-.62,4,1.1,6.17s4.05.3,5.77,2.45-.61,4,1.11,6.18,4.06.3,5.78,2.46"/><path class="cls-5" d="M229.76,211.87c1.71,2.16-.62,4,1.1,6.17s4,.3,5.77,2.46-.61,4,1.11,6.17,4,.3,5.77,2.46"/><path class="cls-5" d="M227.23,213.21c1.72,2.16-.61,4,1.11,6.17s4,.3,5.77,2.46-.61,4,1.11,6.17,4.05.3,5.77,2.46"/><path class="cls-8" d="M333.73,186.25c-.55,5.31-7.85,4.56-8.39,9.87s6.75,6,6.21,11.36-7.84,4.56-8.39,9.87,6.76,6.06,6.21,11.37"/><path class="cls-8" d="M328.84,185.37c-.55,5.31-7.85,4.56-8.39,9.87s6.76,6.06,6.21,11.36-7.84,4.57-8.39,9.88,6.76,6.06,6.22,11.37"/><path class="cls-8" d="M323.54,183.81c-.55,5.3-7.85,4.56-8.39,9.86s6.76,6.06,6.21,11.37-7.84,4.56-8.39,9.87,6.76,6.06,6.21,11.37"/><path class="cls-8" d="M111.44,207.84c-4,3.56-7.64-.54-11.62,3s-.31,7.66-4.29,11.21-7.64-.54-11.62,3-.31,7.66-4.29,11.22"/><path class="cls-8" d="M108.42,203.9c-4,3.56-7.64-.54-11.62,3s-.31,7.66-4.29,11.21-7.65-.54-11.62,3-.32,7.66-4.3,11.22"/><path class="cls-8" d="M105.56,199.17c-4,3.56-7.65-.54-11.62,3s-.31,7.66-4.29,11.21-7.65-.54-11.63,3-.31,7.66-4.29,11.22"/></svg>