<svg id="Layer_1" data-name="Layer 1" xmlns="http://www.w3.org/2000/svg" viewBox="0 0 1709.66 1423.49"><defs><style>.cls-1{fill:#e5cfe5;}.cls-2,.cls-24,.cls-31,.cls-7{fill:#9b5aa4;}.cls-3{fill:#f1b283;}.cls-4{fill:#d9afd2;}.cls-5{fill:#d9b5d5;}.cls-6{fill:#8b3f98;}.cls-7{opacity:0.5;}.cls-8{fill:#cda1ca;}.cls-9{fill:#8a5593;}.cls-10{fill:none;}.cls-11{fill:#a665aa;}.cls-12{opacity:0.23;}.cls-13{fill:#853293;}.cls-14{fill:#722a81;}.cls-15{fill:#f5efe1;}.cls-15,.cls-16,.cls-18,.cls-19,.cls-20,.cls-21{fill-rule:evenodd;}.cls-16,.cls-17{fill:#5e8a6d;}.cls-18{fill:#f7b84a;}.cls-19{fill:#fbce55;}.cls-20{fill:#f9c42f;}.cls-21{fill:#fbde94;}.cls-22{fill:#50225b;}.cls-23{fill:#543152;}.cls-24{opacity:0.27;}.cls-25{fill:#aa6eae;}.cls-26{fill:#663670;}.cls-27{fill:#773b85;}.cls-28,.cls-29{fill:#90569a;}.cls-28,.cls-31{opacity:0.56;}.cls-30{fill:#b57fb4;opacity:0.87;}.cls-32{opacity:0.51;}</style></defs><path class="cls-1" d="M1315.18,1177.31c-17.12-3.91-38.07-12.24-54.43-30.18-15-16.45-20-34.91-29.36-71.1-1.2-4.73-2.4-9.84-3.67-15.32a539.4,539.4,0,0,1-11.57-75.89,186.13,186.13,0,0,1,26.81,22.82,179.3,179.3,0,0,1,25.45,33.11c.07.15.15.22.22.37.15.3.38.6.53.9l.22.45c.9,1.5,1.73,3.08,2.7,5,.38.6.68,1.27,1.06,2,.9,1.8,1.95,3.75,3.15,6.15.07.15.15.23.22.38,1.5,3.08,3.08,6.23,4.58,9.38,3.61,7.59,7,15.4,10.29,23.65,1.2,3.08,2.4,6.23,3.53,9.46,1.27,3.53,2.55,7.13,3.75,10.74,1.13,3.45,2.25,6.9,3.3,10.51.08.15.08.37.15.52,1.43,4.81,2.78,9.76,4.06,14.72.6,2.18,1,4.28,1.57,6.46s1,4.35,1.51,6.53C1310.9,1155.68,1313.07,1165.74,1315.18,1177.31Z"/><path class="cls-2" d="M1217.27,931.3c-5.78,10.6-50.9,93-133.38,104.63-.12-1.89-.24-3.77-.35-5.78s-.24-4-.24-6c-.23-10.25-.23-21.32.35-33,.12-3.3.36-6.6.59-9.78.83-9.54,1.89-18.61,3.07-27.1,3.18-1.88,6.24-3.77,9.31-5.77,102.15-67.16,125.24-183.8,130.19-243.19A310.12,310.12,0,0,1,1242.72,785C1244.6,811.71,1248.73,871.68,1217.27,931.3Z"/><polygon class="cls-3" points="60.23 909.34 158.35 951.39 172.82 929.53 88.23 857.28 60.23 909.34"/><polygon class="cls-3" points="197.44 787.67 250.6 887.39 280.69 879.58 264.64 761.41 197.44 787.67"/><polygon class="cls-3" points="409.43 763.6 365.89 861.23 391.86 875.9 464.05 789.8 409.43 763.6"/><path class="cls-4" d="M1175.84,1155.76a1104.91,1104.91,0,0,1-183.63,19.59,1101.43,1101.43,0,0,1-215.91-16.44,363.69,363.69,0,0,0,11.93-52.55c1-6.31,1.73-12.46,2.26-18.39a622.11,622.11,0,0,0,149.77,26.42c90.54,4.66,168.76-11.33,229.35-31.3.52,3.23,1.05,6.53,1.5,9.91A493.64,493.64,0,0,1,1175.84,1155.76Z"/><path class="cls-5" d="M1240,1180a238.17,238.17,0,0,0-32.88-68.46c2.4-5.18,10.51-23.8,11-46.63a85.56,85.56,0,0,0-8.33-40.31,87.26,87.26,0,0,0-15.77-22.37h-.07c-.45-.53-.83-.9-1.28-1.35-12.09,8-24.1,15.84-36.18,23.8-16.22,2.47-33.11,4.65-50.75,6.38h-.23c-7.13.82-14.26,1.42-21.69,2h-.08c-5.86.45-11.79.91-17.79,1.2h-.08c-23.35,1.43-47.74,2.11-73,1.81h-1.28a1007.43,1007.43,0,0,1-221.17-27.33c-.67,1.13-1.42,2.25-2.17,3.38s-1.43,2.33-2.11,3.53c-1.42,2.32-2.85,4.73-4.2,7.13-1.2,2.18-2.48,4.43-3.68,6.76a7.56,7.56,0,0,0-.45.82h-.07q-2.26,4-4.51,8.33c-1.5,2.93-2.93,5.86-4.35,8.86s-2.86,6-4.28,9.09-2.85,6.15-4.13,9.38c-.53,1.2-1,2.48-1.5,3.68-.83,2-1.65,4-2.48,6.16q-1.92,4.72-3.6,9.68a9.43,9.43,0,0,0-.53,1.35c-.9,2.55-1.8,5.18-2.63,7.81-.6,1.58-1.05,3.15-1.5,4.73-.75,2.18-1.42,4.43-2.1,6.68-.38,1.28-.75,2.55-1,3.83-.9,3-1.73,6-2.48,9.08-.9,3.46-1.73,7-2.55,10.59-.08.3-.15.67-.23,1a2.32,2.32,0,0,0-.22,1c0,.08,0,.08-.08.15-.82,3.68-1.57,7.43-2.25,11.19s-1.35,7.43-1.95,11.18l-.45,3.16c-.08.67-.23,1.35-.3,2-.45,3-.83,6-1.2,9-.38,3.38-.83,7.36-1.35,11.71v.08c-.53,4.35-1,9.16-1.36,14.26-.6,6.91-1,14.42-1.27,22.38-.15,4-.23,8.18-.23,12.46,0,3.07,0,6.23.15,9.38,0,1.88.08,3.75.15,5.71s.15,3.9.3,5.93c.15,2.4.3,4.8.53,7.2.15,2.18.37,4.43.6,6.61.6,5.26,1.28,10.59,2.1,15.92.45,2.4.9,4.88,1.35,7.28.23,1.42.53,2.85.83,4.2.82,4,1.73,7.89,2.78,11.86.6,2.41,1.27,4.81,2.1,7.21a2.08,2.08,0,0,0,.15.68c.37,1.42.82,2.85,1.35,4.28.75,2.4,1.58,4.8,2.48,7.13,1.05,2.92,2.25,5.85,3.53,8.71,1.05,2.55,2.17,5.1,3.45,7.65s2.48,5.18,3.9,7.66,2.71,5,4.21,7.36l.55.89h491.1C1253.11,1300.64,1256.16,1235,1240,1180Zm-448.36-18.51-2.47-.4-5.53-.92-.64-.11-.63-.1-1-.18-.48-.08-4.55-.79a365,365,0,0,0,11.94-52.55c1-6.31,1.72-12.47,2.25-18.4,2.2.67,4.42,1.34,6.68,2l2.23.65q1.5.45,3,.87,3,.87,6.14,1.72l4.69,1.26,2.36.62,2.39.62,3.21.81,3.23.8,4.08,1q6.15,1.47,12.5,2.85l4.34.92,4.58.94,4.62.91,3.75.72,4,.74.27,0,.35.06,2.44.43q2.88.51,5.79,1l3.18.52c1.33.22,2.66.43,4,.63l5.26.79c2.47.35,5,.7,7.48,1l2.12.28c1.36.17,2.73.35,4.1.51l.73.09.63.08q4.86.59,9.81,1.09c1,.11,2,.21,3,.3l2.43.24,1.1.1,3,.28,1.84.15c.42,0,.85.08,1.28.11q2.44.21,4.92.39c.59,0,1.19.1,1.79.13,1.53.12,3.07.22,4.61.32l1.4.09h0l1.86.11,4.45.25,5,.23,3.44.14,3.43.12,3.92.11,3.89.09,2.38,0,2.63,0c2.09,0,4.17,0,6.24,0h.71c2,0,3.89,0,5.83,0l5.23-.07,5.19-.12h.4l5.18-.16c3.22-.11,6.41-.25,9.59-.41l4.41-.24,3.06-.19,3.45-.23,2.88-.2.54,0c1.62-.12,3.23-.24,4.84-.38l5.33-.46h0c2.25-.21,4.49-.42,6.71-.65q3.56-.36,7.07-.76c1.36-.15,2.72-.31,4.07-.48,2-.24,4-.48,5.95-.74s3.93-.52,5.89-.79c2.15-.3,4.28-.61,6.41-.93h0c3.18-.48,6.34-1,9.46-1.5,1-.17,2.09-.34,3.13-.53s2.08-.35,3.12-.54l3.09-.55,3.08-.56,3.87-.74,4.18-.82,4-.82.1,0,.15,0,4.64-1,1.12-.24,3.73-.82,3.18-.72,1.89-.43,4.38-1,4.26-1q2.51-.62,5-1.24l1.78-.46c1.51-.39,3-.78,4.51-1.18,1.85-.49,3.69-1,5.51-1.49s3.64-1,5.44-1.52l2.69-.77c2.68-.77,5.34-1.55,8-2.35l3-.9,4.19-1.31c2.78-.87,5.53-1.76,8.24-2.65.52,3.23,1.05,6.53,1.5,9.91.11.76.21,1.52.31,2.28a3.87,3.87,0,0,1,.06.46c.08.52.15,1,.21,1.55,0,.33.09.65.13,1,.09.69.18,1.37.26,2a4.53,4.53,0,0,1,.06.5c.06.46.12.92.17,1.37.1.72.18,1.45.26,2.16v0c.07.55.13,1.1.19,1.65.19,1.69.37,3.37.54,5,.1,1,.2,2,.29,2.92q.12,1.13.21,2.25c.09.94.17,1.87.25,2.8.1,1.2.2,2.39.29,3.57.07.92.15,1.85.21,2.76l.09,1.25c0,.38,0,.75.08,1.12l0,.37c0,.61.08,1.21.11,1.8.08,1.21.15,2.42.22,3.61v0l.09,1.7c0,.78.09,1.55.12,2.32,0,.57.06,1.14.08,1.71l0,.68c0,.79.07,1.58.1,2.37q.11,2.7.18,5.34c0,1.27.07,2.54.09,3.79l0,1.65c0,.89,0,1.79,0,2.67q-4,.78-8.13,1.53-3,.57-6.11,1.11l-3.09.55-3.11.54q-3.84.66-7.76,1.31l-4.88.8-3.21.51-3.24.51-3.25.5-6.57,1-5,.71-2.26.32-.25,0-1.55.22-.81.11-.16,0-1.3.18-2.25.3-1.79.23-5.39.7-5.31.66-1,.12-2.35.29-2.43.28-1.19.14-2.32.26-3.71.41-3.67.4-3.8.4-2.21.22h0c-3.38.34-6.79.66-10.23,1l-.78.07-2,.18-3.78.33-3.38.28-.5,0-2.91.24-.47,0-.88.07-1,.07-.21,0-2.32.17-3.94.29-4,.27-4.42.29-1.56.1-4.68.28-6.28.34-5.34.26c-.63,0-1.27.06-1.9.09-1.38.07-2.76.13-4.15.18l-2.2.09c-1.32.06-2.65.11-4,.15l-2,.07-1.5,0-4.52.14-6.52.17q-6.26.15-12.44.21-9.06.09-18,0h-1.92l-2.08,0h-2.25c-.77,0-1.53,0-2.3,0l-1.51,0-3.18,0-2.77,0-3.69-.08-1,0-1.36,0-.9,0h-.84l-.57,0-2.23-.06-.69,0-1.91-.06h0l-2.06-.07-.55,0c-1.69,0-3.36-.11-5-.18l-1.06,0-.55,0-.52,0-.76,0h0l-4.18-.18-1.79-.08-3.37-.16-5.11-.26q-3.11-.16-6.18-.36c-1.32-.07-2.64-.16-4-.24l-.85-.06-3.35-.22c-2.22-.15-4.43-.3-6.63-.47q-2-.14-4-.3l-2.39-.19-.54,0-3-.24-.21,0-6.08-.52-5.85-.53-.18,0-6-.58L856,1170l-3.28-.33-.15,0-3.76-.4c-2.6-.28-5.19-.57-7.75-.87l-1.08-.13-.37,0-2.5-.29-.35-.05-.66-.08-2.25-.27q-4-.48-8-1l-3.73-.49c-1.94-.25-3.87-.52-5.79-.79l-.84-.12h-.1l-.13,0h-.11l-.2,0-.19,0-.63-.09-.4-.06-1.11-.16-1-.14-1-.14-.45-.07-2.68-.39-2.48-.37-2.88-.43-5.25-.81-2.66-.42Z"/><path class="cls-1" d="M739.54,1354.84H618.88a579.24,579.24,0,0,1-1.21-134.52h0l-5.92-.68a447.15,447.15,0,0,1-141.52-41.51c-3-1.48-6-3-9-4.52l-.11-.06h0q3-58.79,3.9-121.24c.45-24.7.45-49.1.38-73.12l.07,0c26.3,7.73,75.88,20.55,131.08,25.28,11,1,23.65,1.65,37.54,1.88a576.1,576.1,0,0,0,66.51-2.78c10.44-1.13,21.4-2.48,32.81-4.43,11.56,3.23,23.8,6.53,36.79,9.61-.75,1-1.43,2.25-2.1,3.38s-1.43,2.33-2.11,3.53c-1.42,2.32-2.85,4.73-4.2,7.13-1.35,2.18-2.55,4.43-3.83,6.68a8.89,8.89,0,0,0-.45.83c-1.5,2.77-3,5.55-4.43,8.4s-2.93,5.86-4.35,8.86-2.93,6-4.28,9.09-2.85,6.15-4.13,9.38c-.6,1.2-1.05,2.4-1.58,3.61-.82,2-1.65,4.12-2.4,6.23q-1.92,4.72-3.6,9.68a9.43,9.43,0,0,0-.53,1.35c-.9,2.55-1.8,5.18-2.63,7.81-.6,1.58-1.05,3.15-1.5,4.73-.75,2.18-1.42,4.43-2.1,6.68-.38,1.28-.75,2.55-1,3.83-.9,3-1.73,6-2.48,9.08-1,3.53-1.8,7-2.55,10.59-.08.3-.15.67-.23,1a2.32,2.32,0,0,0-.22,1c0,.08,0,.08-.08.15-.82,3.68-1.57,7.43-2.25,11.19s-1.35,7.35-1.95,11.18l-.45,3.16c-.08.67-.23,1.35-.3,2-.53,2.93-.9,5.93-1.28,9-.37,3.45-.82,7.36-1.27,11.71v.08c-.53,4.35-1,9.16-1.36,14.26-.6,6.91-1,14.42-1.27,22.38-.15,4-.23,8.18-.23,12.46,0,3.07,0,6.23.15,9.38,0,1.88.08,3.75.15,5.71s.15,3.9.3,5.93c.15,2.4.3,4.8.53,7.2.15,2.18.37,4.43.6,6.61.6,5.26,1.28,10.59,2.1,15.92.45,2.4.9,4.88,1.35,7.28.23,1.42.53,2.85.83,4.2.82,4,1.73,7.89,2.78,11.86.6,2.41,1.27,4.81,2.1,7.21a2.08,2.08,0,0,0,.15.68c.37,1.42.82,2.85,1.35,4.28.75,2.4,1.58,4.8,2.48,7.13,1.05,2.92,2.25,5.85,3.53,8.71,1.05,2.55,2.17,5.1,3.45,7.65s2.48,5.18,3.9,7.66,2.71,5,4.21,7.36Z"/><path class="cls-1" d="M1593,1347.34l-.67.31-15.38,7.19h-281.7c.19-.29.36-.59.54-.89,34.08-57.81,27.63-130,19.37-176.65-2.1-11.56-4.28-21.62-5.93-29.43-.53-2.18-1-4.35-1.51-6.53s-1-4.28-1.57-6.46c-1.28-5-2.63-9.91-4.06-14.71-.07-.15-.07-.38-.15-.53-1-3.6-2.17-7.05-3.3-10.51s-2.48-7.2-3.75-10.73c-1.13-3.23-2.33-6.38-3.53-9.46-3.3-8.26-6.68-16.07-10.29-23.65-1.5-3.15-3.07-6.31-4.58-9.38-.07-.15-.15-.23-.22-.38-1.2-2.4-2.25-4.35-3.15-6.15-.38-.68-.68-1.36-1.06-2-1-1.87-1.8-3.45-2.7-5l-.22-.45a3.28,3.28,0,0,0-.26-.43c-.09-.16-.19-.31-.27-.47s-.15-.23-.22-.38a179.64,179.64,0,0,0-25.45-33.11,186.13,186.13,0,0,0-26.81-22.82c4.36-3.68,9-7.73,13.82-12.08a224.72,224.72,0,0,0,48.65,32.13c6.38,3.08,11.18,4.88,15.76,6.75,1.5.6,3,1.28,4.51,2a507.83,507.83,0,0,1,67.41,36.48C1507.59,1141,1568.48,1278.65,1593,1347.34Z"/><path class="cls-6" d="M465.14,1052.35c-.46,31.35-1.21,54.92-1.42,61.51q-1,30.3-2.47,59.73c-40.53-16.51-66.46-38-81.65-53.1-10.84-10.75-34.88-34.61-28.69-46.61,8.14-15.79,62.69.37,68.75-15.44,1.3-3.39-.06-7.1-1.42-9.71l-29.88-72.79a166.76,166.76,0,0,1,77.13,3.24C465.63,1007.42,465.43,1032.11,465.14,1052.35Z"/><path class="cls-6" d="M1594.42,1354.84h-19.07l16.93-7.42c0,.08,0,.15.07.23Q1593.43,1351.32,1594.42,1354.84Z"/><path class="cls-7" d="M1263.08,838.49v-.22c-.08-2.25-.38-4.28-.45-6.16a287.63,287.63,0,0,0-7.74-47.45.09.09,0,0,0,0,0,.31.31,0,0,0-.06-.09c.07-.08,0-.08,0-.08A287,287,0,0,0,1233.08,726c0-.07-.07-.15-.11-.22-1.73-3.53-3.45-6.68-5-9.61.06,1.12.14,3.57.14,7.18h0q0,2.6-.06,6v.37c-1,45.42-13.74,188.66-131.46,265.91-4.13,2.71-8.18,5.18-12.31,7.58h-.07c-.3.23-.6.38-.91.61l0,0a295.41,295.41,0,0,1-27.58,13.79h-.08a14.54,14.54,0,0,0-1.4.58h0l-.06,0a276.53,276.53,0,0,1-38.51,12.91c-7.88,2.1-15.54,3.68-22.82,5h-.08a314.92,314.92,0,0,1-51.95,4.58,215.4,215.4,0,0,0,44.82,27.25.1.1,0,0,1,.15,0l80.1-33.64h.08l17.49-7.35h0L1173,989.54l.11,0,0,0,.15-.15.07-.08,70.27-29.43.23-.22C1266.38,910.86,1265,864.24,1263.08,838.49Zm104.65-236.1a160.55,160.55,0,0,1-11.56-24.1v0c-7.06-18.32-14-45.79-14.11-83.22a216.08,216.08,0,0,1,1-23.35v-.25c1.13-10.95,3.16-20.4,5.86-31.58v-.07c-2.1-3.9-4.19-7.65-6.22-11.17,0,0,0,0,0,0-2.84-4.87-5.55-9.44-8.24-13.78h0l0,0c-6.83-11-13.21-20.42-18.69-27.93-5-7-9.31-12.39-12.39-16.29a460.57,460.57,0,0,0-35.81-39.79,424.5,424.5,0,0,0-36.64-32.28c-132.43-104.28-288.58-104.43-314.7-104-49.85.75-182,10.36-299.1,106.38-8.48,6.83-16.66,14.19-24.92,21.92a453.12,453.12,0,0,0-32.88,34.16,463.35,463.35,0,0,0-49.25,67.86,429.92,429.92,0,0,0-43.77,101.13c-3.53,12.23-6.53,25.07-9,38.43-.75,4.13-1.42,8.49-2.18,12.84-1.95,12.84-3.3,25.45-4,37.76C460.61,784.52,572.85,902,592.22,921.53a456.83,456.83,0,0,0,58.86,50.52,494.92,494.92,0,0,0,49.54,31.53,576.1,576.1,0,0,1-66.51,2.78c5.71,4.5,11.34,8.71,17,12.84a483.49,483.49,0,0,0,76.57,45.34c3.68,1.73,7.43,3.45,11.11,5.11l.08.07c15.16,6.08,32.43,12.39,51.65,18.24,2.2.67,4.42,1.34,6.68,2l2.23.65q1.5.45,3,.87,3,.87,6.14,1.72l4.69,1.26,2.36.62,2.39.62,3.21.81,3.23.8,4.08,1q6.15,1.47,12.5,2.85l4.34.92,4.58.94,4.62.91,3.75.72,4,.74.27,0,.35.06,2.44.43q2.88.51,5.79,1l3.18.52c1.33.22,2.66.43,4,.63l5.26.79c2.47.35,5,.7,7.48,1l2.12.28c1.36.17,2.73.35,4.1.51l.73.09.63.08q4.86.59,9.81,1.09c1,.11,2,.21,3,.3l2.43.24,1.1.1,3,.28,1.84.15c.42,0,.85.08,1.28.11q2.44.21,4.92.39c.59,0,1.19.1,1.79.13,1.53.12,3.07.22,4.61.32l1.4.09h0l1.86.11,4.45.25,5,.23,3.44.14,3.43.12,3.92.11,3.89.09,2.38,0,2.63,0c2.09,0,4.17,0,6.24,0h.71c2,0,3.89,0,5.83,0l5.23-.07,5.19-.12h.4l5.18-.16c3.22-.11,6.41-.25,9.59-.41l4.41-.24,3.06-.19,3.45-.23,2.88-.2.54,0c1.62-.12,3.23-.24,4.84-.38l5.33-.46h0c2.25-.21,4.49-.42,6.71-.65q3.56-.36,7.07-.76c1.36-.15,2.72-.31,4.07-.48,2-.24,4-.48,5.95-.74s3.93-.52,5.89-.79c2.15-.3,4.28-.61,6.41-.93h0c3.18-.48,6.34-1,9.46-1.5,1-.17,2.09-.34,3.13-.53s2.08-.35,3.12-.54l3.09-.55,3.08-.56,3.87-.74,4.18-.82,4-.82.1,0,.15,0,4.64-1,1.12-.24,3.73-.82,3.18-.72,1.89-.43,4.38-1,4.26-1q2.51-.62,5-1.24l1.78-.46c1.51-.39,3-.78,4.51-1.18,1.85-.49,3.69-1,5.51-1.49s3.64-1,5.44-1.52l2.69-.77c2.68-.77,5.34-1.55,8-2.35l3-.9,4.19-1.31c2.78-.87,5.53-1.76,8.24-2.65,17.64-5.85,33.86-12,48.42-18.17,3.31-1.35,6.53-2.77,9.69-4.2a141.59,141.59,0,0,0,41.18-19.12l0,0a133.1,133.1,0,0,0,15.09-11.94,136.24,136.24,0,0,0,14.87-16.06c-1.51-.68-3-1.36-4.51-2-5.33-2.47-10.58-4.65-15.76-6.75A224.72,224.72,0,0,1,1230,972.73c4.43-4,8.93-8.26,13.66-12.92l.23-.22a553,553,0,0,0,72.82-88.29c-.08-2.33-.15-4.43-.23-6.31,2-2.62,4-5.4,6.16-8.4a445.46,445.46,0,0,0,39.71-67l40.39-143C1386.8,634.74,1373.58,612.22,1367.73,602.39ZM712.26,794.2c.53-2.78,1.13-5.63,1.8-8.33,0,0,0,0,0,0,.2-.79.4-1.58.61-2.37a148.26,148.26,0,0,1,27.24-53.59v0c38-48.33,106.37-80.61,184.52-80.61,76.12,0,143.09,30.56,181.52,76.8l.08.1a162.66,162.66,0,0,1,13.89,19.27l0,0,.46.78a139.93,139.93,0,0,1,18.5,48,135.56,135.56,0,0,1,2.1,23.5c0,62.61-43.91,117.26-109.08,146.24l-.11,0-.2.07a.06.06,0,0,0-.06,0h-.07l-.07,0a.52.52,0,0,0-.16.12,242.91,242.91,0,0,1-40.62,14,246.59,246.59,0,0,1-33,6,3.24,3.24,0,0,1-.74.15h-.08a287.71,287.71,0,0,1-32.43,1.88,272.85,272.85,0,0,1-61.49-7h-.15C775.4,958.54,710.16,894.05,710.16,817.7A128.15,128.15,0,0,1,712.26,794.2ZM1105.05,529c.14-.83.23-1.66.32-2.51h0c.08-.92.16-1.84.28-2.74a1,1,0,0,0,0-.17v0c5-36.57,22.37-75.46,37.36-74.86,5,.23,9.31,4.81,12.09,8.94l0,.05h0a60.63,60.63,0,0,1,3.19,5.64c.29.61.55,1.23.78,1.84,3.46,8.93,2,18.12-2.21,33.35v0l0,0h0l-.1.05s0,.05,0,.07h0c-.32,1.43-.71,3-1.16,4.55-.17.63-.36,1.27-.55,1.9-10.73,37.68-16.14,51.2-13.06,53.22,5,3.08,23.8-28.83,33.71-25a6,6,0,0,1,1.86,1.33l0,0c3.2,3.27,4.48,11.33,4,21.66h0c-.68,13.84-4.57,31.75-11.33,47.62-6,14-16.44,38.29-29.28,37.91C1121,641.35,1099.57,582.42,1105.05,529ZM672,560.91h0a178.53,178.53,0,0,1,.34-31.86c.23-1.73.38-3.53.6-5.26v0c5-36.62,22.23-75.63,37.31-75,4,.18,7.52,3.09,10.13,6.3.69.85,1.32,1.72,1.89,2.56a.08.08,0,0,1,0,0,30.73,30.73,0,0,1,3.28,5.74c3.85,8.16,3.31,16.2.25,28.55-.51,2.08-1.09,4.28-1.74,6.63,0,0,0,0,0,0-.6,2.1-1.2,4.2-1.88,6.61-10.73,37.68-16.14,51.2-13,53.22,5,3.08,23.73-28.83,33.71-25a5,5,0,0,1,1.78,1.33l0,0a11.79,11.79,0,0,1,2.63,4.83c3.93,12.45.11,40.74-10,64.46C731.48,618,721,642.33,708.13,642,692.18,641.47,675.21,603.48,672,560.91Zm522,441.32h-.07c-1.28,1-2.48,1.8-3.61,2.55s-2.25,1.65-3.22,2.25c-4,2.78-6.76,4.51-8.19,5.41a5.21,5.21,0,0,0-.82.52.86.86,0,0,0-.3.15c-7.13,4.13-14.19,8-21.32,11.57q30-19.94,59.75-39.87C1207.52,992,1200,997.8,1193.93,1002.23Z"/><path class="cls-8" d="M744.68,534.7a139.38,139.38,0,0,1-7.31,22.15c-5.89,14-16.38,38.3-29.22,37.94-14.73-.35-30.28-32.63-35.23-71a190.83,190.83,0,0,1-.59-41.82c3.89-38.06,22.15-80.95,37.94-80.36,8.37.36,14.37,12.49,15.32,14.61,5.06,10.61,2.47,21.33-3.3,41.36,0,.12-.12.35-.12.47-10.72,37.7-16.14,51.25-13,53.26,2.47,1.53,8.37-5.66,14.85-12.73s13.78-14.26,18.85-12.25C750.33,489.11,750.68,511.14,744.68,534.7Z"/><path class="cls-8" d="M1177.56,534.7a139.34,139.34,0,0,1-7.3,22.15c-6,14-16.5,38.3-29.34,37.94-14.73-.35-30.28-32.63-35.23-71a190.22,190.22,0,0,1-.59-41.82c3.89-38.06,22.27-80.95,37.94-80.36,8.25.36,14.37,12.49,15.31,14.61,5.07,10.61,2.6,21.33-3.18,41.48,0,.11-.11.23-.11.35-10.73,37.7-16.15,51.25-13.08,53.26,2.47,1.53,8.36-5.54,14.84-12.61l.12-.12c6.6-7.07,13.79-14.26,18.74-12.25C1183.22,489.11,1183.45,511.26,1177.56,534.7Z"/><path class="cls-9" d="M1227.28,917.91c-6.15,10.07-54.34,88.34-142.45,99.29,78.27-11.07,121.1-89.22,126.58-99.29,29.85-56.57,25.94-113.48,24.15-138.87a294.91,294.91,0,0,0-15.1-75.58,299.68,299.68,0,0,0,1.12-34.44,272,272,0,0,1,32.87,110C1256.47,804.43,1260.83,861.34,1227.28,917.91Z"/><path class="cls-10" d="M1230.9,251.33c-4.4,4.29-8.79,8.68-13.3,13.3"/><path class="cls-11" d="M1363.37,326.86c-5.66,31.23-10.61,50.08-14.38,65.75q-3.18-5.83-6.36-11.31a485.35,485.35,0,0,0-26.86-41.6c-5-6.95-9.31-12.37-12.37-16.26q-13.79-17.13-28.28-32.16c-2.48-2.59-4.95-5.19-7.54-7.66,72.58-90.72,94.37-93.91,102.39-89.78C1386.11,202.44,1375.86,258.76,1363.37,326.86Z"/><path class="cls-10" d="M1315.73,339.68a144.06,144.06,0,0,0,16.6-21.43,148.94,148.94,0,0,0,11.75-22.52"/><g class="cls-12"><path class="cls-13" d="M649.62,1121.45a464.74,464.74,0,0,0-32,98.86q1.18-6.39,2.54-12.77a402.24,402.24,0,0,1,29.44-86.09Z"/></g><path class="cls-14" d="M1398.07,1354.84H618.88c.16,1.35.34,2.7.52,4.06-.21-1.36-.41-2.71-.6-4.06a735,735,0,0,1-7.06-135.2c.3-7.43.67-14.56,1.12-21.47,3.6-.52,7-1.05,10.27-1.73h0c49.62-9.53,70.49-34.38,76.65-42.64,16.74-22.37,22.9-52.32,27.85-89.26,1.13-7.73,2.1-15.84,3.15-24.25s1.73-15.69,2.18-20.49l25,9.68c.08,0,.08,0,.15.08L792,1042.62v.07a357.76,357.76,0,0,1-1.5,45.27c-.53,5.93-1.28,12.09-2.25,18.4a365,365,0,0,1-11.94,52.55l4.55.79.48.08,1,.18.63.1.64.11,5.53.92,2.47.4,2.61.42,2.66.42,5.25.81,2.88.43,2.48.37,2.68.39.45.07,2,.28,1.11.16.4.06.63.09.19,0,.2,0h.11l.13,0,.54.08.4,0c1.92.27,3.85.54,5.79.79l3.73.49q3.95.52,8,1l1.35.17.9.1.66.08.35.05,2.5.29.37,0,.95.12h.13c2.56.3,5.15.59,7.75.87l3.76.4.15,0,3.28.33,2.47.25,6,.58.18,0,5.85.53,6.08.52.21,0,3,.24.54,0,2.39.19q2,.17,4,.3c2.2.17,4.41.32,6.63.47l3.35.22.85.06c1.31.08,2.63.17,4,.24q3.07.19,6.18.36l5.11.26,3.37.16,1.79.08,4.18.18h0l.76,0,.52,0,.55,0,1.06,0c1.67.07,3.34.13,5,.18l.55,0,2.06.07h0l1.91.06.69,0,2.23.06.57,0h.84l2.26.06,1,0,3.69.08,2.77,0,3.18,0,1.51,0,.66,0,1.75,0h2.14l2.08,0h1.92q8.9,0,18,0,6.18-.06,12.44-.21l6.52-.17,4.52-.14,1.5,0,2-.07c1.32,0,2.65-.09,4-.15l2.2-.09c1.39,0,2.77-.11,4.15-.18.63,0,1.27,0,1.9-.09l5.34-.26,6.28-.34,4.68-.28,1.56-.1,4.42-.29,4-.27,3.94-.29,2.53-.19,5.29-.42.5,0,3.38-.28,3.78-.33,2-.18.78-.07c3.44-.32,6.85-.64,10.23-1h0l2.21-.22,3.8-.4,3.67-.4,3.71-.41,2.32-.26,1.19-.14,2.43-.28,2.35-.29,1-.12,5.31-.66,3.6-.46,1.79-.24,1.79-.23,2.25-.3,1.3-.18.16,0,.81-.11,1.38-.19.17,0,.25,0,2.26-.32,5-.71,6.57-1,3.25-.5,3.24-.51,3.21-.51,4.88-.8q3.91-.64,7.76-1.31l3.11-.54,3.09-.55q3.08-.54,6.11-1.11,4.11-.75,8.13-1.53c0-.88,0-1.78,0-2.67l0-1.65c0-1.25,0-2.52-.09-3.79q-.08-2.64-.18-5.34c0-.79-.06-1.58-.1-2.37l0-.68c0-.57,0-1.14-.08-1.71,0-.77-.07-1.54-.12-2.32l-.09-1.7v0c-.07-1.19-.14-2.4-.22-3.61,0-.59-.07-1.19-.11-1.8l0-.37c0-.37,0-.74-.08-1.12l-.09-1.25c-.06-.91-.14-1.84-.21-2.76-.09-1.18-.19-2.37-.29-3.57-.08-.93-.16-1.86-.25-2.8q-.09-1.12-.21-2.25c-.09-1-.19-1.94-.29-2.92-.17-1.66-.35-3.34-.54-5-.06-.55-.12-1.1-.19-1.65v0c-.08-.71-.16-1.44-.26-2.16,0-.45-.11-.91-.17-1.37a4.53,4.53,0,0,0-.06-.5c-.08-.68-.17-1.36-.26-2,0-.33-.08-.65-.13-1-.06-.51-.13-1-.21-1.55a3.87,3.87,0,0,0-.06-.46c-.1-.76-.2-1.52-.31-2.28-.45-3.38-1-6.68-1.5-9.91a501.94,501.94,0,0,0-13.21-58.4q30-19.94,59.75-39.87c.08,1,.16,2,.24,3s.16,1.74.24,2.61c0,.61.11,1.23.17,1.84s.13,1.4.2,2.1l.21,2.12a1.49,1.49,0,0,1,0,.21l.06.58c0,.12,0,.25,0,.37l.88,7.84.06.57a.09.09,0,0,1,0,.05c0,.15,0,.29,0,.44.25,2.27.56,4.61.89,7,.17,1.26.35,2.52.53,3.79l.33,2.32q.21,1.41.42,2.79c.15,1,.31,2.06.47,3.07,0,.12,0,.24,0,.36l.09.59c0,.2.07.4.1.6s.06.41.1.6c.12.7.23,1.39.34,2.08l.24,1.44c.27,1.56.54,3.09.8,4.59l.39,2.24c.27,1.49.54,3,.82,4.41.15.71.29,1.42.44,2.13,1.12,5.79,2.25,11.12,3.38,16.22,1.27,5.48,2.47,10.59,3.68,15.32,9.38,36.18,14.33,54.65,29.35,71.09,16.36,17.94,37.31,26.28,54.43,30.18a146,146,0,0,0,22.29,3.38h.08c.22.38.45.67.6,1l1,1.47,0,.05c.95,1.45,1.89,2.9,2.84,4.34l.75,1.14c.41.63.81,1.26,1.21,1.9.62,1,1.24,2,1.87,3,15.61,25.83,35.21,65.09,45.79,114.56.75,3.61,1.43,7.21,2.1,10.89.38,2.48.83,5,1.21,7.43.28,1.88.55,3.76.84,5.63,0,.33.09.65.13,1l.21,1.62c.1.76.19,1.52.28,2.27q.47,3.82.83,7.55t.65,7.31c.06.69.11,1.37.15,2C1398,1354.2,1398.06,1354.52,1398.07,1354.84Z"/><g class="cls-12"><path class="cls-13" d="M1316.31,1152.35a330.21,330.21,0,0,1,57.91,92.81,320.77,320.77,0,0,1,24.33,115.8h-.2c-3.56-76.11-34.13-150.19-82-208.61Z"/></g><path class="cls-15" d="M1169,1237c-1.78,4.76-4.24,10.48-7.18,16.88-12.75,27.78-34.52,68.56-49,101h-8.48c4.64-17.28,9.48-34.36,14.39-51.4,1.33-4.6,7.92-27.06,14.55-47.71,5.39-16.78,10.81-32.34,13.47-36.16C1152,1223.51,1165.2,1232.78,1169,1237Z"/><path class="cls-15" d="M1136.73,1178.27c-6.55,23.76-15.63,50.7-25,78.68-7.56,22.61-15.3,45.9-22,68.75-2.18,7.38-4.25,14.72-6.18,22-.63,2.4-1.26,4.79-1.85,7.17H915.84l.15-13,.06-5.08,0-3.55v-1.37l.61-53.25.08-7.08h0l0-3.46h0l.09-7.92.05-4.48h0l.18-15.29.11-9.51.06-5.24,0-4.83.16-13.78.05-3.81,0-2.5h0l.09-7.32.21-18.85.35-30.16c14-4.59,22.42-4.55,34.71-11.84,11.24-6.67,15.92-12.77,18.55-17.3,2.26-3.88,3-6.61,5.06-7.57,15.3-.13,33.15,2,51.23,5h0c22.31,3.71,45,8.71,63.53,12.3,7.74,28.41,15.94,35.6,25.13,40.53C1122.72,1168.82,1129.41,1171.11,1136.73,1178.27Z"/><path class="cls-16" d="M1216.15,1189.34c-1.92,7.71-14.56,33-29.57,62.59-18.15,35.83-39.76,78-50,102.91h-23.85c14.49-32.45,36.26-73.23,49-101,2.94-6.4,5.4-12.12,7.18-16.88-3.76-4.17-17-13.44-22.26-17.38-2.66,3.82-8.08,19.38-13.47,36.16-6.63,20.65-13.22,43.11-14.55,47.71-4.91,17-9.75,34.12-14.39,51.4h-22.61c.59-2.38,1.22-4.77,1.85-7.17,1.93-7.25,4-14.59,6.18-22,6.73-22.85,14.47-46.14,22-68.75,9.36-28,18.44-54.92,25-78.68-7.32-7.16-14-9.45-20.25-12.78-9.19-4.93-17.39-12.12-25.13-40.53-18.57-3.59-41.22-8.59-63.53-12.3h0c-18.08-3-35.93-5.16-51.23-5-2.06,1-2.8,3.69-5.06,7.57-2.63,4.53-7.31,10.63-18.55,17.3-12.29,7.29-20.76,7.25-34.71,11.84l-.35,30.16-.21,18.85-.09,7.32h0l0,2.5-.05,3.81-.16,13.78,0,4.83-.06,5.24-.11,9.51-.18,15.29h0l-.05,4.48-.09,7.92h0l0,3.46h0l-.08,7.08-.61,53.25v1.37l0,3.55-.06,5.08-.15,13H895.45q.25-9.84.45-19.69c0-1.86.07-3.72.1-5.58q.06-2.55.09-5.1.12-6.79.21-13.6h0q.13-9.27.23-18.53l.06-5.43h0c0-.78,0-1.55,0-2.33h0c0-1.34,0-2.68,0-4h0q.11-10.44.18-20.88v-.45q.07-10.87.14-21.76c0-1.56,0-3.11,0-4.67,0-2,0-3.91,0-5.86q.15-21,.35-42.12c0-1.79,0-3.58,0-5.36h0c0-2,.05-4,.07-6q.38-31.28,1.21-62.57.42-15,1-30c24.72-6.14,124.63,6.7,198.3,21.39,35,7,64,14.37,76.32,20.36a28.48,28.48,0,0,1,3.51,2l-2.77,9v0l-7.37,23.76L1165,1166Z"/><path class="cls-17" d="M1089.71,1325.7c0,.12,0,.23,0,.35a85.85,85.85,0,0,1-6.13,21.62q-1.58,3.69-3.48,7.17H928.38a86.59,86.59,0,0,1-5.55-12.34q-.92-2.55-1.66-5.18c-.33-1.13-.64-2.28-.91-3.43h0a86.35,86.35,0,0,1,37.2-93.07l.51-.33c1.17-.74,2.35-1.45,3.55-2.13,1.52-.87,3.06-1.68,4.63-2.45a86.39,86.39,0,0,1,123.57,89.79Z"/><path class="cls-18" d="M839.74,1184.82c-7.26,5-13.08,10.54-17,16.9-7.93,12.93-12.25,26.82-9.91,42.28,7.09,46.88,58.95,67.08,94.51,42.38,46.78-32.49,29.25-98.74-19.48-110C874.36,1173.24,855.42,1174,839.74,1184.82Z"/><path class="cls-19" d="M846.62,1186.53c-10,5.76-18.1,13.67-23,23.29l-4,9.24c-.23,1-.19,1.43-.38,2.38a17.87,17.87,0,0,1-.68,2.23c-3.23,11.22-.44,28.58,5.89,39.29,4.26,7.2,8.68,12.74,14.84,17.49a53,53,0,0,0,27.37,11.07,62.47,62.47,0,0,0,10.59.22c19-.89,37.79-13.42,46.1-30.26,3.71-7.53,2.59-5.49,4.34-11.64,3.7-13,2-29.59-4.92-41.4-6.34-10.84-13-17-23.34-22.58a43.51,43.51,0,0,0-9.37-3.7,27.78,27.78,0,0,0-4.5-1.32C872.31,1178.35,859.12,1179.32,846.62,1186.53Z"/><path class="cls-20" d="M868.16,1288.27c43,6.36,79.84-70.93,34.35-95C950,1210.8,928.37,1296.43,868.16,1288.27Z"/><path class="cls-21" d="M849.22,1189.84a48.47,48.47,0,0,1,43,.63,47.42,47.42,0,0,0-26.65,4.35c-24.61,11.93-34.35,42.65-21.76,68.63a53.92,53.92,0,0,0,24.33,24.82,52.93,52.93,0,0,1-40.7-29.8C814.87,1232.49,824.61,1201.76,849.22,1189.84Z"/><path class="cls-18" d="M891.25,1230.38c-7.25,5-13.08,10.54-17,16.9-7.94,12.93-12.25,26.81-9.92,42.27,7.09,46.88,58.95,67.08,94.51,42.38,46.78-32.49,29.25-98.74-19.47-110C925.88,1218.79,906.93,1219.58,891.25,1230.38Z"/><path class="cls-19" d="M898.14,1232.08c-10,5.77-18.11,13.67-23,23.3l-4,9.24c-.23,1-.19,1.42-.37,2.37a18.07,18.07,0,0,1-.69,2.24c-3.23,11.22-.44,28.57,5.9,39.28,4.26,7.2,8.68,12.75,14.84,17.5a53,53,0,0,0,27.36,11.06,61.56,61.56,0,0,0,10.6.22c19-.88,37.79-13.41,46.09-30.26,3.72-7.53,2.59-5.48,4.34-11.63,3.71-13,2-29.6-4.91-41.41-6.35-10.84-13-17-23.34-22.58a44.24,44.24,0,0,0-9.37-3.7,28,28,0,0,0-4.5-1.31C923.83,1223.9,910.63,1224.88,898.14,1232.08Z"/><path class="cls-20" d="M919.67,1333.82c43,6.37,79.85-70.92,34.36-95C1001.48,1256.35,979.89,1342,919.67,1333.82Z"/><path class="cls-21" d="M900.73,1235.39a48.47,48.47,0,0,1,43,.64,47.26,47.26,0,0,0-26.65,4.35c-24.6,11.92-34.34,42.65-21.75,68.63a53.83,53.83,0,0,0,24.32,24.81C902.91,1331.73,887.2,1321,879,1304,866.39,1278,876.13,1247.31,900.73,1235.39Z"/><path class="cls-2" d="M1217.19,1345.56q-2.91,4.8-5.89,9.28H808.94q-6.45-50-12.89-99.91c6.57.43,13.16.84,19.81,1.23h0l5.52.32,5.29.29q7.32.4,14.7.76,13.39.65,27,1.18l5.26.2,4.32.15q9.25.33,18.61.58h.25q8.86.25,17.83.44l2.27,0,4.76.1h0l2.29,0h0l5.53.08q3.24.08,6.46.1,18.57.25,36.84.23h4.69l5.07,0q45.17-.2,88.49-1.86,20.55-.76,40.67-1.84,10.8-.57,21.49-1.22,14.4-.88,28.55-1.9,12.49-.9,24.8-1.9,13.65-1.1,27.06-2.33Q1215.41,1297.59,1217.19,1345.56Z"/><path class="cls-1" d="M1404.59,600.81c-16.74-11.34-30.78-35.36-36.86-45.57-1.43-2.4-3.23-5.55-5.18-9.53a35.19,35.19,0,0,1-2-4.13,161.61,161.61,0,0,1-7.88-20.5c-.6-1.8-1.2-3.83-1.8-5.78s-1-4.13-1.65-6.23-1.06-4.43-1.51-6.61c-.45-2.4-1-4.72-1.42-7.13s-.83-4.88-1.28-7.5c-.21-1.26-.4-2.55-.57-3.86s-.34-2.66-.5-4q-.36-3-.63-6.18l-.18-2.1v-.25c-.06-.59-.12-1.19-.17-1.79a54.61,54.61,0,0,1-.35-5.46,42.33,42.33,0,0,1-.3-5.33v0c-.08-1.76-.13-3.55-.17-5.37,0-.93,0-1.86,0-2.8s0-1.84,0-2.76v-1.51c0-1.63,0-3.23,0-4.8v-.2c0-2.53.13-5,.26-7.31a42.09,42.09,0,0,1,.38-5.48c.22-2.48.45-4.95.67-7.36a239.53,239.53,0,0,1,5.56-28.52v-.08c-2.09-3.88-4.18-7.62-6.34-11.28l0-.06c-5.18-9-10.26-17.19-15-24.47h0l-1.25-1.9-1.24-1.86c-.82-1.23-1.64-2.43-2.44-3.61l-1.58-2.3-.78-1.12q-1.15-1.66-2.28-3.24h0c-.49-.7-1-1.39-1.47-2.06l-.72-1h0l0,0h0c-.92-1.29-1.82-2.52-2.69-3.71s-1.88-2.52-2.77-3.69c-2.67-3.5-5-6.44-6.89-8.77-9.23-11.49-18.62-22.15-28.3-32.21-2.48-2.55-5-5.18-7.51-7.65L1266,282l-1.63-1.6c-.53-.53-1.06-1-1.6-1.55l-1.6-1.53c-1.39-1.33-2.8-2.65-4.21-3.94l-1.78-1.63q-3.63-3.31-7.32-6.47c-1.26-1.08-2.53-2.16-3.8-3.21-4.36-3.68-8.71-7.28-13.07-10.74-132.43-104.27-288.58-104.35-314.7-104-48.84.73-176.67,10-292,100.74q-3.57,2.81-7.12,5.72l-2.33,1.89c-1.34,1.09-2.66,2.19-4,3.32-4.91,4.14-9.75,8.44-14.59,12.91l-4,3.73-2.4,2.27-1.75,1.68c-2.12,2-4.48,4.35-7,6.92-1.46,1.46-3,3-4.6,4.67-3,3.07-6.15,6.45-9.5,10.14L564.44,304c-1.66,1.86-3.37,3.79-5.1,5.8-.94,1.08-1.9,2.18-2.86,3.3q-1.82,2.11-3.65,4.32c-5.53,6.61-11.33,13.87-17.19,21.81-.75,1-1.5,2-2.24,3.06s-1.5,2.06-2.25,3.11l-1.5,2.11q-3,4.25-6,8.72c-.55.81-1.09,1.62-1.63,2.44q-4.08,6.13-8.11,12.68c-1.27,2.08-2.54,4.18-3.8,6.32q-3.52,6-7,12.22c-.39.7-.77,1.4-1.15,2.1s-.77,1.41-1.15,2.12c-1,1.9-2,3.81-3,5.75-5,9.7-9.87,19.92-14.41,30.68-.45,1.07-.91,2.15-1.35,3.23s-.9,2.18-1.34,3.28c-.88,2.18-1.75,4.4-2.61,6.63-4.3,11.15-8.25,22.81-11.71,35,0,0,0,.05,0,.07q-3.27,11.34-5.93,23.35c-.32,1.43-.63,2.86-.93,4.3-.09.38-.17.75-.24,1.13s-.16.72-.23,1.08c-.19.88-.37,1.77-.54,2.66-.07.31-.14.62-.19.93-.32,1.66-.64,3.32-.95,5-.75,4.13-1.42,8.48-2.18,12.84a404.58,404.58,0,0,0-4,84.9C460.61,784.52,572.85,902,592.22,921.53a456.83,456.83,0,0,0,58.86,50.52,494.92,494.92,0,0,0,49.54,31.53q16.23,9,32.36,16.22c8.26,3.82,16.44,7.28,24.55,10.51l.08.07h.07c11.71,4.66,23.2,8.71,34.31,12.24v.07c70.19,22.22,128,24.33,148.27,24.63,12,.75,27.4,1.2,45.27.6a.1.1,0,0,1,.15,0c45.49-1.8,107.2-11.19,170.72-43.24,7.13-3.53,14.19-7.44,21.32-11.57a.86.86,0,0,1,.3-.15,5.21,5.21,0,0,1,.82-.52c1.43-.9,4.21-2.63,8.19-5.41,1-.6,2-1.35,3.22-2.25s2.33-1.58,3.61-2.55h.07c6.08-4.43,13.59-10.21,22.22-17.42,4.36-3.68,9-7.73,13.82-12.08,4.43-4,8.93-8.26,13.66-12.92l.23-.22a553,553,0,0,0,72.82-88.29,580.7,580.7,0,0,0,45.64-81.75c24.93-54.51,37.84-121.32,39-131.08.45-4.06,1-8,1.42-11.94.83-9.08,1.43-17.87,1.65-26.73v0C1404.59,613.4,1404.74,607,1404.59,600.81ZM1238.75,895.32a203.77,203.77,0,0,1-9.83,19.76c-.53.94-1.08,1.89-1.64,2.83h0c-.3.49-.68,1.11-1.15,1.86s-1,1.63-1.71,2.65l-.56.91,0,0a.24.24,0,0,1-.06.09,188.81,188.81,0,0,1-11.21,16.14l-.07.07-.06.07-.06.09,0,.08-.06.06a219.13,219.13,0,0,1-39.94,39.64,58.05,58.05,0,0,1-5,3.77l-.09.06-.21.16-1.78,1.28c-.67.48-1.37,1-2,1.43-1.08.75-2.16,1.5-3.28,2.24s-2.2,1.48-3.33,2.2l0,0-.14.09-.1.07-.7.46c-4,2.63-8.33,5-12.69,7.43-19.22,10.21-39.56,17-59.68,18.92a110.35,110.35,0,0,1-15.69.67h-.24c-3.83-.07-7.8-.37-11.62-.81h-.08a244.44,244.44,0,0,1-36.11-6.91,223.43,223.43,0,0,1-59.76-26.5c-3.35-2.09-6.49-4.25-9.25-6.11l-.31-.23a8.21,8.21,0,0,0-.84-.67L949,977a285.06,285.06,0,0,0,43.62,1.21c27.25-1.43,60.28-7.44,93.61-24.25h.08c3.22-1.57,6.58-3.3,9.8-5.16l0,0,.1-.06.17-.11.1-.06s.07,0,.08-.06h0l.08-.05,0,0,.09,0c67.08-38.4,111.21-110.92,123.21-195.67,0,0,0,0,0-.08.07-.42.14-.77.21-1.19,0-.15.08-.23.08-.38a339.34,339.34,0,0,0,3-38.43v-.2c.06-2.78.08-5.59.06-8.39h0c0-11.39-.64-22.94-1.82-34.53v-.08a.06.06,0,0,0,0,0c0-.1,0-.19,0-.3s0,0,0,0v0h0c.74,1.34,1.56,2.79,2.3,4.28,1.5,2.92,3.15,6.08,4.73,9.46a27.16,27.16,0,0,1,1.35,2.92q1,2.07,2,4.24l.43,1c.21.47.42,1,.62,1.44l.27.61c0,.11.09.22.14.34.56,1.35,1.11,2.73,1.65,4.13s1.29,3,1.89,4.57h0q.94,2.43,1.86,4.95l.6,1.65.08.24c.48,1.4,1,2.81,1.42,4.27a272.69,272.69,0,0,1,10.43,41c.68,3.82,1.28,7.73,1.73,11.78.1.58.18,1.17.26,1.76.15,1.18.28,2.38.4,3.6.06.62.11,1.23.17,1.85,0,.39.09.78.13,1.17a2.28,2.28,0,0,0,0,.26c.1,1,.18,2,.26,2.95,0,.49.07,1,.11,1.47l.09,1.07c0,.59.1,1.2.15,1.82,0,.81.1,1.65.14,2.52,0,0,.07,0,0,.08a1.36,1.36,0,0,0,.07.52c0,.3,0,.6.08.91,0,0,0,.07,0,.1l.09,1.34c0,.82.08,1.66.12,2.53.23,2.63.3,5.41.38,8.33a251.14,251.14,0,0,1-5,59.84c-1,4.73-2.25,9.53-3.67,14.41a207.41,207.41,0,0,1-8,22.45.37.37,0,0,1,0,.11.84.84,0,0,1-.08.19h0S1238.77,895.31,1238.75,895.32ZM693.13,584.16c-.22-.3-.44-.61-.65-.93s-.38-.54-.56-.82c-.46-.69-.92-1.4-1.36-2.14-.17-.26-.33-.52-.48-.79s-.35-.58-.51-.87c-.3-.5-.58-1-.87-1.54q-.63-1.14-1.23-2.34-.32-.59-.6-1.2c-.4-.81-.79-1.63-1.18-2.48-.2-.41-.39-.84-.57-1.27q-1.15-2.58-2.22-5.36c-.21-.53-.41-1.06-.61-1.6s-.44-1.19-.66-1.8c-.5-1.41-1-2.86-1.47-4.33-.19-.6-.38-1.21-.58-1.83l-.69-2.29c-.3-1-.6-2.09-.88-3.14v0c-.23-.85-.45-1.7-.67-2.56s-.39-1.54-.58-2.32c0-.1,0-.2-.07-.3-.22-.87-.42-1.76-.62-2.65-.16-.69-.31-1.37-.46-2.07,0-.2-.09-.41-.13-.62s-.15-.72-.22-1.08c-.23-1.14-.46-2.29-.67-3.45,0-.19-.07-.38-.1-.58-.21-1.15-.41-2.3-.6-3.47-.12-.72-.24-1.43-.34-2.16a.36.36,0,0,1,0-.1c-.21-1.41-.41-2.84-.6-4.27v0q-.36-2.93-.63-5.9c-.09-1-.18-2-.25-3s-.15-2-.21-3-.11-1.72-.15-2.58c0-.26,0-.53,0-.8s0-.56,0-.84c0-.6-.06-1.2-.07-1.81,0-1-.07-2-.08-3a174.24,174.24,0,0,1,.85-20.83c.06-.61.13-1.22.2-1.83l.21-1.79c0-.11,0-.23,0-.34s.05-.38.08-.57l.12-.9c.06-.49.14-1,.21-1.47.18-1.29.38-2.58.6-3.88s.41-2.37.63-3.56v0c.23-1.17.46-2.35.7-3.53a.43.43,0,0,0,0-.05c.24-1.17.49-2.34.76-3.51a.13.13,0,0,0,0-.06c.26-1.17.54-2.33.83-3.49,0,0,0,0,0-.05l.63-2.5c.25-.92.49-1.84.74-2.75.31-1.14.64-2.27,1-3.39a.11.11,0,0,0,0,0c.33-1.12.67-2.24,1-3.34a.09.09,0,0,0,0-.05c.36-1.1.72-2.2,1.08-3.28s.76-2.19,1.14-3.26v0c.15-.39.29-.79.44-1.18s.29-.79.44-1.17c.3-.79.6-1.57.91-2.34,0,0,0,0,0,0,.3-.74.6-1.48.91-2.21s.63-1.52,1-2.27c.22-.49.43-1,.65-1.46a0,0,0,0,0,0,0l.87-1.87c.29-.62.59-1.23.89-1.83s.47-.94.71-1.41.47-.92.71-1.37l.57-1.06.14-.27c.19-.33.37-.66.56-1l.55-1c.37-.63.74-1.25,1.12-1.85.13-.23.27-.44.41-.66l.37-.58.72-1.09c.24-.36.48-.71.73-1.05s.48-.68.73-1,.47-.64.71-.95l0,0c.24-.32.49-.63.74-.93s.49-.6.74-.88c.49-.58,1-1.12,1.49-1.62.25-.27.5-.51.75-.75q.74-.72,1.47-1.32l0,0a16.62,16.62,0,0,1,1.51-1.14c.25-.18.5-.34.75-.49a12.35,12.35,0,0,1,1.5-.82,8,8,0,0,1,.75-.32A5.63,5.63,0,0,1,707,402q.38-.12.75-.21l.08,0,.38-.08h0l.48-.08.48-.06a9.55,9.55,0,0,1,1.07,0c8.41.37,14.42,12.53,15.32,14.63a27.62,27.62,0,0,1,2.71,13.05h0c-.15,7.37-2.49,16.12-6,28.31,0,.06,0,.19-.06.32a.29.29,0,0,0,0,.09v0q-.84,2.94-1.63,5.69-.33,1.16-.66,2.28c0,.11-.07.22-.1.34-.22.75-.43,1.49-.65,2.22-.42,1.45-.84,2.86-1.24,4.23-.27.91-.53,1.81-.79,2.68-.14.49-.29,1-.43,1.45s-.21.72-.32,1.08l-.73,2.48-.7,2.34-.33,1.13a.88.88,0,0,0-.05.15L714,486c-1.09,3.67-2,6.87-2.83,9.65-.27.93-.51,1.81-.74,2.64q-.25.93-.48,1.8c-.11.38-.2.76-.29,1.12a.14.14,0,0,0,0,.06q-.12.51-.24,1a.14.14,0,0,0,0,.06c-.07.32-.15.63-.22.93s-.07.32-.1.47-.07.31-.1.46c-.1.45-.19.88-.26,1.28s-.14.71-.19,1c-.41,2.73-.21,4.23.69,4.78a2,2,0,0,0,2-.07h0c.21-.1.43-.21.66-.34h0a3.5,3.5,0,0,0,.35-.23,12.52,12.52,0,0,0,1.53-1.17l.42-.36.42-.38c.57-.52,1.17-1.1,1.79-1.73l.47-.49c.16-.16.32-.33.47-.5s.33-.34.49-.52.41-.43.62-.66l.63-.68,1.28-1.41c.19-.19.36-.38.53-.58s.36-.39.53-.59.36-.39.53-.59.37-.4.54-.6l1.63-1.77c1.09-1.17,2.2-2.34,3.31-3.48l0,0,.55-.56c.19-.18.37-.36.55-.55l.57-.56.53-.51s0,0,0,0c.36-.35.72-.69,1.08-1,.2-.17.39-.35.58-.53.73-.64,1.45-1.25,2.16-1.81l.51-.39c.16-.13.33-.25.5-.37,3.09-2.23,6-3.38,8.45-2.41a6.48,6.48,0,0,1,3.26,3.11c.14.27.28.54.42.83s.26.59.38.9a.3.3,0,0,0,0,.1c.1.29.21.58.31.89s.18.58.26.88a.94.94,0,0,0,0,.16c.09.32.17.66.25,1,0,.14.06.27.09.41l.09.41c0,.08,0,.16.05.25a.18.18,0,0,0,0,.06c0,.13,0,.27.07.4.11.6.2,1.22.28,1.87,0,.4.1.81.14,1.23.09.95.17,1.93.21,2.95,0,.51,0,1,.05,1.56q0,1.55,0,3.21c0,1.07-.06,2.16-.13,3.29,0,.57-.07,1.15-.11,1.74s-.09,1.18-.15,1.78-.11,1.2-.18,1.81c-.13,1.22-.28,2.47-.46,3.73-.09.63-.18,1.27-.28,1.91s-.2,1.28-.31,1.92-.22,1.31-.34,2c-.59,3.29-1.32,6.67-2.19,10.07-.45,1.84-.93,3.69-1.47,5.53s-1.1,3.73-1.71,5.58v0c-.61,1.85-1.27,3.69-2,5.52,0,0,0,0,0,0-.34.91-.7,1.83-1.06,2.74-.18.45-.37.91-.56,1.36-.09.23-.18.45-.28.67l-.29.68c-.91,2.16-1.92,4.57-3,7.09-.12.26-.24.53-.35.79q-.33.75-.69,1.53l-.37.79c-.35.78-.72,1.56-1.1,2.35h0c-.25.53-.51,1-.76,1.58-.07.13-.14.27-.2.4-.33.66-.66,1.32-1,2h0c-.27.52-.54,1-.82,1.56s-.57,1-.85,1.56l-.26.46c-.37.66-.75,1.32-1.14,2q-.37.66-.78,1.29l0,0h0s0,0,0,0c-.49.79-1,1.57-1.5,2.33l0,0c-.19.29-.39.56-.58.84l-.71,1-.2.27-.78,1L722,586c-.28.36-.57.72-.85,1.06s-.69.81-1,1.2-.67.72-1,1.06c-.17.19-.35.36-.53.53q-.51.51-1,1h0c-.35.31-.71.6-1.07.87h0a12.74,12.74,0,0,1-1.09.77,11.81,11.81,0,0,1-1.11.68,6,6,0,0,1-.56.3,4.11,4.11,0,0,1-.56.27l-.57.24a9.79,9.79,0,0,1-1.15.4c-.19.06-.39.11-.58.15s-.39.09-.59.12a8.92,8.92,0,0,1-2.06.17,10.06,10.06,0,0,1-1.54-.16,11.11,11.11,0,0,1-2.59-.78,7.13,7.13,0,0,1-.7-.31,5.6,5.6,0,0,1-.69-.35,6,6,0,0,1-.69-.39,6.62,6.62,0,0,1-.69-.44c-.16-.09-.32-.21-.48-.32l0,0-.13-.09-.14-.1,0,0c-.17-.11-.33-.24-.5-.37s-.49-.39-.74-.6h0q-.67-.57-1.35-1.23a33.18,33.18,0,0,1-2.7-2.9h0C694.44,585.9,693.78,585.05,693.13,584.16ZM1174.55,486a4.57,4.57,0,0,1,1.14.3c5.67,2.1,7.19,15.24,5.07,31.67-.08.64-.16,1.28-.26,1.92-.06.46-.13.93-.21,1.4s-.15,1-.23,1.45c-.15.89-.31,1.8-.48,2.71-.09.49-.19,1-.29,1.49,0,.1,0,.19,0,.29-.09.47-.19,1-.29,1.42-.13.66-.27,1.33-.43,2-.29,1.35-.61,2.71-1,4.08-.45,1.84-.93,3.69-1.47,5.53s-1.11,3.76-1.73,5.63c-1.23,3.7-2.62,7.38-4.16,11a211.23,211.23,0,0,1-9.71,20.41h0c-.28.51-.57,1-.87,1.51-.16.25-.31.51-.46.76-.29.49-.6,1-.9,1.46-1.09,1.7-2.2,3.32-3.36,4.8-.16.21-.33.42-.5.62l-.48.59,0,0c-.16.2-.33.4-.51.59s-.33.39-.51.58-.35.4-.54.59-.32.34-.49.5-.33.34-.5.5l0,0a6.17,6.17,0,0,1-.53.5l-.53.47q-.27.24-.54.45a6.77,6.77,0,0,1-.54.43,14.86,14.86,0,0,1-5.15,2.72,10.15,10.15,0,0,1-3.1.39c-12.48-.32-25.49-23.34-32.21-53.57,0-.06,0-.11,0-.17-1.24-5.55-2.26-11.35-3-17.29a193.92,193.92,0,0,1-.6-41.81,186.41,186.41,0,0,1,7.34-35.44c.17-.57.35-1.13.53-1.69.35-1.12.72-2.23,1.1-3.33.18-.55.37-1.09.57-1.63s.37-1.08.57-1.62.38-1.07.59-1.6l.6-1.57c.4-1,.81-2.07,1.24-3.09.18-.45.37-.9.56-1.35a1.11,1.11,0,0,1,.07-.16c.2-.5.42-1,.64-1.48.42-1,.86-1.94,1.31-2.88.17-.38.34-.74.52-1.11.27-.56.54-1.11.82-1.65s.45-.9.68-1.34l.69-1.31q.34-.64.69-1.26c.45-.84.93-1.66,1.41-2.45.22-.38.45-.75.68-1.11.48-.78,1-1.54,1.47-2.27.24-.36.48-.71.73-1.05.47-.69,1-1.35,1.47-2a2.35,2.35,0,0,1,.19-.25l.54-.68c.24-.3.49-.6.74-.88.49-.57,1-1.11,1.49-1.62l.75-.75c.45-.45.91-.86,1.37-1.24l.14-.12c.24-.2.49-.39.73-.57l.06-.05c.17-.12.33-.25.5-.36s.61-.42.92-.61l.17-.1c.15-.1.31-.19.47-.28l.13-.07c.18-.1.37-.2.55-.28a1.83,1.83,0,0,1,.28-.14l.48-.21.34-.14.08,0a12.57,12.57,0,0,1,1.28-.4l.49-.1.2,0a9.89,9.89,0,0,1,1.8-.11c8.26.37,14.34,12.53,15.32,14.63,5,10.59,2.55,21.33-3.23,41.45,0,.15-.08.22-.08.37-1.69,5.92-3.24,11.24-4.64,16l-.21.71q-.35,1.15-.66,2.25c-.12.36-.23.73-.33,1.09-.21.73-.42,1.43-.63,2.13-.27.91-.54,1.8-.79,2.66-.14.45-.27.9-.4,1.34l-.56,1.88c0,.09-.06.17-.08.25-.32,1.06-.62,2.08-.91,3.06a.83.83,0,0,0-.06.21l-.72,2.45a2.58,2.58,0,0,0-.08.26c-.26.87-.5,1.7-.73,2.51-.16.55-.31,1.09-.46,1.61s-.25.9-.37,1.32c-.24.86-.46,1.67-.66,2.44-.11.42-.22.82-.32,1.22s-.15.64-.23.95l-.12.5c-.08.32-.15.64-.22.95-.11.46-.2.9-.28,1.32l-.15.8c0,.2-.06.38-.09.57s0,.35-.07.52v0c0,.16,0,.32-.07.47s0,.45,0,.65a7.32,7.32,0,0,0,0,1.51c0,.13,0,.25.07.37a2.42,2.42,0,0,0,.21.61,2.1,2.1,0,0,0,.15.22,1.12,1.12,0,0,0,.17.2,1.56,1.56,0,0,0,.2.16,1.53,1.53,0,0,0,.37.16l.18,0h0a1.44,1.44,0,0,0,.46,0l.28-.05a1.71,1.71,0,0,0,.3-.09c1.44-.48,3.35-2.11,5.54-4.34q.9-.91,1.86-1.95c.66-.71,1.34-1.46,2-2.23,1.2-1.34,2.45-2.74,3.72-4.14l.1-.05h0l0,0h0l1.1-1.17c.54-.58,1.09-1.15,1.64-1.71l.56-.57.45-.46.44-.44.4-.4c.14-.13.27-.27.4-.4l0,0C1166.52,488.94,1171,485.55,1174.55,486ZM1078.11,650.4c-.18-.15-.36-.28-.54-.42-37.19-28.28-87.3-46.13-142.87-47.65l-.52,0a1.66,1.66,0,0,0-1-.07c-2.18-.15-4.43-.15-6.68-.15-114.94,0-209,69.89-215.84,158.1,0,0,0,.08,0,.12a26,26,0,0,0-.21,2.79v.47c-.15,2.33-.22,4.73-.22,7.06a129,129,0,0,0,2.1,23.57h428.67a136.45,136.45,0,0,0,2.1-23.57C1143,723.54,1118.18,680.92,1078.11,650.4Z"/><path class="cls-22" d="M740.76,554.81c-7.41,14.83-20.44,40.42-36.5,40-24.84-.58-51.59-62.66-44.73-118.94,4.8-40.08,27.72-85.24,47.34-84.67,10.43.35,18,13.21,19.21,15.41,6.31,11.35,3,22.58-4.25,44.12-13.45,39.73-20.18,54-16.2,56.06,6.18,3.24,29.51-30.35,42-26.29C759.84,484.4,756.68,523.43,740.76,554.81Z"/><path class="cls-22" d="M1182.33,554.81c-7.32,14.83-20,40.42-35.53,40-24.08-.58-50-62.66-43.37-118.94,4.79-40.08,27-85.24,46-84.67,10,.35,17.3,13.21,18.5,15.41,6.12,11.35,3.06,22.58-4,44.12-13,39.73-19.56,54-15.84,56.06,6.12,3.24,28.74-30.35,40.71-26.29S1197.76,523.43,1182.33,554.81Z"/><path class="cls-23" d="M1084.83,1017.2a172.76,172.76,0,0,1-17.33,1.23C1007.13,1019.77,963.63,988.58,949,977c29.63-.11,84.42-4.58,139.1-37.23-1.57,10.73-2.8,22.47-3.47,35A382.44,382.44,0,0,0,1084.83,1017.2Z"/><path class="cls-2" d="M1211.41,917.91c-5.48,10.07-48.31,88.22-126.58,99.29h-.11c-.11-1.79-.22-3.58-.22-5.48s-.22-3.8-.22-5.7c-.23-9.73-.23-20.24.33-31.31.11-3.13.34-6.26.56-9.28.78-9,1.79-17.66,2.91-25.71q4.51-2.65,8.83-5.48c39.49-25.8,102.54-85,126.52-230.29A373.93,373.93,0,0,1,1235.56,779C1237.61,814.75,1240,865.4,1211.41,917.91Z"/><path class="cls-24" d="M1122,766.62c-.1-.65-.21-1.31-.34-2a133.46,133.46,0,0,0-13.57-38.53L1108,726c-36.26-69.22-131.23-126.8-218-113.74-58.78,8.79-128.38,52.18-148.05,117.57v0a118.13,118.13,0,0,0-5,25.43,128.94,128.94,0,0,0,2.41,38.89v0c6.76,32.42,23.8,57,32.28,68,1.8,1.63,6.74,6.16,14.44,12.07,2.59,2,5.49,4.15,8.68,6.4,33.18,23.42,98.35,58,177.32,41.29,61.72-13.06,142.19-59.46,150.53-127.17,0-.22.07-.37.07-.58v0A100,100,0,0,0,1122,766.62ZM855.3,831.41c-6.15.78-12.68-6.41-18.07-18.45-.86-1.94-1.7-4-2.5-6.17-.23-.62-.46-1.24-.67-1.88-.17-.48-.34-1-.5-1.46-1-2.91-1.85-6-2.65-9.25,0,0,0,0,0,0a176.22,176.22,0,0,1-4.21-22.67c-3.76-31.39,1.14-58.35,10.89-63.93a7.79,7.79,0,0,1,3-1,8,8,0,0,1,1.95,0,7.51,7.51,0,0,1,1.21.27,10.49,10.49,0,0,1,2.31,1c10,5.78,19.71,29.53,23.13,58.63a159.77,159.77,0,0,1,1.05,27.71v0C869.33,815.36,863.7,830.44,855.3,831.41Zm176.87-37.23v0c-2.33,13.35-7.06,22.2-13.36,22.95a9,9,0,0,1-5.88-1.52,17.52,17.52,0,0,1-3.51-2.91,30.53,30.53,0,0,1-2.49-3l-.32-.42h0a67.91,67.91,0,0,1-7.83-15.13s0,0,0,0a153.26,153.26,0,0,1-7.71-30.26v-.12c-.35-2.15-.65-4.4-.92-6.63-2.33-19.52-1.28-37.32,2.17-49.33,1.64-5.77,3.85-10.19,6.51-12.84h0a9,9,0,0,1,5.27-2.76c3.39-.39,6.87,1.58,10.2,5.41l.05.06a44.09,44.09,0,0,1,5.18,7.71h0a84.43,84.43,0,0,1,4.06,8.78c4.07,10.28,7.32,23.46,9,38C1034.5,768.05,1034.2,782.77,1032.17,794.18Z"/><path class="cls-25" d="M1122.43,746.22c-1-36.17-17.43-69.38-44.32-95.82-37.76-37.17-96.22-61-161.84-61-113.79,0-206.11,71.81-206.11,160.47,0,1.18,0,2.36.05,3.53q.09,3.48.38,6.91a127.11,127.11,0,0,0,4.09,23.14q1.49,5.44,3.44,10.75c11.73,31.86,35.8,59.66,67.91,80.06a229.55,229.55,0,0,0,71.52,29.5h.1a255.75,255.75,0,0,0,41.41,6q8.51.56,17.21.56,9,0,17.84-.6c1.26-.08,2.51-.17,3.77-.27l2.07-.18c83.58-7.43,152-53.72,174.58-115.1a128.35,128.35,0,0,0,7.09-29.54q.69-5.74.82-11.59c0-1.06,0-2.13,0-3.2S1122.47,747.43,1122.43,746.22ZM833.56,803.45A11,11,0,0,1,830,805h0a8.56,8.56,0,0,1-2,.24c-5,0-9.6-4.09-13.37-11-5.64-10.4-9.4-27.18-9.73-46.29,0-.91,0-1.83,0-2.75,0-5,.24-9.91.69-14.57,0-.05,0-.11,0-.16,2.52-26,11.6-45.35,22.42-45.35,7.34,0,13.89,8.89,18.13,22.76a117.16,117.16,0,0,1,4.33,22.8s0,0,0,0c.44,4.64.68,9.48.68,14.48,0,.84,0,1.68,0,2.51s0,1.85-.07,2.76v0c-.6,18-4.29,33.79-9.68,43.73C839,798.44,836.38,801.62,833.56,803.45Zm192-80.93a.35.35,0,0,1,0,.06,143.72,143.72,0,0,1,2.5,27.29c0,.71,0,1.42,0,2.12,0,1.4,0,2.8-.11,4.17a0,0,0,0,1,0,0,0,0,0,0,1,0,0c-.6,15-3.3,28.35-7.34,38-3.53,8.45-8.08,14.06-13.14,15.44h0c-.17,0-.34.09-.52.12a9.19,9.19,0,0,1-1.89.2c-6,0-11.5-6-15.61-15.76-4.29-10.18-7.09-24.5-7.47-40.52,0-1.26-.05-2.53-.05-3.81a143.34,143.34,0,0,1,2.46-27l0-.13c3.82-19.56,11.62-33,20.64-33,7.63,0,14.36,9.6,18.55,24.41C1024.33,716.82,1025,719.6,1025.56,722.52Z"/><path class="cls-2" d="M1122.44,753.07c-.06-2.57-.21-5.14-.47-7.63a.13.13,0,0,1,0-.06c-6.83-75.77-86.67-136.51-187.26-143l-.5,0a1.73,1.73,0,0,0-1.05-.08c-5.56-.45-11.19-.6-16.9-.6-112.59,0-204.22,67.69-206,151.79,0,.85,0,1.71,0,2.56,0,2.38.06,4.76.2,7.14,0,.1,0,.2,0,.3v.15a118.19,118.19,0,0,0,3.67,22.27v0a76.46,76.46,0,0,0,2.48,8.34s0,0,0,0c11.94,35.27,40.09,65.67,78.14,86.46A238.71,238.71,0,0,0,857.55,904h.15a262.8,262.8,0,0,0,41.36,5.78c5.67.35,11.41.53,17.19.53q9,0,17.86-.57c1.26-.08,2.51-.17,3.77-.27l2.07-.18c85.62-7.32,155.36-53.86,176.22-115.1,0,0,0,0,0,0a118.05,118.05,0,0,0,5.78-27.56,101.6,101.6,0,0,0,.52-10.66C1122.48,755,1122.47,754,1122.44,753.07ZM987.72,794.18c-3.6-10.14-5.78-23.58-5.78-38.22,0-.76,0-1.52,0-2.28.3-19.16,4.35-35.94,10.34-45.84,3.61-6.15,8-9.68,12.77-9.68,12.23,0,22.17,23.78,23,53.83,0,1.31.06,2.63.06,4q0,1.66-.06,3.3v.45c-.32,13.18-2.42,25.2-5.72,34.47,0,0,0,0,0,0a46.71,46.71,0,0,1-6.58,13l0,0a17.76,17.76,0,0,1-6.29,5.45,10,10,0,0,1-4.35,1c-6.91,0-13.13-7.57-17.34-19.57C987.72,794.19,987.72,794.19,987.72,794.18Zm-175.37,0c-4.65-10.59-7.58-25.83-7.58-42.72,0-1.19,0-2.38.05-3.55.73-30.26,10.79-54.26,23.15-54.26,5.48,0,10.58,4.81,14.56,12.92,4.82,9.84,8.08,24.55,8.51,41.1,0,1.25.05,2.52.05,3.79,0,1.1,0,2.19,0,3.28v.37c-.4,15.43-3.23,29.25-7.55,39.07,0,0,0,0,0,0a49.75,49.75,0,0,1-2.51,5l0,0a26.09,26.09,0,0,1-6.24,7.55,11.53,11.53,0,0,1-6.76,2.48c-6.08,0-11.55-5.7-15.61-15.07C812.36,794.19,812.35,794.19,812.35,794.18Z"/><path class="cls-26" d="M852.21,754.7c0,34.83-10.88,63.07-24.29,63.07s-24.28-28.24-24.28-63.07,10.87-63.08,24.28-63.08S852.21,719.86,852.21,754.7Z"/><path class="cls-27" d="M851.06,755.28c0,27.6-8.62,50-19.25,50s-19.24-22.37-19.24-50,8.62-50,19.24-50S851.06,727.68,851.06,755.28Z"/><path class="cls-26" d="M1029.22,756c0,34.83-10.77,63.08-24.18,63.08S980.76,790.8,980.76,756s10.88-63.08,24.28-63.08S1029.22,721.13,1029.22,756Z"/><path class="cls-27" d="M1028.07,761.75c0,26.63-8.23,48.21-18.48,48.21S991,788.38,991,761.75s8.31-48.22,18.56-48.22S1028.07,735.12,1028.07,761.75Z"/><path class="cls-28" d="M1562.26,446.57a34.17,34.17,0,0,1-5.07,14c-7,11.78-21.68,23.8-48.66,48.31-9.78,8.84-17.56,15.9-23.8,21.56l-.12.12c-8.84,8.13-14.37,13.55-18.15,17.67-23.91,26-33.34,46.07-41.59,58.21a.42.42,0,0,1-.35.12c-6.83.94-13.55-1.54-19.91-5.78.12,6.25,0,12.61-.24,19-5.54-.12-11.07-2.24-16.38-5.65-13.19-8.49-24.62-24.75-31.81-35.82-1.77-2.71-3.18-5.07-4.36-6.95-7.3-12-25.09-44.19-25.21-100.74-.12-21.8,2.47-34.64,6.83-51.73v-.12c.35-1.29.71-2.59,1.06-4,2.36-9.19,5.07-19.68,8.13-33.46,1.65-7.07,3.3-15.09,4.95-24.28,12.25-63.86,22.27-116.88,6.36-124.89-7-3.42-24.74-1.53-78.82,59.15-2.48-2.59-4.95-5.19-7.54-7.66-7.66-7.66-15.56-14.85-23.57-21.56a892,892,0,0,1,92-71.17c23.8-16.14,41.83-26.62,58.92-21.21,28.63,9.2,37.35,58.44,42.06,84.48a180.67,180.67,0,0,1,3.06,34.88c14.49,14.61,27.1,26.51,36.88,35.58,36.17,33.47,59.27,50.78,75.76,85.66C1559.55,424.77,1563.91,434.2,1562.26,446.57Z"/><path class="cls-1" d="M1582.17,422.18c-1.77,13.43-8.84,22.74-25,38.41-7.66,7.54-17.44,16.5-29.69,28-24.16,22.86-36.29,34.29-42.77,41.83l-.12.12c-39.83,45.13-40.3,73.29-59.74,75.88a.42.42,0,0,1-.35.12c-6.83.94-13.55-1.54-19.91-5.78-16.73-11.31-30.75-35.35-36.88-45.6-1.42-2.35-3.18-5.53-5.19-9.54-.7-1.3-1.29-2.71-2-4.12a171.88,171.88,0,0,1-7.89-20.5c-.59-1.77-1.18-3.77-1.77-5.78s-1.06-4.12-1.65-6.24-1.06-4.36-1.53-6.6-.94-4.71-1.42-7.07-.82-5-1.29-7.54c-.83-5.07-1.42-10.49-1.89-16.14v-.24c-.23-2.36-.47-4.83-.47-7.3a41.14,41.14,0,0,1-.35-5.3c-.12-3.54-.24-7.19-.24-11v-1.53c0-4.36.12-8.49.36-12.26a41.72,41.72,0,0,1,.35-5.54c.24-2.47.47-5,.71-7.3a233.11,233.11,0,0,1,5.53-28.52v-.11c3.77-15.67,8.72-34.52,14.38-65.75,12.49-68.1,22.74-124.42,6.6-133-8-4.13-29.81-.94-102.39,89.78-7.66-7.66-15.56-14.85-23.57-21.56-4.36-3.65-8.72-7.31-13.08-10.72,46.9-46.31,88.84-79.06,120.77-101.45,24.16-17.09,42.66-28.4,60-22.51,29.22,9.79,38.17,62.22,42.88,90a205.17,205.17,0,0,1,3.19,37c14.72,15.67,27.57,28.4,37.58,38.06,36.76,35.58,60.33,54.08,77.18,91.19C1579.46,399,1583.82,409,1582.17,422.18Z"/><path class="cls-29" d="M466.38,478.74c-3.54,12.25-6.6,25.09-9.08,38.41A136.76,136.76,0,0,1,441.87,505c-.95-.71-1.77-1.53-2.71-2.35a188.23,188.23,0,0,1-18-18.5c.24-1,.47-2,.71-3s.35-1.77.59-2.71c.35-1.53.59-2.71.59-2.71,3.06-14.37,5.53-28.75,7.77-42.53,6.25,7.3,12.61,15.08,19,23.21.24.35.47.59.71.94C456.12,464.6,461.31,471.78,466.38,478.74Z"/><path class="cls-11" d="M559.34,309.78c-2.83,3.3-5.77,6.71-8.72,10.37a454.39,454.39,0,0,0-40.53,57.49,428.59,428.59,0,0,0-43.71,101.1c-5.07-7-10.26-14.14-15.91-21.33-.24-.35-.47-.59-.71-.94-6.36-8.13-12.72-15.91-19-23.21a1121.7,1121.7,0,0,0,12.61-123.6c1.41-45.48-.71-83.54,15-89,2.83-.94,5.9-.82,10,1.06a13.82,13.82,0,0,1,1.88,1,74,74,0,0,1,10.14,7.06c6.36,5.07,14.49,12.49,25.21,23l.59.59,5.18,5.18c2,1.89,4,4,6.13,6.13C529.88,277.26,544,292.34,559.34,309.78Z"/><path class="cls-29" d="M470.26,222.71a74,74,0,0,1,10.14,7.06c-4.24,16.85-8.61,51-12.38,116.06C463,382.36,457,419.47,450.47,457.41c-.24-.35-.47-.59-.71-.94-6.36-8.13-12.72-15.91-19-23.21a1121.7,1121.7,0,0,0,12.61-123.6c1.41-45.48-.71-83.54,15-89,2.83-.94,5.9-.82,10,1.06A13.82,13.82,0,0,1,470.26,222.71Z"/><path class="cls-30" d="M617.19,253.69c-3.18,2.6-6.36,5.19-9.43,8-5.18,4.36-10.36,9.08-15.55,13.91-4,3.77-9.42,8.95-15.79,15.55-5.06,5.3-10.84,11.43-17.08,18.62-15.32-17.44-29.46-32.52-41.83-45.13-2.12-2.12-4.12-4.24-6.13-6.13l-5.18-5.18-.59-.59c-10.72-10.49-18.85-17.91-25.21-23a74,74,0,0,0-10.14-7.06c-.7-.36-1.29-.71-1.88-1-4.12-1.88-7.19-2-10-1.06-15.67,5.42-13.55,43.48-15,89a1121.7,1121.7,0,0,1-12.61,123.6c-2.24,13.78-4.71,28.16-7.77,42.53,0,0-.24,1.18-.59,2.71-.24.94-.36,1.88-.59,2.71s-.47,2-.71,3c-6.24,27.1-54.55,144.92-82.95,154.58a9.07,9.07,0,0,1-4.95.47c-.35,0-.7-.12-1.06-.12-7.54-2-4-12.37-16.37-47.48-5.31-15-12.73-31-21.1-47-.47-.94-1.06-2-1.64-3.06-6.6-12.85-13.67-25.69-20.5-38.06l-.12-.12c-1.3-2.47-2.59-4.83-3.89-7.19-16.5-30.4-20.27-36.05-19.21-47.13,1.42-15.67,10.84-23.21,41.83-59,21.09-24.15,31.46-36.4,39.59-48.18,11-15.91,24.74-40.77,33.34-77.18,2.12-36.53,3.3-55,10.61-69.75,1.06-1.77,24-46.19,66.57-51.49,22.5-2.71,41.12,6.48,66.45,22.5C536.48,184.18,575.13,212.1,617.19,253.69Z"/><path class="cls-1" d="M624.26,248c-5.07,5-10.13,9.78-15.2,14.72L578,292.81a19.18,19.18,0,0,0-1.53-1.65,349.93,349.93,0,0,0-34.28-35.46c-37.83-34.17-72.11-65.16-92.61-56.8-26.16,10.73-8,76.83-30.76,217.15-2.82,17.32-5.65,31.93-7.89,42.66,0,0-.83,4.24-1.77,8.36-4.36,18.27-41.94,156.59-71.16,170.85a10.23,10.23,0,0,1-4.72,1.29c-.35,0-.7-.12-1.06-.12-8.6-.94-6.48-14-28.39-64.56-23.8-54.91-38.88-80.12-47.25-95.44-16.49-30.52-20.27-36-19.2-47.25,1.41-15.55,10.72-23.09,41.7-58.91,21.1-24.27,31.58-36.41,39.71-48.31,10.84-15.79,24.75-40.65,33.35-77.17.49-8.4,1.22-19.71,2.36-34.69.91-12,1.85-22.93,8.24-35.06l.23-.44c2.67-5,25.47-46,66.22-50.94,22.15-2.82,40.89,6.25,66.57,22.51C528.82,169.8,573.83,201.61,624.26,248Z"/><path class="cls-10" d="M467,332.1c5.38,4.72,10.77,9.67,16.15,15a332,332,0,0,1,27,30.44"/><path class="cls-31" d="M1457.71,254.41c.11,12-.22,23,2.2,40.22a252.9,252.9,0,0,0,30,87.91Z"/><g class="cls-32"><path class="cls-2" d="M352.77,247.47a337.16,337.16,0,0,1-9.15,79.67,195.88,195.88,0,0,1-35.24,71.62l-.08-.06q6-8.07,11.13-16.69a204.62,204.62,0,0,0,27.33-74.71,401.39,401.39,0,0,0,6-59.83Z"/></g></svg>