<svg id="Layer_1" data-name="Layer 1" xmlns="http://www.w3.org/2000/svg" viewBox="0 0 293.04 264.15"><defs><style>.cls-1{fill:#e5cfe5;}.cls-17,.cls-2,.cls-24,.cls-31,.cls-7{fill:#9b5aa4;}.cls-3{fill:none;}.cls-4{fill:#d9afd2;}.cls-5{fill:#d9b5d5;}.cls-6{fill:#8b3f98;}.cls-7{opacity:0.5;}.cls-8{fill:#cda1ca;}.cls-9{fill:#8a5593;}.cls-10{fill:#a665aa;}.cls-11{opacity:0.23;}.cls-12{fill:#853293;}.cls-13{fill:#722a81;}.cls-14{fill:#f5efe1;}.cls-14,.cls-15,.cls-18,.cls-19,.cls-20,.cls-21{fill-rule:evenodd;}.cls-15,.cls-16{fill:#5e8a6d;}.cls-17{opacity:0.26;}.cls-18{fill:#f7b84a;}.cls-19{fill:#fbce55;}.cls-20{fill:#f9c42f;}.cls-21{fill:#fbde94;}.cls-22{fill:#50225b;}.cls-23{fill:#543152;}.cls-24{opacity:0.27;}.cls-25{fill:#aa6eae;}.cls-26{fill:#663670;}.cls-27{fill:#773b85;}.cls-28,.cls-29{fill:#90569a;}.cls-28,.cls-31{opacity:0.56;}.cls-30{fill:#b57fb4;opacity:0.87;}.cls-32{opacity:0.51;}.cls-33,.cls-34{fill:#94a4a4;}.cls-34{stroke:#94a4a3;stroke-miterlimit:10;}.cls-35{fill:#7b898a;}.cls-36{fill:#7a8d8d;}.cls-37{fill:#7c8a8b;}.cls-38{fill:#7c878d;}</style></defs><path class="cls-1" d="M225.19,174.4a15.94,15.94,0,0,1-8.3-4.6c-2.29-2.51-3-5.32-4.47-10.84-.19-.72-.37-1.5-.56-2.33a82.45,82.45,0,0,1-1.77-11.57,28.25,28.25,0,0,1,4.09,3.47,27.54,27.54,0,0,1,3.88,5.05l0,.06a.64.64,0,0,1,.08.14l0,.06c.13.23.26.47.41.76.06.09.1.19.16.3.14.27.3.57.48.94l0,0c.23.47.47,1,.7,1.43.55,1.16,1.07,2.35,1.57,3.61.18.47.37.95.54,1.44s.39,1.09.57,1.64.34,1.05.5,1.6c0,0,0,.06,0,.08.21.73.42,1.49.62,2.24.09.34.16.66.24,1s.14.66.22,1C224.54,171.1,224.87,172.64,225.19,174.4Z"/><path class="cls-2" d="M210.26,136.9c-.88,1.61-7.76,14.17-20.33,15.95,0-.29,0-.58-.05-.88s0-.61,0-.92c0-1.56,0-3.25,0-5,0-.5.06-1,.09-1.49.13-1.45.29-2.84.47-4.13.49-.29,1-.58,1.42-.88,15.57-10.24,19.09-28,19.85-37.07a47.27,47.27,0,0,1,2.42,12.14C214.43,118.67,215.06,127.81,210.26,136.9Z"/><path class="cls-3" d="M89.33,182.85A115,115,0,0,0,81,165.06c.28,4.5-2.23,9.44-6.5,12.34a13.41,13.41,0,0,1-14,.92,106.13,106.13,0,0,1,10.68,18.21l.07-.06c2.85-2.17,6.34-1.37,7.5,1.86q3.69-2.93,7.62-6A9,9,0,0,1,89.33,182.85Z"/><path class="cls-4" d="M204,171.11a167.58,167.58,0,0,1-28,3A167.82,167.82,0,0,1,143,171.6a55.59,55.59,0,0,0,1.82-8c.15-1,.26-1.9.34-2.8a95.14,95.14,0,0,0,22.83,4A96,96,0,0,0,203,160c.08.49.16,1,.23,1.51A76.6,76.6,0,0,1,204,171.11Z"/><path class="cls-5" d="M213.72,174.81a36.36,36.36,0,0,0-5-10.44,18.58,18.58,0,0,0,1.67-7.1,13,13,0,0,0-1.27-6.15,13.47,13.47,0,0,0-2.4-3.41h0a1.9,1.9,0,0,0-.19-.21L201,151.13c-2.47.38-5,.71-7.73,1h0c-1.08.12-2.17.21-3.31.3h0c-.89.07-1.79.14-2.71.19h0c-3.56.22-7.28.32-11.14.27h-.19a154,154,0,0,1-33.72-4.16q-.15.25-.33.51c-.11.17-.22.36-.32.54-.22.35-.43.72-.64,1.09s-.38.67-.56,1l-.07.12h0c-.23.41-.46.84-.69,1.27s-.44.9-.66,1.35-.44.92-.65,1.39-.44.94-.63,1.43c-.08.18-.15.38-.23.56s-.25.62-.38.94c-.19.48-.38,1-.55,1.47a1.8,1.8,0,0,0-.08.21c-.14.39-.27.79-.4,1.19-.09.24-.16.48-.23.72s-.22.68-.32,1c-.06.19-.11.39-.16.58-.14.46-.26.92-.38,1.39s-.26,1.06-.39,1.61l0,.15a.4.4,0,0,0,0,.15l0,0c-.12.56-.24,1.14-.34,1.71s-.21,1.13-.3,1.7l-.07.48c0,.11,0,.21,0,.31q-.11.69-.18,1.38c-.06.51-.13,1.12-.21,1.78h0c-.08.67-.15,1.4-.21,2.18-.09,1.05-.16,2.19-.19,3.41,0,.62,0,1.25,0,1.9,0,.47,0,.95,0,1.43,0,.28,0,.57,0,.87s0,.59,0,.9,0,.73.08,1.1,0,.68.09,1c.09.8.19,1.61.32,2.42.07.37.14.75.2,1.11s.08.44.13.65c.13.6.26,1.2.42,1.8.1.37.2.74.32,1.1a.45.45,0,0,0,0,.11,6,6,0,0,0,.2.65c.12.36.24.73.38,1.08s.34.9.54,1.33.33.78.53,1.17.37.79.59,1.17.41.75.64,1.12.48.75.73,1.12.32.46.51.69c.37.53.8,1.06,1.24,1.58.16.19.34.39.51.57a5.94,5.94,0,0,0,.49.52,4.7,4.7,0,0,0,.44.45,8.56,8.56,0,0,0,.68.67,32,32,0,0,0,3.86,3.14c.43.3.87.6,1.31.88s.9.56,1.36.83l.13.08,1.24.7.2.1c.71.37,1.42.73,2.16,1.07s1.48.67,2.24,1c.55.23,1.1.43,1.66.64s1.09.4,1.64.58l1.3.43,1.32.39,1.32.36,1.11.29,1.62.36,1.37.29c1.39.28,2.79.5,4.21.69s2.85.34,4.28.44c.72.06,1.45.11,2.17.14s1.44.06,2.17.07h1.55A59.48,59.48,0,0,0,193,218.3l.11,0a.33.33,0,0,0,.13,0,33.13,33.13,0,0,0,9.63-4.46C214.1,205.84,217.68,188.26,213.72,174.81ZM143,171.6a55.59,55.59,0,0,0,1.82-8c.15-1,.26-1.9.34-2.8a95.14,95.14,0,0,0,22.83,4A96,96,0,0,0,203,160c.08.49.16,1,.23,1.51a76.6,76.6,0,0,1,.72,9.56,167.58,167.58,0,0,1-28,3A167.82,167.82,0,0,1,143,171.6Z"/><path class="cls-6" d="M161.82,239.12l-.17.15a7.49,7.49,0,0,1-.68.6c-.47.44-.95.85-1.45,1.26-5.1,4.15-10.32,8.39-16.06,7.49-4.71-.73-7.72-4.64-11.35-11l-.4-.72-.08-.13.37.08c.69.14,1.41.3,2.14.44,2.48.49,5.11.93,7.88,1.26a107.79,107.79,0,0,0,16.88.69c.8,0,1.58-.07,2.35-.12Z"/><path class="cls-6" d="M226.3,238.88c-3.43,5.3-6.54,9.15-11.15,10-5.55,1.06-12-2.35-17.87-9a94.37,94.37,0,0,0,29-1Z"/><path class="cls-1" d="M267.55,200.32,244.5,211.1a25.64,25.64,0,0,0-6.57-8.07.18.18,0,0,1,0,.1v0a72.24,72.24,0,0,1-9.49,32.32c-.55.94-1.11,1.86-1.71,2.74l-.41.64v0A94.54,94.54,0,0,1,209,240.54a91.15,91.15,0,0,1-11.69-.69c-.21-.24-.43-.48-.62-.73a62.13,62.13,0,0,1-7.72-11.89c-5.89-.09-11.76-.19-17.66-.27a47.74,47.74,0,0,1-8.82,11.55l-.64.61a105,105,0,0,1-19.8-.54c-3.73-.45-7.22-1.07-10.39-1.77-.13-.24-.26-.48-.4-.72-.7-1.27-1.44-2.61-2.21-4a90.6,90.6,0,0,1-8.05-20.5v0a84,84,0,0,1-1.84-9.45,88.1,88.1,0,0,1-.26-21.12l-.91-.11a68,68,0,0,1-21.57-6.32l-1.39-.7q.47-9,.6-18.49c.07-3.76.07-7.48.06-11.14a104.9,104.9,0,0,0,20,3.85c1.68.15,3.61.26,5.72.29a88.22,88.22,0,0,0,10.14-.42c1.59-.17,3.26-.38,5-.68,1.77.49,3.63,1,5.61,1.47-.11.16-.22.34-.32.51s-.22.36-.32.54c-.22.35-.43.72-.64,1.09s-.39.67-.58,1a.47.47,0,0,0-.07.12c-.23.42-.46.85-.68,1.28s-.44.9-.66,1.35-.45.92-.65,1.39-.44.94-.63,1.43c-.09.18-.16.37-.24.55s-.25.63-.37.95c-.19.48-.38,1-.55,1.47a1.8,1.8,0,0,0-.08.21c-.14.39-.27.79-.4,1.19-.09.24-.16.48-.23.72s-.22.68-.32,1c-.06.19-.11.39-.16.58-.14.46-.26.92-.38,1.39s-.27,1.06-.39,1.61l0,.15a.4.4,0,0,0,0,.15l0,0c-.12.56-.24,1.14-.34,1.71s-.21,1.12-.3,1.7l-.07.48c0,.11,0,.21,0,.31-.08.45-.14.91-.2,1.38s-.12,1.12-.19,1.78h0c-.08.67-.15,1.4-.21,2.18-.09,1.05-.16,2.19-.19,3.41,0,.62,0,1.25,0,1.9,0,.47,0,.95,0,1.43,0,.28,0,.57,0,.87s0,.59,0,.9,0,.73.08,1.1,0,.68.09,1c.09.8.19,1.61.32,2.42.07.37.14.75.2,1.11s.08.44.13.65c.13.6.26,1.2.42,1.8.1.37.2.74.32,1.1a.45.45,0,0,0,0,.11,6,6,0,0,0,.2.65c.12.36.24.73.38,1.08s.34.9.54,1.33.33.78.53,1.17.37.79.59,1.17.41.75.64,1.12.48.75.73,1.12.32.46.51.69c.37.53.8,1.06,1.24,1.58a6.72,6.72,0,0,0,.51.57,5.94,5.94,0,0,0,.49.52,4.7,4.7,0,0,0,.44.45,8.56,8.56,0,0,0,.68.67,32,32,0,0,0,3.86,3.14c.43.3.87.6,1.31.88s.9.56,1.36.83l.13.08,1.24.7.2.1c.71.37,1.42.73,2.16,1.07s1.48.67,2.24,1c.55.23,1.1.43,1.66.64s1.09.4,1.64.58l1.3.43,1.32.39,1.32.36,1.11.29,1.62.36,1.37.29c1.4.26,2.79.49,4.21.69s2.85.34,4.28.44c.72.06,1.45.11,2.17.14s1.44.06,2.17.07h1.55A73.94,73.94,0,0,0,193,218.3l.11,0a.33.33,0,0,0,.13,0c12.6-2.26,23.69-7.9,29-16.91,5.19-8.81,4.21-19.82,2.95-26.93-.32-1.76-.65-3.3-.91-4.49-.08-.33-.14-.66-.22-1s-.15-.65-.24-1c-.2-.75-.41-1.51-.62-2.24,0,0,0-.06,0-.08-.16-.55-.33-1.08-.5-1.6s-.38-1.1-.57-1.64-.36-1-.54-1.44c-.5-1.26-1-2.45-1.57-3.61-.23-.48-.47-1-.7-1.43l0,0c-.18-.37-.34-.67-.48-.94-.06-.11-.1-.21-.16-.3-.15-.29-.28-.53-.41-.76l0-.06a.64.64,0,0,0-.08-.14l0-.06a27.54,27.54,0,0,0-3.88-5.05,28.25,28.25,0,0,0-4.09-3.47c.67-.57,1.38-1.18,2.11-1.85a34,34,0,0,0,7.42,4.9c1,.47,1.7.75,2.4,1l.69.3A78,78,0,0,1,233,155C254.52,168.87,263.8,189.85,267.55,200.32Z"/><path class="cls-6" d="M95.6,155.35c-.07,4.78-.18,8.37-.21,9.38q-.15,4.62-.38,9.1a37.42,37.42,0,0,1-12.45-8.09c-1.65-1.64-5.31-5.28-4.37-7.11,1.24-2.4,9.56.06,10.48-2.35a1.84,1.84,0,0,0-.22-1.48q-2.27-5.55-4.55-11.1a25.67,25.67,0,0,1,6.21-.43,25,25,0,0,1,5.55.93C95.68,148.5,95.65,152.26,95.6,155.35Z"/><path class="cls-6" d="M244.14,210.54l23.29-10.21c3.38,11.52,3,15.47,1.41,16.24-2.39,1.17-7.13-4.9-10.34-3.44s-1.3,8.54-3.47,9.31C253.54,223,250.45,220.44,244.14,210.54Z"/><path class="cls-7" d="M233.2,86.76a24,24,0,0,1-1.76-3.68,35.21,35.21,0,0,1-2.15-12.69,31.65,31.65,0,0,1,.16-3.56v0a34.77,34.77,0,0,1,.89-4.82h0c-.32-.6-.64-1.17-1-1.71-.44-.74-.85-1.44-1.26-2.1-1-1.67-2-3.12-2.85-4.26s-1.42-1.89-1.89-2.48a68.61,68.61,0,0,0-5.46-6.07,64.67,64.67,0,0,0-5.58-4.92c-20.19-15.9-44-15.92-48-15.86-7.6.11-27.74,1.58-45.59,16.21-1.3,1-2.54,2.17-3.8,3.35a71.17,71.17,0,0,0-12.52,15.55,65.33,65.33,0,0,0-6.68,15.41c-.53,1.87-1,3.83-1.37,5.86-.11.63-.22,1.3-.33,2q-.45,2.94-.61,5.76C94.91,114.52,112,132.43,115,135.41a69.83,69.83,0,0,0,9,7.7,77.29,77.29,0,0,0,7.55,4.81,88.22,88.22,0,0,1-10.14.42c.87.69,1.73,1.33,2.59,2a74.28,74.28,0,0,0,11.67,6.91l1.7.78h0c2.31.93,4.94,1.89,7.87,2.78a95.14,95.14,0,0,0,22.83,4A96,96,0,0,0,203,160c2.69-.9,5.16-1.83,7.38-2.77l1.48-.64a21.6,21.6,0,0,0,6.28-2.92,20.57,20.57,0,0,0,2.3-1.82,21.74,21.74,0,0,0,2.27-2.45l-.69-.3c-.81-.38-1.62-.71-2.4-1a34,34,0,0,1-7.42-4.9c.67-.6,1.36-1.26,2.08-2l0,0a84.17,84.17,0,0,0,11.1-13.46c0-.35,0-.67,0-1,.31-.4.61-.82.94-1.28a67.81,67.81,0,0,0,6.06-10.22l6.15-21.8C236.11,91.69,234.09,88.26,233.2,86.76ZM133.28,116c.08-.43.17-.86.27-1.27a22.56,22.56,0,0,1,4.25-8.54C143.59,98.82,154,93.9,165.93,93.9c11.6,0,21.81,4.66,27.67,11.71a24.71,24.71,0,0,1,2.13,3,21.61,21.61,0,0,1,2.9,7.44,21.18,21.18,0,0,1,.32,3.58c0,9.54-6.7,17.88-16.63,22.29l-.06,0,0,0A38.33,38.33,0,0,1,171,145a.31.31,0,0,1-.13,0,44.46,44.46,0,0,1-4.94.28,41.33,41.33,0,0,1-9.37-1.06h0c-13.63-3.16-23.57-13-23.57-24.63A19.3,19.3,0,0,1,133.28,116Zm59.88-40.42c0-.27.05-.54.09-.81.75-5.58,3.41-11.53,5.7-11.44a2.68,2.68,0,0,1,1.84,1.36c.25.4.43.75.49.87.68,1.45.47,2.89-.22,5.37h0c-.07.31-.16.65-.26,1-1.64,5.74-2.46,7.8-2,8.11.76.47,3.62-4.39,5.13-3.81a.72.72,0,0,1,.29.21c1.15,1.16.68,6.34-1.12,10.56-.92,2.13-2.51,5.84-4.46,5.78C195.58,92.7,192.32,83.71,193.16,75.58Zm-66,0,.09-.81c.76-5.58,3.39-11.53,5.69-11.44a2.61,2.61,0,0,1,1.83,1.35,4.8,4.8,0,0,1,.5.88c.69,1.45.46,2.89-.23,5.37l-.28,1c-1.64,5.74-2.46,7.8-2,8.11.75.47,3.61-4.39,5.14-3.81a.66.66,0,0,1,.27.21c1.17,1.16.68,6.34-1.12,10.56-.89,2.13-2.5,5.84-4.45,5.78C129.61,92.7,126.34,83.71,127.19,75.58Zm79.52,72.13h0a5.64,5.64,0,0,1-.55.39,4.93,4.93,0,0,1-.49.34c-.6.43-1,.69-1.24.83a.36.36,0,0,0-.13.08l-.05,0c-1.08.63-2.16,1.22-3.25,1.76q4.58-3,9.11-6.07C208.78,146.15,207.63,147,206.71,147.71Zm10.54-25v0c0-.35-.06-.66-.07-.94a44.33,44.33,0,0,0-1.18-7.24,0,0,0,0,0,0,0s0,0,0,0a44.34,44.34,0,0,0-3.33-8.94c-.27-.54-.53-1-.77-1.46,0,.25,0,1,0,2v.06c-.15,6.92-2.09,28.76-20,40.53-.63.42-1.25.79-1.88,1.16h0l-.13.09a46.11,46.11,0,0,1-4.22,2.11h0l-.23.09a41.32,41.32,0,0,1-5.87,2c-1.2.32-2.37.56-3.48.75h0a47.65,47.65,0,0,1-7.92.7,32.4,32.4,0,0,0,6.84,4.15h0l12.21-5.12h0l2.67-1.12,13.66-5.7h0l0,0h0l10.71-4.49,0,0A37,37,0,0,0,217.25,122.75Z"/><path class="cls-8" d="M138.22,76.44a20.81,20.81,0,0,1-1.12,3.37c-.89,2.14-2.49,5.84-4.45,5.79-2.24-.06-4.62-5-5.37-10.83a28.92,28.92,0,0,1-.09-6.38c.59-5.8,3.38-12.34,5.78-12.25,1.28.06,2.19,1.91,2.34,2.23.77,1.62.38,3.25-.5,6.3a.64.64,0,0,1,0,.07c-1.64,5.75-2.46,7.82-2,8.12s1.28-.86,2.27-1.94,2.1-2.17,2.87-1.86C139.08,69.49,139.13,72.85,138.22,76.44Z"/><path class="cls-8" d="M204.21,76.44a21.78,21.78,0,0,1-1.11,3.37c-.92,2.14-2.52,5.84-4.48,5.79-2.24-.06-4.61-5-5.37-10.83a29.55,29.55,0,0,1-.09-6.38c.6-5.8,3.4-12.34,5.79-12.25,1.25.06,2.19,1.91,2.33,2.23.77,1.62.4,3.25-.48,6.32,0,0,0,0,0,0-1.64,5.75-2.46,7.82-2,8.12s1.27-.84,2.26-1.92l0,0c1-1.07,2.1-2.17,2.85-1.86C205.07,69.49,205.11,72.86,204.21,76.44Z"/><path class="cls-9" d="M211.79,134.86c-.94,1.53-8.28,13.46-21.72,15.13,11.94-1.68,18.46-13.6,19.3-15.13,4.55-8.63,3.95-17.3,3.68-21.17a45,45,0,0,0-2.3-11.53,44.59,44.59,0,0,0,.17-5.25,41.54,41.54,0,0,1,5,16.78C216.24,117.56,216.9,126.23,211.79,134.86Z"/><path class="cls-3" d="M212.34,33.24c-.67.65-1.34,1.32-2,2"/><path class="cls-10" d="M232.54,44.75c-.87,4.76-1.62,7.64-2.2,10-.32-.6-.64-1.17-1-1.73a74.77,74.77,0,0,0-4.09-6.34c-.76-1.06-1.42-1.88-1.89-2.48q-2.1-2.61-4.31-4.9c-.38-.4-.75-.79-1.15-1.17C229,24.33,232.32,23.85,233.54,24.47,236,25.79,234.44,34.37,232.54,44.75Z"/><path class="cls-3" d="M225.27,46.71a21.64,21.64,0,0,0,2.53-3.27A23.42,23.42,0,0,0,229.6,40"/><path class="cls-3" d="M131.63,236.8l-.33-.07"/><g class="cls-11"><path class="cls-12" d="M123.75,165.89A72.65,72.65,0,0,0,118.88,181h0l.22-2c.11-.66.23-1.31.36-2,.27-1.3.65-2.58,1-3.86s.88-2.51,1.43-3.73c.28-.6.56-1.2.85-1.8s.65-1.16,1-1.74Z"/></g><g class="cls-11"><path class="cls-12" d="M165.33,226.61l3.69-.06c1.22,0,2.45,0,3.68,0,2.46,0,4.91,0,7.37,0s4.91.11,7.36.22c1.23.08,2.46.09,3.68.11l3.69.14v0c-2.45,0-4.91.14-7.37.09l-7.37-.11-7.37-.12c-2.46,0-4.91-.18-7.37-.27Z"/></g><path class="cls-13" d="M235.15,222.5a91.68,91.68,0,0,1-5.64,12.7c-.64,1.2-1.25,2.29-1.84,3.28l-1-.25a54.4,54.4,0,0,0-30.05.89l-1,.34a37.13,37.13,0,0,1-4.43-5.66,38.27,38.27,0,0,1-2.85-5.47c-2.55.18-5.33.28-8.32.24s-5.55-.23-8-.48a35.83,35.83,0,0,1-3.89,5.95,35.23,35.23,0,0,1-4.75,4.83l-.92-.36a55.83,55.83,0,0,0-15.5-3.44,55,55,0,0,0-15.73,1l-1.16.25a114,114,0,0,1-9.1-24.79v0c-.72-3-1.34-6.14-1.84-9.45A112.36,112.36,0,0,1,118,180.85c0-1.13.11-2.22.17-3.27.55-.08,1.07-.16,1.57-.26,7.57-1.46,10.75-5.24,11.69-6.5,2.55-3.41,3.49-8,4.24-13.61.17-1.18.32-2.42.48-3.7s.27-2.39.34-3.12l3.81,1.48h0l5.16,2h0a54.14,54.14,0,0,1-.23,6.9c-.08.9-.19,1.84-.34,2.8a55.59,55.59,0,0,1-1.82,8A167.82,167.82,0,0,0,176,174.1a167.58,167.58,0,0,0,28-3,76.6,76.6,0,0,0-.72-9.56c-.07-.52-.15-1-.23-1.51a75.82,75.82,0,0,0-2-8.91q4.58-3,9.11-6.07c0,.6.11,1.2.16,1.77s.12,1,.18,1.53.13,1.09.21,1.64.14.94.21,1.4.16,1,.24,1.42.16.9.25,1.33c.17.89.34,1.7.52,2.48s.37,1.61.56,2.33c1.43,5.52,2.18,8.33,4.47,10.84a15.94,15.94,0,0,0,8.3,4.6,21.12,21.12,0,0,0,3.4.51h0l.09.15c.2.3.39.6.58.9s.39.6.59.92a57.07,57.07,0,0,1,7,17.47c.11.55.22,1.1.32,1.66.06.37.13.75.18,1.13s.09.62.14.93c.24,1.81.38,3.5.43,5.06v0A58.73,58.73,0,0,1,235.15,222.5Z"/><g class="cls-11"><path class="cls-12" d="M225.43,170.54a29.63,29.63,0,0,1,6.25,6.59,38.63,38.63,0,0,1,2.41,3.88c.71,1.36,1.34,2.75,1.91,4.16a37.85,37.85,0,0,1,2.24,8.87,29.11,29.11,0,0,1-.22,9.08h-.2a53.28,53.28,0,0,0-3.68-17.23,55.13,55.13,0,0,0-8.87-15.23Z"/></g><path class="cls-14" d="M191.6,207.07l2.55-.3-1.87.18c1.28-5.37,8.65-18.21,10.62-23.46a36.18,36.18,0,0,0-3.4-2.65c-.9,1.3-3.9,11.52-4.27,12.79C194,198.05,192.72,202.48,191.6,207.07Z"/><path class="cls-14" d="M164.3,202.77c7.56,1.7,15.91,4.84,24.06,4.43,1.73-10.29,7-23.15,9.62-32.65-2.75-2.7-4.93-.86-6.91-8.13-5.13-1-12.29-2.68-17.5-2.64-.68.31-.42,1.9-3.6,3.79-1.87,1.11-3.16,1.11-5.29,1.8Z"/><path class="cls-15" d="M161.19,202.13l3.11.64.38-33.4c2.13-.69,3.42-.69,5.29-1.8,3.18-1.89,2.92-3.48,3.6-3.79,5.21,0,12.37,1.65,17.5,2.64,2,7.27,4.16,5.43,6.91,8.13-2.62,9.5-7.89,22.36-9.62,32.65l3.24-.13c1.12-4.59,2.36-9,3.63-13.44.37-1.27,3.37-11.49,4.27-12.79a36.18,36.18,0,0,1,3.4,2.65c-2,5.25-9.34,18.09-10.62,23.46l1.87-.18,1.61-.08,1.83-4.25c2.33-6.31,11.82-23.48,12.5-26.21l-7.79-3.55,1.95-6.32c-4.12-2.77-36.64-8.1-42.4-6.67C161.29,173.87,161.57,188,161.19,202.13Z"/><circle class="cls-16" cx="177.78" cy="195.16" r="13.17"/><path class="cls-17" d="M168.88,235.25a2.07,2.07,0,0,1-.78,1.21c-.66.45-1,.3-1.62.76-.83.64-.62,1.51-1,2.06-.58.72-2,.49-3.79,0a7.49,7.49,0,0,1-.68.6c-.65-.18-1.35-.38-2.07-.6-.51-.15-1-.29-1.58-.43-1.9-.48-4.82-.69-10.68-1.14-2.5-.19-4.08-.25-7.25-.37a50.67,50.67,0,0,0-5.25,0,9.5,9.5,0,0,0-1.78.28l-.25.05-.4-.72a17.41,17.41,0,0,0-2.14.48,2,2,0,0,1-1.18.19,2.09,2.09,0,0,1-1.32-1.51.35.35,0,0,0,0-.06,1.68,1.68,0,0,0,0-.94,1.31,1.31,0,0,0-.06-1c-.25-.46-.65-.35-1-.78a1.38,1.38,0,0,1-.3-.7h0a2.9,2.9,0,0,1,.18-.73c.72-2,5.17-2.15,6.79-2.21,9.24-.32,16,.16,16,.16a77.43,77.43,0,0,1,18.19,3.78C167.5,233.88,168.66,234.36,168.88,235.25Z"/><path class="cls-2" d="M168.88,235.25a2.07,2.07,0,0,1-.78,1.21c-.66.45-1,.3-1.62.76-.83.64-.62,1.51-1,2.06-.58.72-2,.49-3.79,0-.13,0-.27-.07-.4-.12-1.19-.33-2.53-.76-3.93-1.11-1.9-.48-4.82-.69-10.68-1.14-2.5-.2-4.08-.25-7.25-.37-3.39-.12-5.51-.13-7,.27l-.36.08-.29.05a17.41,17.41,0,0,0-2.14.48,2,2,0,0,1-1.18.19,2.09,2.09,0,0,1-1.32-1.51.35.35,0,0,0,0-.06,2.05,2.05,0,0,1,0-.94,1.31,1.31,0,0,0-.06-1c-.25-.46-.65-.35-1-.78a1.38,1.38,0,0,1-.3-.7h0a3.45,3.45,0,0,1,.18-1.53c.72-2,5.17-2.15,6.79-2.21,9.24-.32,16,.16,16,.16a77.43,77.43,0,0,1,18.19,3.78c.65.24,1.86.73,2,1.67A1.64,1.64,0,0,1,168.88,235.25Z"/><path class="cls-17" d="M189.6,234.84a2.12,2.12,0,0,0,.72,1.25c.64.48,1,.35,1.59.84.77.64.42,1.49.94,2.1s1.38.84,3.87.16c.08.11.18.22.27.33s.19.22.29.32l2.1-.5c.52-.13,1.05-.24,1.59-.35,1.93-.39,4.85-.46,10.72-.63,2.52-.07,4.1-.05,7.27,0a49.19,49.19,0,0,1,5.25.25A8.27,8.27,0,0,1,226,239l.24.07c.14-.24.29-.46.44-.71a16.9,16.9,0,0,1,2.11.59,2,2,0,0,0,1.17.24,2.05,2.05,0,0,0,1.39-1.45.43.43,0,0,1,0-.05,1.66,1.66,0,0,1,0-.94,1.22,1.22,0,0,1,.1-.95c.27-.44.67-.32,1-.73a1.32,1.32,0,0,0,.33-.68h0a3.15,3.15,0,0,0-.13-.74c-.63-2-5.07-2.4-6.69-2.54-9.21-.76-16-.61-16-.61a77.65,77.65,0,0,0-18.35,2.9C191.05,233.54,189.86,234,189.6,234.84Z"/><path class="cls-2" d="M189.62,234.9a2.18,2.18,0,0,0,.72,1.25c.64.48,1,.34,1.59.83.79.68.54,1.54.94,2.11.54.75,1.94.58,3.78.17l.41-.1c1.2-.27,2.56-.64,4-.92,1.92-.38,4.85-.46,10.72-.62,2.52-.08,4.1-.06,7.27,0,3.39,0,5.5.13,7,.6l.37.1.28.07a16.87,16.87,0,0,1,2.11.58,2,2,0,0,0,1.17.24,2.06,2.06,0,0,0,1.39-1.44.35.35,0,0,1,0-.06,2.17,2.17,0,0,0,0-.94,1.23,1.23,0,0,1,.1-.95c.27-.44.67-.32,1-.72a1.35,1.35,0,0,0,.33-.69h0a3.65,3.65,0,0,0-.09-1.54c-.63-2-5.07-2.4-6.69-2.53-9.21-.77-16-.61-16-.61a77,77,0,0,0-18.35,2.9c-.66.2-1.9.64-2.13,1.57A2,2,0,0,0,189.62,234.9Z"/><path class="cls-18" d="M152.71,175.55a8.81,8.81,0,0,0-2.59,2.57,9.33,9.33,0,1,0,2.59-2.57Z"/><path class="cls-19" d="M153.76,175.81a8.66,8.66,0,0,0-3.5,3.55l-.61,1.41c0,.14,0,.21-.06.36s-.05.15-.1.34a8.68,8.68,0,0,0,.9,6,8.9,8.9,0,0,0,2.26,2.66,8,8,0,0,0,4.17,1.69,9.59,9.59,0,0,0,1.62,0,8.56,8.56,0,0,0,7-4.61,5.44,5.44,0,0,0,.66-1.77,8.51,8.51,0,0,0-.75-6.31,8.31,8.31,0,0,0-3.55-3.45,6.71,6.71,0,0,0-1.43-.56,4.48,4.48,0,0,0-.69-.2A8.38,8.38,0,0,0,153.76,175.81Z"/><path class="cls-20" d="M157,191.32c6.56,1,12.17-10.82,5.24-14.49C169.51,179.51,166.22,192.56,157,191.32Z"/><path class="cls-21" d="M154.16,176.31a7.36,7.36,0,0,1,6.55.1,7.22,7.22,0,0,0-4.06.66,7.77,7.77,0,0,0-3.32,10.46,8.26,8.26,0,0,0,3.71,3.79,8.07,8.07,0,0,1-6.2-4.55A7.76,7.76,0,0,1,154.16,176.31Z"/><path class="cls-18" d="M160.56,182.49a9,9,0,0,0-2.59,2.58,9.31,9.31,0,1,0,2.59-2.58Z"/><path class="cls-19" d="M161.61,182.75a8.72,8.72,0,0,0-3.5,3.55l-.61,1.41c0,.15,0,.22-.06.36a1.33,1.33,0,0,1-.1.34,8.67,8.67,0,0,0,.9,6,8.94,8.94,0,0,0,2.26,2.67,8.18,8.18,0,0,0,4.17,1.69,9.59,9.59,0,0,0,1.62,0,8.64,8.64,0,0,0,7-4.61,6,6,0,0,0,.66-1.78,8.61,8.61,0,0,0-.75-6.31,8.36,8.36,0,0,0-3.56-3.44,7.35,7.35,0,0,0-1.43-.57,4.71,4.71,0,0,0-.68-.2A8.41,8.41,0,0,0,161.61,182.75Z"/><path class="cls-20" d="M164.9,198.26c6.55,1,12.17-10.81,5.23-14.49C177.37,186.45,174.08,199.5,164.9,198.26Z"/><path class="cls-21" d="M162,183.25a7.41,7.41,0,0,1,6.56.1,7.25,7.25,0,0,0-4.07.66,7.77,7.77,0,0,0-3.31,10.47,8.19,8.19,0,0,0,3.71,3.78,8.09,8.09,0,0,1-6.21-4.54A7.78,7.78,0,0,1,162,183.25Z"/><path class="cls-2" d="M146.05,186.23q9.42.63,19.5.82a409.41,409.41,0,0,0,44.16-1.63l.54,14.63a36,36,0,0,1-11.11,11.65c-12.75,8.31-29.9,7.24-41.71-.27a36.77,36.77,0,0,1-9.21-8.4Q147.13,194.63,146.05,186.23Z"/><path class="cls-1" d="M189,94a37.78,37.78,0,0,0-21.86-7.26.23.23,0,0,0-.16,0c-.33,0-.68,0-1,0-17.52,0-31.86,10.66-32.9,24.1a2.81,2.81,0,0,0,0,.5v0c0,.35,0,.72,0,1.07a19.52,19.52,0,0,0,.32,3.6h65.35a21.42,21.42,0,0,0,.32-3.6C199,105.19,195.12,98.67,189,94Zm49.85-7.49c-2.55-1.73-4.69-5.39-5.62-7-.22-.37-.49-.85-.79-1.45a6.14,6.14,0,0,1-.31-.63,25,25,0,0,1-1.2-3.13c-.09-.27-.18-.58-.28-.88s-.16-.63-.25-1-.16-.67-.23-1-.14-.72-.21-1.08-.13-.75-.2-1.15c-.12-.76-.22-1.6-.28-2.46v0a10.36,10.36,0,0,1-.08-1.11,5.73,5.73,0,0,1-.05-.82c0-.53,0-1.09,0-1.67V63c0-.66,0-1.29,0-1.87a5.73,5.73,0,0,1,.06-.84c0-.38.07-.75.1-1.12a35.46,35.46,0,0,1,.85-4.35h0c-.32-.59-.64-1.17-1-1.73a74.77,74.77,0,0,0-4.09-6.34c-.76-1.05-1.42-1.89-1.89-2.47-1.41-1.75-2.84-3.38-4.31-4.91-.38-.39-.76-.79-1.15-1.17-1.16-1.16-2.37-2.26-3.59-3.28-.66-.56-1.33-1.11-2-1.64-20.19-15.89-44-15.91-48-15.86-7.6.11-27.74,1.58-45.59,16.23-1.3,1-2.54,2.15-3.8,3.33a68,68,0,0,0-5,5.22,69.09,69.09,0,0,0-7.5,10.34,65.52,65.52,0,0,0-6.68,15.41c-.53,1.86-1,3.82-1.37,5.86-.11.63-.22,1.29-.33,2a61.57,61.57,0,0,0-.61,13C94.91,114.52,112,132.43,115,135.41a69.83,69.83,0,0,0,9,7.7,77.29,77.29,0,0,0,7.55,4.81c1.65.91,3.3,1.74,4.94,2.47,1.25.58,2.5,1.11,3.74,1.6h0c1.79.71,3.54,1.33,5.23,1.87h0a79.49,79.49,0,0,0,22.6,3.75,68.15,68.15,0,0,0,6.91.09h0a63.16,63.16,0,0,0,26-6.59c1.09-.54,2.17-1.13,3.25-1.76l.05,0a.36.36,0,0,1,.13-.08c.21-.14.64-.4,1.24-.83a4.93,4.93,0,0,0,.49-.34,5.64,5.64,0,0,0,.55-.39h0c.92-.67,2.07-1.56,3.38-2.65.67-.57,1.38-1.18,2.11-1.85s1.36-1.26,2.08-2l0,0a84.17,84.17,0,0,0,11.1-13.46,88.29,88.29,0,0,0,7-12.46,88.32,88.32,0,0,0,5.94-20c.06-.62.14-1.23.21-1.82.13-1.39.22-2.73.25-4.08C238.82,88.44,238.84,87.47,238.82,86.52Zm-24,41.41a33.78,33.78,0,0,1-1.23,3.43.08.08,0,0,1,0,0,31.12,31.12,0,0,1-1.75,3.45c-.09.15-.23.38-.44.69a27.85,27.85,0,0,1-1.81,2.62h0l0,0a33.22,33.22,0,0,1-6.09,6.05c-.25.21-.52.4-.78.58-.56.41-1.15.81-1.77,1.21s-1.27.77-1.94,1.14a24.83,24.83,0,0,1-9.1,2.88,16,16,0,0,1-2.39.1c-.59,0-1.21-.05-1.81-.12h0a36,36,0,0,1-5.5-1.06,33.74,33.74,0,0,1-9.11-4c-.52-.32-1-.65-1.42-.93a1.46,1.46,0,0,0-.21-.16,43.53,43.53,0,0,0,6.65.18,35.63,35.63,0,0,0,14.27-3.7h0c.49-.24,1-.5,1.49-.79l.06,0h0c10.25-5.85,17-16.92,18.82-29.85l0-.2s0,0,0,0a49.26,49.26,0,0,0,.46-5.86h0a52.89,52.89,0,0,0-.27-6.63c.11.21.24.43.35.66.23.45.48.93.72,1.45a3.55,3.55,0,0,1,.21.44c.27.56.54,1.16.78,1.79.2.47.39.95.57,1.45.11.31.22.62.32.94a41.51,41.51,0,0,1,1.59,6.25c.1.58.2,1.18.26,1.79.06.36.1.73.13,1.1s.06.6.08.9,0,.52.06.82c0,0,0,0,0,0a.22.22,0,0,0,0,.08c0,.23,0,.48,0,.75s.05.82.06,1.27a38.47,38.47,0,0,1-.75,9.12C215.19,126.46,215,127.19,214.79,127.93ZM127.19,68.4c.59-5.8,3.37-12.35,5.78-12.26,1.28.06,2.2,1.91,2.33,2.23.78,1.62.38,3.25-.5,6.31,0,0,0,0,0,.07-1.64,5.74-2.46,7.82-2,8.11s1.28-.86,2.26-1.93,2.1-2.18,2.88-1.87c1.13.43,1.19,3.79.27,7.39a21.13,21.13,0,0,1-1.12,3.37c-.89,2.13-2.5,5.84-4.45,5.78-2.25-.06-4.61-5-5.37-10.83A28.83,28.83,0,0,1,127.19,68.4Zm73.6-3.71s0,0,0,.06c-1.64,5.74-2.46,7.82-2,8.11s1.27-.83,2.25-1.92h0c1-1.08,2.11-2.18,2.86-1.87,1.15.43,1.18,3.8.29,7.39a21.13,21.13,0,0,1-1.12,3.37c-.92,2.13-2.51,5.84-4.46,5.78-2.26-.06-4.63-5-5.38-10.83a28.83,28.83,0,0,1-.09-6.37c.59-5.8,3.39-12.35,5.79-12.26,1.26.06,2.18,1.91,2.33,2.23C202.05,60,201.67,61.62,200.79,64.69Z"/><path class="cls-22" d="M137.62,79.5c-1.13,2.26-3.11,6.17-5.56,6.09-3.79-.08-7.87-9.55-6.82-18.13.73-6.11,4.22-13,7.22-12.9,1.58,0,2.74,2,2.92,2.34,1,1.73.46,3.45-.64,6.73-2.05,6.06-3.08,8.23-2.47,8.55.94.49,4.49-4.63,6.4-4S140.05,74.72,137.62,79.5Z"/><path class="cls-22" d="M204.94,79.5c-1.12,2.26-3.05,6.17-5.42,6.09-3.67-.08-7.63-9.55-6.61-18.13.73-6.11,4.12-13,7-12.9,1.52,0,2.63,2,2.82,2.34.93,1.73.46,3.45-.61,6.73-2,6.06-3,8.23-2.42,8.55.94.49,4.38-4.63,6.21-4S207.29,74.72,204.94,79.5Z"/><path class="cls-23" d="M190.07,150a24.84,24.84,0,0,1-2.64.19,28.67,28.67,0,0,1-18.07-6.32,41.79,41.79,0,0,0,21.21-5.68c-.24,1.64-.43,3.43-.53,5.34A57.69,57.69,0,0,0,190.07,150Z"/><path class="cls-2" d="M209.37,134.86c-.84,1.53-7.36,13.45-19.3,15.13h0c0-.27,0-.54,0-.83s0-.58,0-.87c0-1.48,0-3.09,0-4.77,0-.48.05-1,.09-1.42.11-1.38.27-2.69.44-3.92.46-.27.91-.55,1.35-.83,6-3.94,15.63-13,19.28-35.11a57.06,57.06,0,0,1,1.85,11.45C213.36,119.13,213.73,126.85,209.37,134.86Z"/><path class="cls-24" d="M195.73,111.79a20.07,20.07,0,0,0-2.13-6.19c-5.52-10.55-20-19.33-33.23-17.34-9,1.34-19.57,8-22.57,17.93a18.15,18.15,0,0,0-.77,3.88,19.74,19.74,0,0,0,.37,5.92,26.24,26.24,0,0,0,4.92,10.37,35.14,35.14,0,0,0,3.53,2.82c5.05,3.57,15,8.83,27,6.29,9.41-2,21.67-9.06,22.94-19.38,0,0,0-.06,0-.1A15.2,15.2,0,0,0,195.73,111.79Zm-40.65,9.88c-1.09.14-2.25-1.36-3.13-3.75a17.62,17.62,0,0,1-.59-1.93,27.89,27.89,0,0,1-.64-3.45c-.63-5.26.33-9.7,2.12-9.9a1.5,1.5,0,0,1,.3,0c1.7.24,3.48,4.18,4.06,9.13a24.62,24.62,0,0,1,.16,4.22C157.22,119.22,156.36,121.52,155.08,121.67ZM180,119.5a1.79,1.79,0,0,1-1.43-.68A8.54,8.54,0,0,1,177,116a24.3,24.3,0,0,1-1.31-5.64,20,20,0,0,1,.33-7.52c.4-1.4,1-2.29,1.8-2.38,1.78-.2,3.73,3.88,4.34,9.15a22.8,22.8,0,0,1-.06,6.39C181.69,118,181,119.38,180,119.5Z"/><path class="cls-25" d="M164.38,84.78C147,84.78,133,95.72,133,109.24c0,11.09,9.48,20.46,22.47,23.46h0a40,40,0,0,0,8.94,1c17.36,0,31.44-10.94,31.44-24.46S181.74,84.78,164.38,84.78Zm-13.47,32.9c-1.95,0-3.53-4.1-3.53-9.16s1.58-9.16,3.53-9.16,3.53,4.1,3.53,9.16S152.86,117.68,150.91,117.68Zm27,.72c-1.95,0-3.53-4.1-3.53-9.16s1.58-9.16,3.53-9.16,3.51,4.1,3.51,9.16S179.86,118.4,177.91,118.4Z"/><path class="cls-2" d="M195.73,108.56c-1-11.58-13.25-20.85-28.62-21.82a.29.29,0,0,0-.16,0c-.85-.07-1.71-.09-2.58-.09C147,86.64,133,97.17,133,110.17c0,.38,0,.75,0,1.13v0a18.42,18.42,0,0,0,.56,3.4,12.49,12.49,0,0,0,.38,1.27c1.82,5.38,6.11,10,11.92,13.19a36.3,36.3,0,0,0,9.58,3.56h0a40.92,40.92,0,0,0,8.92,1c14.68,0,27-7.52,30.48-17.71a17.44,17.44,0,0,0,.88-4.2,14.41,14.41,0,0,0,.08-1.62A14.23,14.23,0,0,0,195.73,108.56Zm-44.81,9.73c-.93,0-1.77-.87-2.38-2.3a16.79,16.79,0,0,1-1.16-6.51c0-4.86,1.58-8.81,3.54-8.81.83,0,1.61.73,2.22,2a16.32,16.32,0,0,1,1.3,6.84,16.79,16.79,0,0,1-1.16,6.51,4.85,4.85,0,0,1-1.33,1.93A1.78,1.78,0,0,1,150.92,118.29Zm27,.69c-1,0-2-1.15-2.64-3a17.87,17.87,0,0,1-.88-5.82,15.1,15.1,0,0,1,1.58-7.34,2.44,2.44,0,0,1,1.94-1.47c2,0,3.52,3.94,3.52,8.81a17.87,17.87,0,0,1-.88,5.82,4.8,4.8,0,0,1-2,2.83A1.61,1.61,0,0,1,177.91,119Z"/><path class="cls-26" d="M154.61,110c0,5.32-1.66,9.62-3.7,9.62s-3.7-4.3-3.7-9.62,1.66-9.61,3.7-9.61S154.61,104.66,154.61,110Z"/><path class="cls-27" d="M154.44,110.06c0,4.21-1.32,7.62-2.94,7.62s-2.93-3.41-2.93-7.62,1.31-7.62,2.93-7.62S154.44,105.86,154.44,110.06Z"/><path class="cls-26" d="M181.6,110.17c0,5.31-1.65,9.61-3.69,9.61s-3.7-4.3-3.7-9.61,1.66-9.62,3.7-9.62S181.6,104.86,181.6,110.17Z"/><path class="cls-27" d="M181.42,111.05c0,4.06-1.25,7.35-2.82,7.35s-2.83-3.29-2.83-7.35,1.27-7.35,2.83-7.35S181.42,107,181.42,111.05Z"/><path class="cls-28" d="M262.85,63a5.12,5.12,0,0,1-.77,2.14c-1.06,1.8-3.3,3.63-7.42,7.36L251,75.79l0,0c-1.35,1.24-2.19,2.07-2.77,2.69a53.85,53.85,0,0,0-6.34,8.88h0a4.38,4.38,0,0,1-3-.88c0,1,0,1.93,0,2.9a4.81,4.81,0,0,1-2.5-.87,19,19,0,0,1-4.85-5.46c-.27-.41-.49-.77-.66-1.06-1.12-1.83-3.83-6.73-3.85-15.35a27.53,27.53,0,0,1,1-7.89v0c.06-.19.11-.39.16-.61.36-1.4.78-3,1.24-5.1.26-1.08.51-2.3.76-3.7,1.87-9.73,3.39-17.82,1-19-1.06-.52-3.77-.23-12,9-.38-.4-.75-.79-1.15-1.17-1.17-1.17-2.37-2.26-3.59-3.29a134.4,134.4,0,0,1,14-10.84c3.63-2.47,6.37-4.06,9-3.24,4.36,1.4,5.69,8.91,6.41,12.88a27.81,27.81,0,0,1,.47,5.32c2.21,2.22,4.13,4,5.62,5.42,5.51,5.1,9,7.74,11.55,13.06C262.44,59.68,263.11,61.12,262.85,63Z"/><path class="cls-1" d="M265.89,59.28c-.27,2-1.35,3.47-3.81,5.86-1.17,1.15-2.66,2.51-4.52,4.27-3.69,3.49-5.54,5.23-6.52,6.38l0,0C245,82.69,244.88,87,241.91,87.38h0a4.38,4.38,0,0,1-3-.88c-2.55-1.72-4.69-5.38-5.62-7-.22-.36-.49-.84-.79-1.45-.11-.2-.2-.41-.31-.63a27.81,27.81,0,0,1-1.2-3.13c-.09-.27-.18-.57-.27-.88s-.16-.62-.25-1-.16-.66-.23-1-.15-.72-.22-1.08-.12-.76-.2-1.15c-.12-.77-.21-1.6-.28-2.46v0a10,10,0,0,1-.08-1.11,7.34,7.34,0,0,1-.05-.81c0-.54,0-1.1,0-1.67V63c0-.67,0-1.3.06-1.87a7.77,7.77,0,0,1,0-.85c0-.37.07-.75.11-1.11a37.37,37.37,0,0,1,.84-4.35h0c.58-2.39,1.33-5.27,2.2-10,1.9-10.38,3.46-19,1-20.28-1.22-.62-4.54-.14-15.61,13.69-1.17-1.17-2.37-2.26-3.59-3.29-.66-.55-1.33-1.11-2-1.63a142.86,142.86,0,0,1,18.41-15.46c3.68-2.61,6.5-4.33,9.14-3.44,4.45,1.5,5.82,9.49,6.54,13.73a31.38,31.38,0,0,1,.48,5.64c2.25,2.39,4.21,4.33,5.73,5.8,5.61,5.42,9.2,8.24,11.77,13.9C265.48,55.75,266.14,57.27,265.89,59.28Z"/><path class="cls-29" d="M95.79,67.91c-.54,1.86-1,3.82-1.38,5.85a20.6,20.6,0,0,1-2.35-1.85c-.15-.11-.27-.23-.42-.36a27.67,27.67,0,0,1-2.74-2.82c0-.14.07-.3.1-.45a4.18,4.18,0,0,0,.09-.41c.06-.23.09-.41.09-.41.47-2.19.85-4.39,1.19-6.49.95,1.12,1.92,2.3,2.89,3.54l.11.15C94.23,65.75,95,66.85,95.79,67.91Z"/><path class="cls-10" d="M110,42.15c-.43.5-.88,1-1.32,1.58a68.71,68.71,0,0,0-6.18,8.76,65.6,65.6,0,0,0-6.67,15.42c-.77-1.06-1.56-2.16-2.42-3.25l-.11-.15c-1-1.24-1.94-2.42-2.89-3.54a171.77,171.77,0,0,0,1.92-18.84c.22-6.93-.11-12.73,2.28-13.56a2.53,2.53,0,0,1,1.82.31A11.29,11.29,0,0,1,97.93,30c1,.78,2.21,1.91,3.84,3.51l.09.09.79.79c.31.28.61.61.94.93C105.47,37.19,107.63,39.49,110,42.15Z"/><path class="cls-29" d="M96.39,28.88A11.29,11.29,0,0,1,97.93,30c-.65,2.57-1.31,7.78-1.89,17.7-.77,5.56-1.68,11.22-2.67,17l-.11-.15c-1-1.24-1.94-2.42-2.89-3.54a171.77,171.77,0,0,0,1.92-18.84c.22-6.93-.11-12.73,2.28-13.56a2.53,2.53,0,0,1,1.82.31Z"/><path class="cls-30" d="M118.78,33.6c-.48.39-1,.79-1.43,1.22-.79.67-1.58,1.38-2.37,2.12-.61.57-1.44,1.37-2.41,2.37-.77.81-1.65,1.74-2.61,2.84-2.33-2.66-4.49-5-6.37-6.88-.33-.32-.63-.65-.94-.93l-.79-.79-.09-.09c-1.63-1.6-2.87-2.73-3.84-3.51a11.29,11.29,0,0,0-1.54-1.07l-.29-.15a2,2,0,0,0-1.53-.16c-2.39.83-2.06,6.63-2.28,13.56A171.77,171.77,0,0,1,90.37,61c-.34,2.1-.72,4.3-1.19,6.49,0,0,0,.18-.09.41a4.18,4.18,0,0,1-.09.41c0,.15-.07.31-.1.45-1,4.13-8.32,22.1-12.65,23.57a1.42,1.42,0,0,1-.75.07l-.17,0c-1.15-.3-.61-1.88-2.49-7.24A56.6,56.6,0,0,0,69.62,78c-.07-.15-.16-.31-.25-.47-1-2-2.08-3.92-3.12-5.8l0,0-.59-1.1c-2.52-4.63-3.09-5.49-2.93-7.18.21-2.39,1.65-3.54,6.37-9a85.72,85.72,0,0,0,6-7.35A34.22,34.22,0,0,0,80.2,35.27c.33-5.57.51-8.39,1.62-10.63.16-.27,3.66-7,10.15-7.85,3.43-.42,6.27,1,10.13,3.43A99.64,99.64,0,0,1,118.78,33.6Z"/><path class="cls-1" d="M119.86,32.74,117.54,35l-4.74,4.58a2.61,2.61,0,0,0-.23-.25,53,53,0,0,0-5.23-5.41c-5.76-5.2-11-9.93-14.12-8.65-4,1.63-1.22,11.71-4.68,33.1-.43,2.64-.87,4.87-1.21,6.5,0,0-.12.65-.27,1.28-.66,2.78-6.39,23.87-10.85,26a1.47,1.47,0,0,1-.71.2l-.17,0c-1.31-.14-1-2.14-4.32-9.84A140.24,140.24,0,0,0,63.8,68c-2.51-4.65-3.09-5.5-2.92-7.2.21-2.37,1.63-3.52,6.35-9a86.46,86.46,0,0,0,6.06-7.37,34.25,34.25,0,0,0,5.08-11.76c.08-1.28.19-3,.36-5.29A12.53,12.53,0,0,1,80,22L80,22c.41-.76,3.88-7,10.1-7.77,3.37-.43,6.23,1,10.15,3.43A138.46,138.46,0,0,1,119.86,32.74Z"/><path class="cls-3" d="M95.88,45.55c.82.72,1.64,1.48,2.46,2.3a50,50,0,0,1,4.12,4.64"/><path class="cls-31" d="M246.92,33.71a39.41,39.41,0,0,0,.33,6.13,38.55,38.55,0,0,0,4.58,13.4Z"/><g class="cls-32"><path class="cls-2" d="M78.52,32.65a50.09,50.09,0,0,1-.32,6.12,51.67,51.67,0,0,1-1,6,30,30,0,0,1-5.42,10.92l-.08-.06c.47-.92,1-1.8,1.4-2.73s.89-1.8,1.26-2.73a41.07,41.07,0,0,0,1.87-5.65c.26-1,.46-1.93.65-2.92l.58-3c.35-2,.68-4,1-6Z"/></g><line class="cls-33" x1="45.85" y1="152.92" x2="45.57" y2="152.65"/><line class="cls-33" x1="93.21" y1="205.19" x2="92.55" y2="204.55"/><path class="cls-34" d="M62.56,125.85c-.9,14.22-12.48,25.49-26.62,25.49S10.22,140.07,9.33,125.85a27.39,27.39,0,0,1,1.52-7.5L30.2,136.89l16-3,2-10.39.92-4.66-17.88-18a25.05,25.05,0,0,1,4.7-.43C50.08,100.36,61.66,111.63,62.56,125.85Z"/><path class="cls-35" d="M62.61,127.62a28.53,28.53,0,0,1-.34,4.37,26.9,26.9,0,0,1-21.91,22.52,26.9,26.9,0,0,1-4.42.37c-14.72,0-26.67-12.21-26.67-27.26,0-.6,0-1.18.06-1.77.89,14.22,12.47,25.49,26.61,25.49s25.72-11.27,26.62-25.49C62.59,126.44,62.61,127,62.61,127.62Z"/><path class="cls-33" d="M110.17,179l-47.9-47a27.12,27.12,0,0,1-16.42,20.93l42,42,.53.53v0a13.95,13.95,0,0,0,26.59-5.6,2.62,2.62,0,0,0,0-.28A13.93,13.93,0,0,0,110.17,179Zm-1.62,13.36a6.93,6.93,0,0,1-13.1,0,6,6,0,0,1-.3-1.9,6.86,6.86,0,0,1,13.7,0A6,6,0,0,1,108.55,192.34Z"/><path class="cls-36" d="M115.74,194.24a14,14,0,0,1-23.19,10.31l-1-1a.31.31,0,0,0-.07-.09l-51.11-49a26.85,26.85,0,0,0,5.49-1.59l42,42,.53.53v0a13.95,13.95,0,0,0,26.59-5.6A13.19,13.19,0,0,1,115.74,194.24Z"/><path class="cls-37" d="M108.85,190.44a6,6,0,0,1-.3,1.9,6.93,6.93,0,0,0-13.1,0,6,6,0,0,1-.3-1.9,6.86,6.86,0,0,1,13.7,0Z"/><line class="cls-3" x1="49.34" y1="119.02" x2="49.12" y2="118.8"/><line class="cls-3" x1="49.21" y1="118.37" x2="49.12" y2="118.8"/><polygon class="cls-38" points="48.58 118.86 47.63 123.66 29.5 105.06 30.11 100.36 48.58 118.86"/><line class="cls-38" x1="30.64" y1="105.37" x2="30.59" y2="105.74"/><line class="cls-38" x1="30.64" y1="105.37" x2="30.51" y2="105.23"/></svg>